<?xml version="1.0" encoding="utf-8"?>
<!-- Generator: Adobe Illustrator 19.2.1, SVG Export Plug-In . SVG Version: 6.00 Build 0)  -->
<svg version="1.1" id="Layer_1" xmlns="http://www.w3.org/2000/svg" xmlns:xlink="http://www.w3.org/1999/xlink" x="0px" y="0px"
	 viewBox="0 0 52 52" style="enable-background:new 0 0 52 52;" xml:space="preserve">
<style type="text/css">
	.st0{fill-rule:evenodd;clip-rule:evenodd;fill:#FFF200;}
	.st1{fill:#191919;}
	.st2{opacity:0.59;}
	.st3{fill-rule:evenodd;clip-rule:evenodd;fill:#E7A96B;}
	.st4{fill-rule:evenodd;clip-rule:evenodd;}
	.st5{fill-rule:evenodd;clip-rule:evenodd;fill:#E7A442;}
	.st6{fill-rule:evenodd;clip-rule:evenodd;fill:#FFFFFF;}
	.st7{fill:none;}
	.st8{fill:#231F20;}
	.st9{fill:none;stroke:#231F20;stroke-width:1.5;stroke-linecap:round;stroke-linejoin:round;stroke-miterlimit:10;}
	.st10{fill-rule:evenodd;clip-rule:evenodd;fill:none;stroke:#000000;stroke-width:2;stroke-miterlimit:10;}
	.st11{opacity:0.2;fill-rule:evenodd;clip-rule:evenodd;}
	.st12{fill-rule:evenodd;clip-rule:evenodd;fill:#FFFFFF;stroke:#020202;stroke-width:0.5;stroke-miterlimit:10;}
	
		.st13{fill-rule:evenodd;clip-rule:evenodd;fill:none;stroke:#000000;stroke-width:2;stroke-linecap:round;stroke-linejoin:round;stroke-miterlimit:10;}
	.st14{fill-rule:evenodd;clip-rule:evenodd;fill:#8FE3E5;}
	.st15{fill:#FFFFFF;}
	.st16{opacity:0.2;}
	.st17{fill:#E54265;}
	.st18{fill-rule:evenodd;clip-rule:evenodd;fill:#F2A464;}
	.st19{fill:#020202;}
	.st20{fill-rule:evenodd;clip-rule:evenodd;fill:#A69EEF;}
	.st21{fill-rule:evenodd;clip-rule:evenodd;fill:#FFDA00;}
	.st22{fill-rule:evenodd;clip-rule:evenodd;fill:none;stroke:#020202;stroke-width:2;stroke-miterlimit:10;}
	.st23{fill-rule:evenodd;clip-rule:evenodd;fill:#FF8B00;}
	.st24{fill:#30C630;}
	.st25{fill-rule:evenodd;clip-rule:evenodd;fill:#F784A2;}
	.st26{fill:#22A822;}
	.st27{fill:#2D8C2D;}
	.st28{opacity:0.5;fill-rule:evenodd;clip-rule:evenodd;fill:#8FB8E2;}
</style>
<path class="st4" d="M26.6,42.3c-1.9,0-2.8-1-4.3-0.3c-1.9,0.8-1.8-0.6-0.3-1.1c2.3-0.7,3.2,2.2,6-0.6c2.1-2.1,4.2-1.4,4.4-0.1
	c0.1,0.7-0.5,1-2.4,1.5C29.3,42,28.3,42.3,26.6,42.3z"/>
<g class="st2">
	<g>
		<path class="st3" d="M44.8,34.5c-0.2-1.6-1.7-2.8-3.4-2.6c-1.7,0.2-2.9,1.7-2.7,3.3c0.2,1.6,1.7,2.8,3.4,2.6
			C43.7,37.6,45,36.1,44.8,34.5z M9.4,31.8c-1.7,0.2-3,1.7-2.8,3.4c0.2,1.7,1.7,2.9,3.5,2.7c1.7-0.2,3-1.7,2.8-3.4
			C12.7,32.8,11.2,31.6,9.4,31.8z"/>
	</g>
</g>
<g>
	<path d="M22.7,31c-0.1,0-0.3,0-0.4-0.1L5.1,19.3c-0.5-0.2-0.7-0.8-0.5-1.3c0.2-0.5,0.8-0.7,1.3-0.5l18,8.7c0.5,0.2,0.7,0.8,0.5,1.3
		C24.2,27.9,23.1,31,22.7,31z"/>
</g>
<g>
	<path d="M29.5,31c0.1,0,0.3,0,0.4-0.1l17.2-11.6c0.5-0.2,0.7-0.8,0.5-1.3c-0.2-0.5-0.8-0.7-1.3-0.5l-18,8.7
		c-0.5,0.2-0.7,0.8-0.5,1.3C27.9,27.9,29.1,31,29.5,31z"/>
</g>
<g>
	<g>
		<path class="st4" d="M41.3,23.8c-0.1-0.1-0.2-0.3-0.3-0.4l-12.3,4.8c0.1,1.6,0.6,3.2,1.6,4.6c2.5,3.3,7,3.9,10.1,1.5
			C43.4,31.7,43.8,27,41.3,23.8z"/>
	</g>
</g>
<g>
	<g>
		<path class="st4" d="M11.1,23.4c-0.1,0.1-0.2,0.3-0.3,0.4c-2.5,3.3-2.1,8,0.9,10.4c3,2.5,7.5,1.8,10.1-1.5c1.1-1.4,1.6-3,1.6-4.6
			L11.1,23.4z"/>
	</g>
</g>
</svg>
