<?xml version="1.0" encoding="utf-8"?>
<!-- Generator: Adobe Illustrator 19.2.1, SVG Export Plug-In . SVG Version: 6.00 Build 0)  -->
<svg version="1.1" id="Layer_1" xmlns="http://www.w3.org/2000/svg" xmlns:xlink="http://www.w3.org/1999/xlink" x="0px" y="0px"
	 viewBox="0 0 52 52" style="enable-background:new 0 0 52 52;" xml:space="preserve">
<style type="text/css">
	.st0{fill-rule:evenodd;clip-rule:evenodd;fill:#FFF200;}
	.st1{fill:#191919;}
	.st2{opacity:0.59;}
	.st3{fill-rule:evenodd;clip-rule:evenodd;fill:#E7A96B;}
	.st4{fill-rule:evenodd;clip-rule:evenodd;}
	.st5{fill-rule:evenodd;clip-rule:evenodd;fill:#E7A442;}
	.st6{fill-rule:evenodd;clip-rule:evenodd;fill:#FFFFFF;}
	.st7{fill:none;}
	.st8{fill:#231F20;}
	.st9{fill:none;stroke:#231F20;stroke-width:1.5;stroke-linecap:round;stroke-linejoin:round;stroke-miterlimit:10;}
	.st10{fill-rule:evenodd;clip-rule:evenodd;fill:none;stroke:#000000;stroke-width:2;stroke-miterlimit:10;}
	.st11{opacity:0.2;fill-rule:evenodd;clip-rule:evenodd;}
	.st12{fill-rule:evenodd;clip-rule:evenodd;fill:#FFFFFF;stroke:#020202;stroke-width:0.5;stroke-miterlimit:10;}
	
		.st13{fill-rule:evenodd;clip-rule:evenodd;fill:none;stroke:#000000;stroke-width:2;stroke-linecap:round;stroke-linejoin:round;stroke-miterlimit:10;}
	.st14{fill-rule:evenodd;clip-rule:evenodd;fill:#8FE3E5;}
	.st15{fill:#FFFFFF;}
	.st16{opacity:0.2;}
	.st17{fill:#E54265;}
	.st18{fill-rule:evenodd;clip-rule:evenodd;fill:#F2A464;}
	.st19{fill:#020202;}
	.st20{fill-rule:evenodd;clip-rule:evenodd;fill:#A69EEF;}
	.st21{fill-rule:evenodd;clip-rule:evenodd;fill:#FFDA00;}
	.st22{fill-rule:evenodd;clip-rule:evenodd;fill:none;stroke:#020202;stroke-width:2;stroke-miterlimit:10;}
	.st23{fill-rule:evenodd;clip-rule:evenodd;fill:#FF8B00;}
	.st24{fill:#30C630;}
	.st25{fill-rule:evenodd;clip-rule:evenodd;fill:#F784A2;}
	.st26{fill:#22A822;}
	.st27{fill:#2D8C2D;}
	.st28{opacity:0.5;fill-rule:evenodd;clip-rule:evenodd;fill:#8FB8E2;}
</style>
<path d="M33.1,40.3c-0.3-0.2-0.6-0.4-0.9-0.6c-1.1-0.6-2.3-1.1-3.5-1.5c-4.6-1.4-9-0.5-12.9,2.3c-0.8,0.6-1.8-0.3-1-1.2
	c0.3-0.3,1.7-2.9,4.6-4.5c4.3-2.5,13.1-2.8,16.4,0.6c1,1.1,1.4,2.1,1.2,2.9c-0.3,1-1,1.9-1.9,2.3C34.3,41,33.7,40.7,33.1,40.3z"/>
<path class="st15" d="M34.9,35.9l0,0.4c-0.1,1.2-0.3,2.5-2.5,1.6h0c-1.4-0.4-1.6-0.8-1.5-1.9l0-0.5c0.1-0.6,0-1.7,0.6-1.6
	c0.7,0.1,1.7,0.5,2.5,0.9C34.6,35.1,35,35.3,34.9,35.9z"/>
<path class="st11" d="M41.2,15.3c-1,0.8-3,1.7-6.3,2.8c-3,1-5,1.4-6.3,1.4c-0.3,0.9-0.5,1.9-0.5,2.9c0,4.7,3.8,8.5,8.5,8.5
	S45,27,45,22.3C45,19.4,43.5,16.8,41.2,15.3z"/>
<path class="st15" d="M30,34c-0.2,1.2-0.4,3.1-2,3.1c-0.8,0-1.6-0.1-2.3-0.3c-0.2-0.1-0.4-0.1-0.6-0.3c-0.4-0.4-0.8-2.3-0.2-2.7
	c0.2-0.1,0.8-0.3,1.9-0.4c1-0.1,2.1,0,2.6,0.1C29.8,33.7,30.1,33.8,30,34z"/>
<path class="st11" d="M17.8,17.8c-3-1-4.9-1.8-6-2.5c-2.3,1.5-3.9,4.1-3.9,7.1c0,4.7,3.8,8.5,8.5,8.5c4.7,0,8.5-3.8,8.5-8.5
	c0-1.1-0.2-2.2-0.6-3.2C22.9,19.1,20.9,18.7,17.8,17.8z"/>
<path class="st6" d="M42.2,14.4c-0.4,1.1-2.3,2.4-7.2,3.9c-2.6,0.8-4.4,1.2-5.7,1.3c-0.1,0.5-0.2,1.1-0.2,1.6c0,4.6,3.8,8.3,8.4,8.3
	s8.4-3.7,8.4-8.3C45.9,18.4,44.4,15.9,42.2,14.4z"/>
<circle class="st4" cx="33.8" cy="21.3" r="1.6"/>
<path d="M29.4,21.3c2.7-1.8,11.3-4.9,15.8-6.5c1-0.4,4-1.8-1-1.4c-6,0.5-17.8,5.3-17.4,7C27.3,22.2,28.8,21.6,29.4,21.3z"/>
<path class="st6" d="M18,18.3c-4.9-1.6-6.8-2.8-7.2-3.9c-2.3,1.5-3.8,4-3.8,6.9c0,4.6,3.8,8.3,8.4,8.3c4.7,0,8.4-3.7,8.4-8.3
	c0-0.6-0.1-1.1-0.2-1.6C22.4,19.5,20.6,19.1,18,18.3z"/>
<path class="st19" d="M42.5,14.3c-0.1,0.1-0.2,0.3-0.3,0.4c2.1,1.4,3.5,3.9,3.5,6.6c0,4.4-3.7,8-8.2,8s-8.2-3.6-8.2-8
	c0-0.7,0.1-1.4,0.3-2.1c-0.2,0-0.4,0-0.5,0c-0.2,0.7-0.3,1.4-0.3,2.1c0,4.7,3.9,8.5,8.7,8.5s8.7-3.8,8.7-8.5
	C46.2,18.4,44.7,15.9,42.5,14.3z"/>
<path class="st19" d="M23,18.4c0.3,0.9,0.5,1.8,0.5,2.8c0,4.4-3.7,8-8.2,8s-8.2-3.6-8.2-8c0-2.9,1.6-5.5,4-6.9
	c-0.2-0.1-0.3-0.2-0.4-0.3c-2.5,1.5-4.2,4.2-4.2,7.3c0,4.7,3.9,8.5,8.7,8.5s8.7-3.8,8.7-8.5c0-1-0.2-1.9-0.5-2.8
	C23.4,18.5,23.2,18.5,23,18.4z"/>
<circle class="st4" cx="19.1" cy="21.3" r="1.6"/>
<path d="M23.5,21.3c-2.7-1.8-11.3-4.9-15.8-6.5c-1-0.4-4-1.8,1-1.4c6,0.5,17.8,5.3,17.4,7C25.6,22.2,24.1,21.6,23.5,21.3z"/>
<path class="st16" d="M30.6,33.4c2.4,0.2,6.4,1.8,6.4,4.7c0,0.6-0.3,1.1-0.6,0.3c-0.6-2.1-4-3.6-6-3.8c-2.6-0.3-5.1-0.4-7.5,0.1
	c-0.2,0.1-0.6-0.1-0.7-0.4c0-0.3,0.1-0.4,0.3-0.5C25,33.1,27.8,33.1,30.6,33.4z"/>
</svg>
