<?xml version="1.0" encoding="utf-8"?>
<!-- Generator: Adobe Illustrator 19.2.1, SVG Export Plug-In . SVG Version: 6.00 Build 0)  -->
<svg version="1.1" id="Layer_1" xmlns="http://www.w3.org/2000/svg" xmlns:xlink="http://www.w3.org/1999/xlink" x="0px" y="0px"
	 viewBox="0 0 52 52" style="enable-background:new 0 0 52 52;" xml:space="preserve">
<style type="text/css">
	.st0{fill:#010101;}
	.st1{fill:#FFFFFF;}
</style>
<g>
	<path class="st0" d="M15.9,31.6c0,2.2-2,3.9-4,3.5c-1.8-0.4-4.4-2.3-3.9-5.9c0.2-2.1,0.5-1.6,3.4-0.7
		C15.3,29.6,15.9,29.5,15.9,31.6z"/>
</g>
<g>
	<path class="st1" d="M12,30.5c-0.1,0.4-0.9,0.9-1.9,0.5C9.3,30.7,9,30,9,29.6c0-1.4,0.6-0.4,1.5-0.2C11.4,29.6,12.1,30.1,12,30.5z"
		/>
</g>
<g>
	<path class="st0" d="M14.8,31.2c-0.1,0-0.2,0-0.2,0l-8.9-3c-0.4-0.1-0.6-0.6-0.5-1c0.1-0.4,0.6-0.6,1-0.5l8.9,3
		c0.4,0.1,0.6,0.6,0.5,1C15.4,31,15.1,31.2,14.8,31.2z"/>
</g>
<g>
	<path class="st0" d="M36.1,31.6c0,2.2,2,3.9,4,3.5c1.8-0.4,4.4-2.3,3.9-5.9c-0.2-2.1-0.5-1.6-3.4-0.7
		C36.8,29.6,36.1,29.5,36.1,31.6z"/>
</g>
<g>
	<path class="st1" d="M40,30.5c0.1,0.4,0.9,0.9,1.9,0.5c0.9-0.4,1.1-1,1.1-1.5c0-1.4-0.6-0.4-1.5-0.2C40.6,29.6,39.9,30.1,40,30.5z"
		/>
</g>
<g>
	<path class="st0" d="M37.2,31.2c-0.3,0-0.6-0.2-0.7-0.5c-0.1-0.4,0.1-0.8,0.5-1l8.9-3c0.4-0.1,0.8,0.1,1,0.5c0.1,0.4-0.1,0.8-0.5,1
		l-8.9,3C37.4,31.2,37.3,31.2,37.2,31.2z"/>
</g>
<g>
	<path class="st0" d="M25.9,39.7c-1.2,0-2.1-0.9-2.7-1.5c-0.1-0.1-0.2-0.2-0.3-0.3c-0.1,0.1-0.2,0.2-0.2,0.3
		c-0.2,0.2-0.4,0.4-0.6,0.6c-0.9,0.8-2.2,1.1-3.9,0.9c-0.4-0.1-0.7-0.4-0.6-0.8c0.1-0.4,0.4-0.7,0.8-0.6c1.2,0.2,2.1,0,2.7-0.5
		c0.2-0.2,0.3-0.3,0.4-0.5c0.3-0.4,0.7-0.8,1.4-0.8c0.5,0,1,0.4,1.4,0.9c0.5,0.5,1,1,1.6,1c0.6,0,1-0.3,1.4-0.9c0.3-0.4,0.8-1,1.5-1
		c0.8,0,1.2,0.5,1.6,0.9c0.1,0.1,0.3,0.3,0.4,0.4c0.6,0.5,0.9,0.6,2.5,0.5c0.4,0,0.8,0.3,0.8,0.7c0,0.4-0.3,0.8-0.7,0.8
		c-1.8,0.1-2.5,0.1-3.6-0.9c-0.2-0.2-0.4-0.4-0.5-0.5c-0.3-0.3-0.4-0.4-0.5-0.4c0,0-0.2,0.3-0.3,0.4C28,38.8,27.3,39.7,25.9,39.7z"
		/>
</g>
</svg>
