<?xml version="1.0" encoding="utf-8"?>
<!-- Generator: Adobe Illustrator 19.2.1, SVG Export Plug-In . SVG Version: 6.00 Build 0)  -->
<svg version="1.1" id="Layer_1" xmlns="http://www.w3.org/2000/svg" xmlns:xlink="http://www.w3.org/1999/xlink" x="0px" y="0px"
	 viewBox="0 0 52 52" style="enable-background:new 0 0 52 52;" xml:space="preserve">
<style type="text/css">
	.st0{fill:#010101;}
	.st1{fill:#FFFFFF;}
</style>
<g>
	<path class="st0" d="M40.3,35.5H16.7c-0.4,0-0.7-0.3-0.7-0.8s0.3-0.8,0.7-0.8h23.6c0.4,0,0.8,0.3,0.8,0.8S40.7,35.5,40.3,35.5z"/>
</g>
<g>
	<path class="st0" d="M13.3,27.3c-0.2,0-0.4-0.1-0.5-0.2l-4.6-4.6c-0.3-0.3-0.3-0.8,0-1.1c0.3-0.3,0.8-0.3,1.1,0l4.6,4.6
		c0.3,0.3,0.3,0.8,0,1.1C13.7,27.2,13.5,27.3,13.3,27.3z"/>
</g>
<g>
	<path class="st0" d="M8.7,27.3c-0.2,0-0.4-0.1-0.5-0.2c-0.3-0.3-0.3-0.8,0-1.1l4.6-4.6c0.3-0.3,0.8-0.3,1.1,0s0.3,0.8,0,1.1L9.3,27
		C9.1,27.2,8.9,27.3,8.7,27.3z"/>
</g>
<g>
	<path class="st0" d="M43.4,27.3c-0.2,0-0.4-0.1-0.5-0.2l-4.6-4.6c-0.3-0.3-0.3-0.8,0-1.1s0.8-0.3,1.1,0L44,26
		c0.3,0.3,0.3,0.8,0,1.1C43.8,27.2,43.6,27.3,43.4,27.3z"/>
</g>
<g>
	<path class="st0" d="M38.8,27.3c-0.2,0-0.4-0.1-0.5-0.2c-0.3-0.3-0.3-0.8,0-1.1l4.6-4.6c0.3-0.3,0.8-0.3,1.1,0s0.3,0.8,0,1.1
		L39.4,27C39.2,27.2,39,27.3,38.8,27.3z"/>
</g>
<g>
	<path class="st1" d="M28.5,34.8l0.7,2.8c0.5,3.1,2.2,4.1,4.4,4.1l0,0c2.2,0,3.6-2.5,3.6-4.1c0-1.6-0.7-2.9-0.7-2.9H28.5z"/>
	<path class="st0" d="M33.6,42.4c-2,0-4.5-0.8-5.2-4.8l-0.7-2.7c-0.1-0.2,0-0.5,0.1-0.6s0.4-0.3,0.6-0.3h8c0.3,0,0.5,0.1,0.6,0.4
		c0,0.1,0.8,1.4,0.8,3.2C38,39.6,36.3,42.4,33.6,42.4z M29.4,35.5l0.5,1.9c0.4,2.5,1.6,3.6,3.7,3.6c1.6,0,2.9-2,2.9-3.3
		c0-0.9-0.3-1.7-0.5-2.1H29.4z"/>
</g>
<g>
	<path class="st0" d="M34,42.1c-0.4,0-0.7-0.3-0.7-0.6c0,0-0.4-2.5-0.6-3.3c-0.4-1.7-0.9-3.2-0.9-3.2c-0.1-0.4,0.1-0.8,0.5-0.9
		c0.4-0.1,0.8,0.1,0.9,0.5c0,0.1,0.5,1.6,0.9,3.4c0.2,0.8,0.6,3.3,0.6,3.4c0.1,0.4-0.2,0.8-0.6,0.9C34.1,42.1,34,42.1,34,42.1z"/>
</g>
</svg>
