<?xml version="1.0" encoding="utf-8"?>
<!-- Generator: Adobe Illustrator 19.2.1, SVG Export Plug-In . SVG Version: 6.00 Build 0)  -->
<svg version="1.1" id="Layer_1" xmlns="http://www.w3.org/2000/svg" xmlns:xlink="http://www.w3.org/1999/xlink" x="0px" y="0px"
	 viewBox="0 0 52 52" style="enable-background:new 0 0 52 52;" xml:space="preserve">
<style type="text/css">
	.st0{fill:#010101;}
	.st1{fill:#FFFFFF;}
</style>
<g>
	<path class="st0" d="M29.9,40C29.9,40,29.9,40,29.9,40c-0.6,0-1.3-0.4-2.3-1c-0.4-0.2-1-0.6-1.2-0.7c-0.3,0-0.6,0.2-1.1,0.6
		C24.8,39.4,24,40,22.8,40c-1.2,0-2.1-0.9-2.7-1.4c-0.1-0.1-0.3-0.3-0.4-0.4c-0.6,0-1.1,0.3-1.6,0.7c-0.8,0.5-1.8,1.2-3.2,0.7
		c-0.4-0.1-0.6-0.6-0.4-1c0.1-0.4,0.6-0.6,1-0.4c0.7,0.3,1.1,0,1.8-0.5c0.6-0.4,1.4-1,2.6-1c0.5,0,0.9,0.4,1.4,0.8
		c0.5,0.5,1,1,1.6,1c0.7,0,1.1-0.3,1.6-0.7c0.5-0.4,1.1-0.9,2-0.9c0,0,0,0,0,0c0.5,0,1.1,0.3,1.9,0.9c0.5,0.3,1.2,0.8,1.5,0.8
		c0,0,0,0,0,0c0.4,0,0.9-0.4,1.4-0.8c0.7-0.5,1.5-1.2,2.6-1c0.6,0.1,1.3,0.4,1.9,0.8c0.5,0.2,1.2,0.6,1.5,0.6c0.3-0.3,0.7-0.3,1-0.1
		c0.3,0.3,0.3,0.8,0.1,1.1c-0.8,1-2.1,0.3-3.2-0.2c-0.6-0.3-1.1-0.5-1.5-0.6c-0.4-0.1-0.8,0.2-1.4,0.7C31.6,39.4,30.9,40,29.9,40z"
		/>
</g>
<g>
	<circle class="st1" cx="12.5" cy="24.9" r="6.3"/>
	<path class="st0" d="M12.5,31.9c-3.9,0-7-3.1-7-7c0-3.9,3.1-7,7-7s7,3.1,7,7C19.6,28.7,16.4,31.9,12.5,31.9z M12.5,19.4
		c-3,0-5.5,2.5-5.5,5.5c0,3,2.5,5.5,5.5,5.5c3,0,5.5-2.5,5.5-5.5C18.1,21.8,15.6,19.4,12.5,19.4z"/>
</g>
<g>
	<path class="st0" d="M11.1,31.6c-0.4,0-0.7-0.3-0.7-0.7c0-0.4,0.3-0.8,0.7-0.8c1.3-0.1,2.7-0.6,3.7-1.4c1.3-1.1,1.7-3.1,1.4-4.4
		c-0.2-1.2-1.2-2.2-2.5-2.6c-1-0.3-2.7,0-3.6,0.9c-0.7,0.8-1,1.8-0.7,2.9c0.2,0.9,0.8,1.5,1.5,1.7c0.8,0.3,2,0.2,2.7-0.4
		c0.4-0.4,0.6-1.1,0.5-1.8c-0.1-0.7-0.7-1.1-1.5-1c-0.3,0-0.7,0.2-0.9,0.5c-0.2,0.2-0.2,0.4-0.2,0.5c0.1,0.2,0.3,0.4,0.4,0.5
		c0.4,0,0.7,0.3,0.7,0.7c0,0.4-0.3,0.8-0.8,0.8c-0.6,0-1.4-0.5-1.7-1.2c-0.4-0.7-0.2-1.5,0.3-2.2c0.5-0.6,1.2-0.9,1.9-1
		c1.5-0.1,2.8,0.8,3,2.3c0.2,1.3-0.1,2.5-0.9,3.2c-1.2,1.1-3,1.1-4.2,0.7c-1.2-0.4-2.2-1.4-2.5-2.8c-0.4-1.5,0-3.1,1-4.3
		c1.3-1.4,3.7-1.8,5.2-1.3c1.8,0.6,3.2,2,3.6,3.8c0.3,1.7-0.1,4.3-1.9,5.9C14.6,30.8,12.8,31.5,11.1,31.6
		C11.2,31.6,11.1,31.6,11.1,31.6z"/>
</g>
<g>
	<circle class="st1" cx="39" cy="24.9" r="6.3"/>
	<path class="st0" d="M39,31.9c-3.9,0-7-3.1-7-7c0-3.9,3.1-7,7-7s7,3.1,7,7C46,28.7,42.9,31.9,39,31.9z M39,19.4
		c-3,0-5.5,2.5-5.5,5.5c0,3,2.5,5.5,5.5,5.5s5.5-2.5,5.5-5.5C44.5,21.8,42,19.4,39,19.4z"/>
</g>
<g>
	<path class="st0" d="M37.6,31.6c-0.4,0-0.7-0.3-0.7-0.7c0-0.4,0.3-0.8,0.7-0.8c1.3-0.1,2.7-0.6,3.7-1.4c1.3-1.1,1.7-3.1,1.4-4.4
		c-0.2-1.2-1.2-2.2-2.5-2.6c-1-0.3-2.7,0-3.6,0.9c-0.7,0.8-1,1.8-0.7,2.9c0.2,0.9,0.8,1.5,1.5,1.7c0.8,0.3,2,0.2,2.7-0.4
		c0.4-0.4,0.6-1.1,0.5-1.8c-0.1-0.7-0.7-1.1-1.5-1c-0.3,0-0.7,0.2-0.9,0.5C38,24.5,38,24.6,38,24.7c0.1,0.2,0.3,0.4,0.4,0.5
		c0.4,0,0.7,0.3,0.7,0.7c0,0.4-0.3,0.8-0.8,0.8c-0.6,0-1.4-0.5-1.7-1.2c-0.4-0.7-0.2-1.5,0.3-2.2c0.5-0.6,1.2-0.9,1.9-1
		c1.6-0.1,2.8,0.8,3,2.3c0.2,1.3-0.1,2.5-0.9,3.2c-1.2,1.1-3,1.1-4.2,0.7c-1.2-0.4-2.2-1.4-2.5-2.8c-0.4-1.5,0-3.1,1-4.3
		c1.3-1.4,3.7-1.8,5.2-1.3c1.8,0.6,3.2,2,3.6,3.8c0.3,1.7-0.1,4.3-1.9,5.9C41,30.8,39.3,31.5,37.6,31.6
		C37.6,31.6,37.6,31.6,37.6,31.6z"/>
</g>
</svg>
