<?xml version="1.0" encoding="utf-8"?>
<!-- Generator: Adobe Illustrator 19.2.1, SVG Export Plug-In . SVG Version: 6.00 Build 0)  -->
<svg version="1.1" id="Layer_1" xmlns="http://www.w3.org/2000/svg" xmlns:xlink="http://www.w3.org/1999/xlink" x="0px" y="0px"
	 viewBox="0 0 52 52" style="enable-background:new 0 0 52 52;" xml:space="preserve">
<style type="text/css">
	.st0{fill-rule:evenodd;clip-rule:evenodd;fill:#FFF200;}
	.st1{fill:#191919;}
	.st2{opacity:0.59;}
	.st3{fill-rule:evenodd;clip-rule:evenodd;fill:#E7A96B;}
	.st4{fill-rule:evenodd;clip-rule:evenodd;}
	.st5{fill-rule:evenodd;clip-rule:evenodd;fill:#E7A442;}
	.st6{fill-rule:evenodd;clip-rule:evenodd;fill:#FFFFFF;}
	.st7{fill:none;}
	.st8{fill:#231F20;}
	.st9{fill:none;stroke:#231F20;stroke-width:1.5;stroke-linecap:round;stroke-linejoin:round;stroke-miterlimit:10;}
	.st10{fill-rule:evenodd;clip-rule:evenodd;fill:none;stroke:#000000;stroke-width:2;stroke-miterlimit:10;}
	.st11{opacity:0.2;fill-rule:evenodd;clip-rule:evenodd;}
	.st12{fill-rule:evenodd;clip-rule:evenodd;fill:#FFFFFF;stroke:#020202;stroke-width:0.5;stroke-miterlimit:10;}
	
		.st13{fill-rule:evenodd;clip-rule:evenodd;fill:none;stroke:#000000;stroke-width:2;stroke-linecap:round;stroke-linejoin:round;stroke-miterlimit:10;}
	.st14{fill-rule:evenodd;clip-rule:evenodd;fill:#8FE3E5;}
	.st15{fill:#FFFFFF;}
	.st16{opacity:0.2;}
	.st17{fill:#E54265;}
	.st18{fill-rule:evenodd;clip-rule:evenodd;fill:#F2A464;}
	.st19{fill:#020202;}
	.st20{fill-rule:evenodd;clip-rule:evenodd;fill:#A69EEF;}
	.st21{fill-rule:evenodd;clip-rule:evenodd;fill:#FFDA00;}
	.st22{fill-rule:evenodd;clip-rule:evenodd;fill:none;stroke:#020202;stroke-width:2;stroke-miterlimit:10;}
	.st23{fill-rule:evenodd;clip-rule:evenodd;fill:#FF8B00;}
	.st24{fill:#30C630;}
	.st25{fill-rule:evenodd;clip-rule:evenodd;fill:#F784A2;}
	.st26{fill:#22A822;}
	.st27{fill:#2D8C2D;}
	.st28{opacity:0.5;fill-rule:evenodd;clip-rule:evenodd;fill:#8FB8E2;}
</style>
<g class="st2">
	<g>
		<ellipse class="st3" cx="12.3" cy="37.8" rx="4.2" ry="4.1"/>
	</g>
</g>
<g class="st2">
	<g>
		<ellipse class="st3" cx="40.4" cy="37.8" rx="4.2" ry="4.1"/>
	</g>
</g>
<g>
	<path d="M43.5,27c-0.1,0-0.1,0-0.2,0c0,0-4.4-1.8-7.7-1.7c-3.2,0-6.5,0.4-6.6,0.4c-0.3,0-0.6-0.2-0.6-0.5s0.2-0.6,0.5-0.6
		c0,0,3.4-0.4,6.7-0.4c0,0,0.1,0,0.1,0c3.6,0,7.8,1.7,8,1.8c0.3,0.1,0.4,0.4,0.3,0.7C43.9,26.9,43.7,27,43.5,27z"/>
</g>
<g>
	<g>
		<path class="st4" d="M37,24.6l6.8,1.8c0,0,0,0,0,0c2.4-4.1,1.1-9.4-3-11.8c-4-2.4-9.2-1-11.6,3.1c-1.3,2.3-1.5,5-0.7,7.3L37,24.6z
			 M31.4,21.4c0.6-0.4,1.4-0.3,1.8,0.3c0.4,0.6,0.3,1.4-0.3,1.8c-0.6,0.4-1.4,0.3-1.8-0.3C30.7,22.6,30.8,21.8,31.4,21.4z"/>
	</g>
</g>
<g>
	<g>
		<path class="st4" d="M16.2,24.6l7.4,0.7c1.5-3.9,0.1-8.4-3.5-10.6c-4-2.4-9.2-1-11.6,3.1c-1.5,2.6-1.5,5.7-0.3,8.3L16.2,24.6z
			 M10.6,21.4c0.6-0.4,1.4-0.3,1.8,0.3c0.4,0.6,0.3,1.4-0.3,1.8c-0.6,0.4-1.4,0.3-1.8-0.3C9.9,22.6,10,21.8,10.6,21.4z"/>
	</g>
</g>
<g>
	<path d="M24.1,25.7c-0.1,0-0.1,0-0.2,0c0,0-4.9-1.1-8.5-0.5c-3.4,0.6-6.8,1.6-6.9,1.6c-0.3,0.1-0.6-0.1-0.7-0.4
		c-0.1-0.3,0.1-0.6,0.4-0.7c0,0,3.5-1,7-1.6c0.1,0,0.1,0,0.2,0c3.8-0.6,8.6,0.4,8.8,0.5c0.3,0.1,0.5,0.4,0.4,0.7
		C24.5,25.5,24.3,25.6,24.1,25.7z"/>
</g>
<path class="st4" d="M29.9,43.3c0,0.6-0.9-0.4-2.2-0.4s-2.4,1.1-2.4,0.4s1-1.2,2.3-1.2S29.9,42.6,29.9,43.3z"/>
<g>
	<g>
		<path class="st6" d="M19.2,15.2c-0.3-0.2-0.9-0.5-1.3,0c-0.2,0.3-0.2,0.7,0.3,1.2c0.6,0.5,0.8,0.6,1.3,0.5
			C20.3,16.7,19.9,15.7,19.2,15.2z M22.1,19.5c-0.3-1.5-1.3-2.9-1.9-2.5c-1.1,0.6,0.1,1,0.4,2.5c0.3,1.4,0.2,3.1,0.8,2.9
			C22.1,22.2,22.4,21.1,22.1,19.5z"/>
	</g>
</g>
<g>
	<g>
		<path class="st6" d="M39.8,15.2c-0.3-0.2-0.9-0.5-1.3,0c-0.2,0.3-0.2,0.7,0.3,1.2c0.6,0.5,0.8,0.6,1.3,0.5
			C40.9,16.7,40.5,15.7,39.8,15.2z M42.7,19.5c-0.3-1.5-1.3-2.9-1.9-2.5c-1.1,0.6,0.1,1,0.4,2.5c0.3,1.4,0.2,3.1,0.8,2.9
			C42.7,22.2,43,21.1,42.7,19.5z"/>
	</g>
</g>
</svg>
