<?xml version="1.0" encoding="utf-8"?>
<!-- Generator: Adobe Illustrator 19.2.1, SVG Export Plug-In . SVG Version: 6.00 Build 0)  -->
<svg version="1.1" id="Layer_1" xmlns="http://www.w3.org/2000/svg" xmlns:xlink="http://www.w3.org/1999/xlink" x="0px" y="0px"
	 viewBox="0 0 52 52" style="enable-background:new 0 0 52 52;" xml:space="preserve">
<style type="text/css">
	.st0{fill-rule:evenodd;clip-rule:evenodd;fill:#FFF200;}
	.st1{fill:#191919;}
	.st2{opacity:0.59;}
	.st3{fill-rule:evenodd;clip-rule:evenodd;fill:#E7A96B;}
	.st4{fill-rule:evenodd;clip-rule:evenodd;}
	.st5{fill-rule:evenodd;clip-rule:evenodd;fill:#E7A442;}
	.st6{fill-rule:evenodd;clip-rule:evenodd;fill:#FFFFFF;}
	.st7{fill:none;}
	.st8{fill:#231F20;}
	.st9{fill:none;stroke:#231F20;stroke-width:1.5;stroke-linecap:round;stroke-linejoin:round;stroke-miterlimit:10;}
	.st10{fill-rule:evenodd;clip-rule:evenodd;fill:none;stroke:#000000;stroke-width:2;stroke-miterlimit:10;}
	.st11{opacity:0.2;fill-rule:evenodd;clip-rule:evenodd;}
	.st12{fill-rule:evenodd;clip-rule:evenodd;fill:#FFFFFF;stroke:#020202;stroke-width:0.5;stroke-miterlimit:10;}
	
		.st13{fill-rule:evenodd;clip-rule:evenodd;fill:none;stroke:#000000;stroke-width:2;stroke-linecap:round;stroke-linejoin:round;stroke-miterlimit:10;}
	.st14{fill-rule:evenodd;clip-rule:evenodd;fill:#8FE3E5;}
	.st15{fill:#FFFFFF;}
	.st16{opacity:0.2;}
	.st17{fill:#E54265;}
	.st18{fill-rule:evenodd;clip-rule:evenodd;fill:#F2A464;}
	.st19{fill:#020202;}
	.st20{fill-rule:evenodd;clip-rule:evenodd;fill:#A69EEF;}
	.st21{fill-rule:evenodd;clip-rule:evenodd;fill:#FFDA00;}
	.st22{fill-rule:evenodd;clip-rule:evenodd;fill:none;stroke:#020202;stroke-width:2;stroke-miterlimit:10;}
	.st23{fill-rule:evenodd;clip-rule:evenodd;fill:#FF8B00;}
	.st24{fill:#30C630;}
	.st25{fill-rule:evenodd;clip-rule:evenodd;fill:#F784A2;}
	.st26{fill:#22A822;}
	.st27{fill:#2D8C2D;}
	.st28{opacity:0.5;fill-rule:evenodd;clip-rule:evenodd;fill:#8FB8E2;}
</style>
<path class="st11" d="M15.5,22.1c3.2-0.2,5.7,0.4,7.5,0.8c0.2-0.8,0.4-1.6,0.4-2.4c0-4.4-3.6-8-8-8c-4.4,0-8,3.6-8,8
	c0,1.1,0.2,2.1,0.6,3.1C9.5,23,12.1,22.3,15.5,22.1z"/>
<path class="st6" d="M15.4,22.3c3.6-0.2,6.4,0.5,8.2,1c0.1-0.5,0.1-1,0.1-1.4c0-4.3-3.6-7.8-8-7.8s-8,3.5-8,7.8
	c0,0.6,0.1,1.3,0.2,1.8C9.7,23.1,12.2,22.4,15.4,22.3z"/>
<path d="M27.5,37.5c-0.9,0.3-1.7,1-2.3,1.9c0,0-0.1,0.2,0,0.4c0.1,0.1,0.3,0,0.4-0.1c0.5-0.3,1.3-1.2,2-1.5c0.9-0.3,1.6-0.1,2.5,0.2
	c0.2,0.1,0.3,0,0.4-0.2c0.1-0.2-0.1-0.3-0.2-0.4C29.4,37.5,28.5,37.3,27.5,37.5z"/>
<path class="st19" d="M8.3,23.6c-0.1-0.6-0.2-1.1-0.2-1.7c0-4.2,3.5-7.6,7.7-7.6s7.7,3.4,7.7,7.6c0,0.5,0,0.9-0.1,1.4
	c0.2,0,0.3,0.1,0.5,0.1c0.1-0.5,0.1-1,0.1-1.5c0-4.4-3.7-8.1-8.2-8.1s-8.2,3.6-8.2,8.1c0,0.7,0.1,1.3,0.2,1.9
	C8,23.7,8.1,23.6,8.3,23.6z"/>
<path class="st4" d="M12.5,22.5c0.4-0.1,0.8-0.1,1.2-0.1c0.6-0.4,0.9-1.1,0.6-1.8c-0.3-0.8-1.2-1.1-1.9-0.8
	c-0.8,0.3-1.1,1.2-0.8,1.9C11.7,22.1,12.1,22.4,12.5,22.5z"/>
<path class="st11" d="M27.8,22.5c1.5-0.3,4.5-0.9,8.5-0.5c2.5,0.3,4.5,0.8,6.1,1.5c0.3-0.9,0.5-1.9,0.5-2.9c0-4.4-3.6-8-8-8
	s-8,3.6-8,8c0,0.7,0.1,1.4,0.3,2.1C27.5,22.6,27.6,22.5,27.8,22.5z"/>
<path class="st16" d="M16.2,22.2c2.8-0.1,5.3,0.4,7.9,1.2c0.5,0.1,0.3,0.5-0.1,0.4c-2.2-0.2-5.3-0.6-7.7-0.5
	c-3.2,0.1-6.1,0.8-8.9,1.8c-0.3,0.1-0.8,0-0.9-0.4c-0.1-0.3,0.1-0.6,0.4-0.7C9.7,23,12.9,22.2,16.2,22.2z"/>
<path class="st16" d="M36.4,22.5c2.8,0.3,5.4,1.2,7.9,2.3c0.1,0.1,0.1,0.5-0.4,0.3c-2.1-0.5-5.1-1.3-7.5-1.6c-3.1-0.4-6.2,0-9,0.6
	c-0.3,0.1-0.8-0.1-0.8-0.5c0-0.3,0.2-0.5,0.5-0.6C29.9,22.4,33.1,22.2,36.4,22.5z"/>
<path class="st6" d="M36.1,22.4c3,0.3,5.3,1.1,7,1.8c0.3-0.8,0.4-1.6,0.4-2.5c0-4.3-3.6-7.8-8-7.8c-4.4,0-8,3.5-8,7.8
	c0,0.4,0,0.8,0.1,1.2C29.1,22.6,32.1,22,36.1,22.4z"/>
<path class="st4" d="M32,22.3c0.5,0,1.1,0,1.7,0c0.4-0.3,0.6-0.7,0.6-1.2c0-0.8-0.7-1.5-1.5-1.5c-0.8,0-1.5,0.7-1.5,1.5
	C31.4,21.6,31.7,22.1,32,22.3z"/>
<path class="st19" d="M27.5,22.9c0.1,0,0.2-0.1,0.4-0.1c0-0.3-0.1-0.7-0.1-1c0-4.2,3.5-7.6,7.7-7.6s7.7,3.4,7.7,7.6
	c0,0.8-0.1,1.6-0.4,2.3c0.2,0.1,0.3,0.1,0.5,0.2c0.3-0.8,0.4-1.6,0.4-2.5c0-4.4-3.7-8.1-8.2-8.1c-4.5,0-8.2,3.6-8.2,8.1
	c0,0.4,0,0.8,0.1,1.1C27.4,22.9,27.4,22.9,27.5,22.9z"/>
</svg>
