<?xml version="1.0" encoding="utf-8"?>
<!-- Generator: Adobe Illustrator 19.2.1, SVG Export Plug-In . SVG Version: 6.00 Build 0)  -->
<svg version="1.1" id="Layer_1" xmlns="http://www.w3.org/2000/svg" xmlns:xlink="http://www.w3.org/1999/xlink" x="0px" y="0px"
	 viewBox="0 0 52 52" style="enable-background:new 0 0 52 52;" xml:space="preserve">
<style type="text/css">
	.st0{fill-rule:evenodd;clip-rule:evenodd;fill:#FFF200;}
	.st1{fill:#191919;}
	.st2{opacity:0.59;}
	.st3{fill-rule:evenodd;clip-rule:evenodd;fill:#E7A96B;}
	.st4{fill-rule:evenodd;clip-rule:evenodd;}
	.st5{fill-rule:evenodd;clip-rule:evenodd;fill:#E7A442;}
	.st6{fill-rule:evenodd;clip-rule:evenodd;fill:#FFFFFF;}
	.st7{fill:none;}
	.st8{fill:#231F20;}
	.st9{fill:none;stroke:#231F20;stroke-width:1.5;stroke-linecap:round;stroke-linejoin:round;stroke-miterlimit:10;}
	.st10{fill-rule:evenodd;clip-rule:evenodd;fill:none;stroke:#000000;stroke-width:2;stroke-miterlimit:10;}
	.st11{opacity:0.2;fill-rule:evenodd;clip-rule:evenodd;}
	.st12{fill-rule:evenodd;clip-rule:evenodd;fill:#FFFFFF;stroke:#020202;stroke-width:0.5;stroke-miterlimit:10;}
	
		.st13{fill-rule:evenodd;clip-rule:evenodd;fill:none;stroke:#000000;stroke-width:2;stroke-linecap:round;stroke-linejoin:round;stroke-miterlimit:10;}
	.st14{fill-rule:evenodd;clip-rule:evenodd;fill:#8FE3E5;}
	.st15{fill:#FFFFFF;}
	.st16{opacity:0.2;}
	.st17{fill:#E54265;}
	.st18{fill-rule:evenodd;clip-rule:evenodd;fill:#F2A464;}
	.st19{fill:#020202;}
	.st20{fill-rule:evenodd;clip-rule:evenodd;fill:#A69EEF;}
	.st21{fill-rule:evenodd;clip-rule:evenodd;fill:#FFDA00;}
	.st22{fill-rule:evenodd;clip-rule:evenodd;fill:none;stroke:#020202;stroke-width:2;stroke-miterlimit:10;}
	.st23{fill-rule:evenodd;clip-rule:evenodd;fill:#FF8B00;}
	.st24{fill:#30C630;}
	.st25{fill-rule:evenodd;clip-rule:evenodd;fill:#F784A2;}
	.st26{fill:#22A822;}
	.st27{fill:#2D8C2D;}
	.st28{opacity:0.5;fill-rule:evenodd;clip-rule:evenodd;fill:#8FB8E2;}
</style>
<g class="st2">
	<g>
		<path class="st3" d="M11.9,34.9c-2.2,0-4,1.7-3.9,3.8c0,2,1.9,3.7,4.1,3.6c2.2,0,4-1.7,3.9-3.8C16,36.5,14.1,34.9,11.9,34.9z"/>
	</g>
</g>
<g class="st2">
	<g>
		<path class="st3" d="M40.6,34.9c-2.2,0-4,1.7-3.9,3.8c0,2,1.9,3.7,4.1,3.6c2.2,0,4-1.7,3.9-3.8C44.6,36.5,42.8,34.9,40.6,34.9z"/>
	</g>
</g>
<g>
	<g>
		<path class="st4" d="M44.2,22.3c0.3,0.8,0.3,1.7,0,2.5c-0.7,2-2.9,3.1-5,2.4c-2-0.7-3.1-2.9-2.4-4.9c0.7-2,2.8-3,4.8-2.4
			c-0.5-0.3-1.1-0.6-1.7-0.8c-4.2-1.4-8.7,0.6-10.1,4.4c-1.4,3.9,0.9,8.2,5.1,9.6c4.2,1.4,8.7-0.6,10.1-4.4
			C45.8,26.4,45.4,24.1,44.2,22.3z M21.9,24.7c-0.7,2-2.9,3.1-5,2.4c-2-0.7-3.1-2.9-2.4-4.9c0.7-2,2.8-3,4.8-2.4
			c-0.5-0.3-1.1-0.6-1.7-0.8c-4.2-1.4-8.7,0.6-10.1,4.4c-1.4,3.9,0.9,8.2,5.1,9.6c4.2,1.4,8.7-0.6,10.1-4.4c0.8-2.2,0.4-4.5-0.8-6.3
			C22.2,23,22.2,23.9,21.9,24.7z"/>
	</g>
</g>
<g>
	<path d="M23.5,40.5c-1.9,0-3.2-1.7-3.3-1.8c-0.2-0.3-0.1-0.6,0.1-0.8c0.3-0.2,0.6-0.1,0.8,0.1c0,0,1,1.4,2.4,1.3
		c0.7,0,1-0.2,1.3-0.5c0.4-0.3,0.9-0.6,1.8-0.6c0.9,0,1.5,0.4,2,0.7c0.4,0.2,0.7,0.4,1.1,0.4c0.7,0,1.7-1,2-1.4
		c0.2-0.3,0.6-0.3,0.8-0.1c0.3,0.2,0.3,0.6,0.1,0.8c-0.2,0.2-1.5,1.7-2.9,1.8c-0.7,0-1.3-0.3-1.8-0.6c-0.4-0.3-0.9-0.5-1.4-0.5
		c-0.6,0-0.8,0.1-1.1,0.4c-0.4,0.3-0.9,0.6-1.9,0.7C23.6,40.5,23.6,40.5,23.5,40.5z"/>
</g>
<g>
	<g>
		<path class="st6" d="M10.3,26.5c-0.1-1-0.5-1.4-1.1-1.4c-1,0-1.1,1-1.1,1.6c0,1.4,0.9,2.7,1.8,1.9C10.3,28,10.4,27.6,10.3,26.5z
			 M14.2,30.1c-2.3-0.5-3-2.2-3.9-0.6c-0.6,1,1.6,2.4,3.9,2.8c2.6,0.4,4.2-0.2,4.5-1.1C18.9,30.2,16.3,30.5,14.2,30.1z"/>
	</g>
</g>
<g>
	<g>
		<path class="st6" d="M32.5,26.5c-0.1-1-0.5-1.4-1.1-1.4c-1,0-1.1,1-1.1,1.6c0,1.4,0.9,2.7,1.8,1.9C32.5,28,32.6,27.6,32.5,26.5z
			 M36.4,30.1c-2.3-0.5-3-2.2-3.9-0.6c-0.6,1,1.6,2.4,3.9,2.8c2.6,0.4,4.2-0.2,4.5-1.1C41.2,30.2,38.5,30.5,36.4,30.1z"/>
	</g>
</g>
<g>
	<path class="st4" d="M12.6,7.8C11.3,7,9.5,7.9,9.2,12.2c-0.1,1.6,0.1,2,0.6,2.2c0.4,0.1,1.1-1.1,1.6-2.3c0.3-0.9,0.6-2.1,1.1-2.3
		c1.1-0.4,2.5,1.4,2.7,1C15.5,10.1,14,8.7,12.6,7.8z"/>
</g>
<g>
	<path class="st4" d="M40.4,7.7c1.3-0.9,3.1,0.1,3.4,4.4c0.1,1.6-0.1,2-0.6,2.2c-0.4,0.1-1.1-1.1-1.6-2.3c-0.3-0.9-0.6-2.1-1.1-2.3
		c-1.1-0.4-2.5,1.4-2.7,1C37.6,10,39,8.6,40.4,7.7z"/>
</g>
</svg>
