<?xml version="1.0" encoding="utf-8"?>
<!-- Generator: Adobe Illustrator 19.2.1, SVG Export Plug-In . SVG Version: 6.00 Build 0)  -->
<svg version="1.1" id="Layer_1" xmlns="http://www.w3.org/2000/svg" xmlns:xlink="http://www.w3.org/1999/xlink" x="0px" y="0px"
	 viewBox="0 0 52 52" style="enable-background:new 0 0 52 52;" xml:space="preserve">
<style type="text/css">
	.st0{fill:#010101;}
</style>
<g>
	<path class="st0" d="M13.9,38.5C13.8,38.5,13.8,38.5,13.9,38.5c-0.5,0-0.8-0.4-0.7-0.8c0.8-7.1,5.1-11.1,12.2-11.1c0,0,0.1,0,0.1,0
		c8.9,0,11.5,6,12.1,10.9c0,0.4-0.2,0.8-0.7,0.8c-0.4,0.1-0.8-0.2-0.8-0.7c-0.8-6.3-4.3-9.6-10.6-9.6c-6.5,0-10.1,3.2-10.8,9.7
		C14.6,38.2,14.2,38.5,13.9,38.5z"/>
</g>
<g>
	<path class="st0" d="M17.1,24.7c-0.2,0-0.4-0.1-0.5-0.2L11,18.9c-0.3-0.3-0.3-0.8,0-1.1s0.8-0.3,1.1,0l5.6,5.6
		c0.3,0.3,0.3,0.8,0,1.1C17.5,24.6,17.3,24.7,17.1,24.7z"/>
</g>
<g>
	<path class="st0" d="M34.6,24.7c-0.2,0-0.4-0.1-0.5-0.2c-0.3-0.3-0.3-0.8,0-1.1l5.6-5.6c0.3-0.3,0.8-0.3,1.1,0s0.3,0.8,0,1.1
		l-5.6,5.6C35,24.6,34.8,24.7,34.6,24.7z"/>
</g>
</svg>
