<?xml version="1.0" encoding="utf-8"?>
<!-- Generator: Adobe Illustrator 19.2.1, SVG Export Plug-In . SVG Version: 6.00 Build 0)  -->
<svg version="1.1" id="Layer_1" xmlns="http://www.w3.org/2000/svg" xmlns:xlink="http://www.w3.org/1999/xlink" x="0px" y="0px"
	 viewBox="0 0 52 52" style="enable-background:new 0 0 52 52;" xml:space="preserve">
<style type="text/css">
	.st0{fill-rule:evenodd;clip-rule:evenodd;fill:#FFF200;}
	.st1{fill:#191919;}
	.st2{opacity:0.59;}
	.st3{fill-rule:evenodd;clip-rule:evenodd;fill:#E7A96B;}
	.st4{fill-rule:evenodd;clip-rule:evenodd;}
	.st5{fill-rule:evenodd;clip-rule:evenodd;fill:#E7A442;}
	.st6{fill-rule:evenodd;clip-rule:evenodd;fill:#FFFFFF;}
	.st7{fill:none;}
	.st8{fill:#231F20;}
	.st9{fill:none;stroke:#231F20;stroke-width:1.5;stroke-linecap:round;stroke-linejoin:round;stroke-miterlimit:10;}
	.st10{fill-rule:evenodd;clip-rule:evenodd;fill:none;stroke:#000000;stroke-width:2;stroke-miterlimit:10;}
	.st11{opacity:0.2;fill-rule:evenodd;clip-rule:evenodd;}
	.st12{fill-rule:evenodd;clip-rule:evenodd;fill:#FFFFFF;stroke:#020202;stroke-width:0.5;stroke-miterlimit:10;}
	
		.st13{fill-rule:evenodd;clip-rule:evenodd;fill:none;stroke:#000000;stroke-width:2;stroke-linecap:round;stroke-linejoin:round;stroke-miterlimit:10;}
	.st14{fill-rule:evenodd;clip-rule:evenodd;fill:#8FE3E5;}
	.st15{fill:#FFFFFF;}
	.st16{opacity:0.2;}
	.st17{fill:#E54265;}
	.st18{fill-rule:evenodd;clip-rule:evenodd;fill:#F2A464;}
	.st19{fill:#020202;}
	.st20{fill-rule:evenodd;clip-rule:evenodd;fill:#A69EEF;}
	.st21{fill-rule:evenodd;clip-rule:evenodd;fill:#FFDA00;}
	.st22{fill-rule:evenodd;clip-rule:evenodd;fill:none;stroke:#020202;stroke-width:2;stroke-miterlimit:10;}
	.st23{fill-rule:evenodd;clip-rule:evenodd;fill:#FF8B00;}
	.st24{fill:#30C630;}
	.st25{fill-rule:evenodd;clip-rule:evenodd;fill:#F784A2;}
	.st26{fill:#22A822;}
	.st27{fill:#2D8C2D;}
	.st28{opacity:0.5;fill-rule:evenodd;clip-rule:evenodd;fill:#8FB8E2;}
</style>
<g class="st2">
	<g>
		<ellipse class="st3" cx="11.6" cy="38" rx="4.2" ry="4.1"/>
	</g>
</g>
<g class="st2">
	<g>
		<ellipse class="st3" cx="39.6" cy="38" rx="4.2" ry="4.1"/>
	</g>
</g>
<g>
	<g>
		<path class="st4" d="M36.4,23l-8.8-0.4c-0.5,2.1-0.2,4.3,1,6.3c2.4,4.1,7.6,5.5,11.6,3.1c3.7-2.2,5.1-6.7,3.5-10.7L36.4,23z
			 M34.6,25.9c-0.4,0.6-1.2,0.7-1.8,0.3c-0.6-0.4-0.7-1.2-0.3-1.8c0.4-0.6,1.2-0.7,1.8-0.3C34.8,24.6,35,25.4,34.6,25.9z"/>
	</g>
</g>
<g>
	<g>
		<path class="st4" d="M15.6,23l-8.4-1.6c-0.9,2.4-0.8,5.2,0.6,7.6c2.4,4.1,7.6,5.5,11.6,3.1c3.9-2.3,5.2-7.3,3.2-11.3L15.6,23z
			 M13.7,25.9c-0.4,0.6-1.2,0.7-1.8,0.3c-0.6-0.4-0.7-1.2-0.3-1.8c0.4-0.6,1.2-0.7,1.8-0.3C14,24.6,14.1,25.4,13.7,25.9z"/>
	</g>
</g>
<g>
	<path d="M24.4,19.8c-0.1,0-0.2,0-0.3,0.1c-0.1,0-5.4,2.3-9.5,2.2c-3.9-0.1-8-0.6-8-0.6c-0.4,0-0.7,0.2-0.7,0.7
		c0,0.4,0.2,0.8,0.6,0.8c0,0,4.2,0.6,8.2,0.7c0.1,0,0.1,0,0.2,0c4.4,0,9.6-2.2,9.8-2.3c0.3-0.2,0.5-0.6,0.4-1
		C24.9,20,24.7,19.8,24.4,19.8z"/>
</g>
<g>
	<path d="M44.9,19.7c-0.1,0-0.2,0-0.3,0.1c-0.1,0-5.5,2.5-9.7,2.4c-4,0-8.2-0.5-8.3-0.5c-0.4,0-0.7,0.3-0.8,0.7
		c0,0.4,0.2,0.8,0.6,0.8c0,0,4.3,0.5,8.4,0.5c0.1,0,0.1,0,0.2,0c4.5,0,9.8-2.4,10-2.5c0.4-0.2,0.5-0.6,0.4-1
		C45.4,19.9,45.2,19.7,44.9,19.7z"/>
</g>
<ellipse class="st4" cx="26.8" cy="43.5" rx="2.3" ry="1.2"/>
</svg>
