<?xml version="1.0" encoding="utf-8"?>
<!-- Generator: Adobe Illustrator 19.2.1, SVG Export Plug-In . SVG Version: 6.00 Build 0)  -->
<svg version="1.1" id="Layer_1" xmlns="http://www.w3.org/2000/svg" xmlns:xlink="http://www.w3.org/1999/xlink" x="0px" y="0px"
	 viewBox="0 0 52 52" style="enable-background:new 0 0 52 52;" xml:space="preserve">
<style type="text/css">
	.st0{fill-rule:evenodd;clip-rule:evenodd;fill:#FFF200;}
	.st1{fill:#191919;}
	.st2{opacity:0.59;}
	.st3{fill-rule:evenodd;clip-rule:evenodd;fill:#E7A96B;}
	.st4{fill-rule:evenodd;clip-rule:evenodd;}
	.st5{fill-rule:evenodd;clip-rule:evenodd;fill:#E7A442;}
	.st6{fill-rule:evenodd;clip-rule:evenodd;fill:#FFFFFF;}
	.st7{fill:none;}
	.st8{fill:#231F20;}
	.st9{fill:none;stroke:#231F20;stroke-width:1.5;stroke-linecap:round;stroke-linejoin:round;stroke-miterlimit:10;}
	.st10{fill-rule:evenodd;clip-rule:evenodd;fill:none;stroke:#000000;stroke-width:2;stroke-miterlimit:10;}
	.st11{opacity:0.2;fill-rule:evenodd;clip-rule:evenodd;}
	.st12{fill-rule:evenodd;clip-rule:evenodd;fill:#FFFFFF;stroke:#020202;stroke-width:0.5;stroke-miterlimit:10;}
	
		.st13{fill-rule:evenodd;clip-rule:evenodd;fill:none;stroke:#000000;stroke-width:2;stroke-linecap:round;stroke-linejoin:round;stroke-miterlimit:10;}
	.st14{fill-rule:evenodd;clip-rule:evenodd;fill:#8FE3E5;}
	.st15{fill:#FFFFFF;}
	.st16{opacity:0.2;}
	.st17{fill:#E54265;}
	.st18{fill-rule:evenodd;clip-rule:evenodd;fill:#F2A464;}
	.st19{fill:#020202;}
	.st20{fill-rule:evenodd;clip-rule:evenodd;fill:#A69EEF;}
	.st21{fill-rule:evenodd;clip-rule:evenodd;fill:#FFDA00;}
	.st22{fill-rule:evenodd;clip-rule:evenodd;fill:none;stroke:#020202;stroke-width:2;stroke-miterlimit:10;}
	.st23{fill-rule:evenodd;clip-rule:evenodd;fill:#FF8B00;}
	.st24{fill:#30C630;}
	.st25{fill-rule:evenodd;clip-rule:evenodd;fill:#F784A2;}
	.st26{fill:#22A822;}
	.st27{fill:#2D8C2D;}
	.st28{opacity:0.5;fill-rule:evenodd;clip-rule:evenodd;fill:#8FB8E2;}
</style>
<path class="st11" d="M13.7,25.4c-4-0.2-7-1.1-9-1.7c-0.5,1.2-0.9,2.6-0.9,4c0,5.4,4.4,9.7,9.7,9.7s9.7-4.4,9.7-9.7
	c0-1.1-0.2-2.2-0.6-3.3C20.6,25,17.5,25.6,13.7,25.4z"/>
<path class="st6" d="M13.7,26.2c-4-0.2-7.1-1.1-9-1.8c-0.2,0.7-0.3,1.5-0.3,2.2c0,5.3,4.4,9.6,9.7,9.6c5.4,0,9.7-4.3,9.7-9.6
	c0-0.6-0.1-1.2-0.2-1.7C21.5,25.6,18.1,26.4,13.7,26.2z"/>
<path class="st11" d="M39,25.4c-5,0.5-8.7-0.2-10.4-0.6c0,0-0.1,0-0.1,0c-0.3,1-0.5,2-0.5,3.1c0,5.4,4.4,9.7,9.7,9.7
	s9.7-4.4,9.7-9.7c0-1.5-0.4-2.9-1-4.2C44.5,24.3,42,25.1,39,25.4z"/>
<ellipse transform="matrix(0.3696 -0.9292 0.9292 0.3696 -18.8824 27.27)" class="st4" cx="10.7" cy="27.6" rx="1.8" ry="1.8"/>
<path class="st6" d="M39,25.9c-4.9,0.5-8.5-0.2-10.3-0.6c-0.1,0.5-0.1,0.9-0.1,1.4c0,5.3,4.4,9.6,9.7,9.6c5.4,0,9.7-4.3,9.7-9.6
	c0-1.1-0.2-2.1-0.5-3C45.4,24.5,42.6,25.5,39,25.9z"/>
<path d="M27.2,38.5c-0.9,0.3-1.7,1-2.3,1.9c0,0-0.1,0.2,0,0.4c0.1,0.1,0.3,0,0.4-0.1c0.5-0.3,1.3-1.2,2-1.5c0.9-0.3,1.6-0.1,2.5,0.2
	c0.2,0.1,0.3,0,0.4-0.2c0.1-0.2-0.1-0.3-0.2-0.4C29,38.4,28.1,38.2,27.2,38.5z"/>
<circle class="st4" cx="35.1" cy="27.6" r="1.8"/>
<path class="st19" d="M23.4,24.8c0.1,0.6,0.2,1.2,0.2,1.9c0,5.1-4.3,9.3-9.5,9.3c-5.2,0-9.5-4.2-9.5-9.3c0-0.8,0.1-1.6,0.3-2.3
	c-0.2-0.1-0.3-0.1-0.5-0.2c-0.2,0.8-0.3,1.6-0.3,2.5c0,5.4,4.5,9.8,10,9.8s10-4.4,10-9.8c0-0.7-0.1-1.4-0.2-2
	C23.8,24.7,23.6,24.8,23.4,24.8z"/>
<path d="M14.6,26.2c3.5,0.1,6.4-0.5,9.6-1.5c0.6-0.2,0.4-0.6-0.1-0.5c-2.7,0.3-6.5,0.7-9.5,0.6c-3.9-0.1-7.5-0.9-10.9-2.2
	c-0.3-0.1-1,0-1.1,0.4c-0.1,0.4,0.2,0.7,0.5,0.8C6.6,25.3,10.6,26.2,14.6,26.2z"/>
<path class="st19" d="M47.2,23.7c0.3,0.9,0.5,1.9,0.5,3c0,5.1-4.3,9.3-9.5,9.3s-9.5-4.2-9.5-9.3c0-0.5,0-1,0.1-1.4
	c-0.1,0-0.2-0.1-0.3-0.1c-0.1,0-0.1,0-0.1,0c-0.1,0.5-0.1,1-0.1,1.5c0,5.4,4.5,9.8,10,9.8s10-4.4,10-9.8c0-1.1-0.2-2.2-0.5-3.1
	C47.6,23.6,47.4,23.7,47.2,23.7z"/>
<path d="M39.4,25.8c3.5-0.4,6.7-1.4,9.6-2.8c0.2-0.1,0.1-0.6-0.5-0.4c-2.6,0.7-6.2,1.6-9.2,2c-3.8,0.4-7.5,0-11.1-0.8
	c-0.4-0.1-0.9,0.1-1,0.6c-0.1,0.4,0.3,0.6,0.6,0.7C31.4,26,35.4,26.3,39.4,25.8z"/>
</svg>
