<?xml version="1.0" encoding="utf-8"?>
<!-- Generator: Adobe Illustrator 19.2.1, SVG Export Plug-In . SVG Version: 6.00 Build 0)  -->
<svg version="1.1" id="Layer_1" xmlns="http://www.w3.org/2000/svg" xmlns:xlink="http://www.w3.org/1999/xlink" x="0px" y="0px"
	 viewBox="0 0 52 52" style="enable-background:new 0 0 52 52;" xml:space="preserve">
<style type="text/css">
	.st0{fill:#FFFFFF;}
	.st1{fill:#010101;}
</style>
<g>
	<path class="st0" d="M14.9,32.5c-0.3-3.7,8.2-3.5,11-3.5c6.8,0,11.1,0.9,11.1,3.2c0,1.4-1.1,3.3-5,3.7c-3.2,0.4-11.6,0.1-13.8-0.6
		C17.7,35.1,15.1,34.3,14.9,32.5z"/>
	<path class="st1" d="M27.9,36.7c-3.8,0-8.3-0.3-9.8-0.8c-3.1-0.9-3.8-2.4-3.9-3.5l0,0c-0.1-0.8,0.2-1.6,0.8-2.2
		c1.8-1.9,6.1-2.2,10.5-2.2c0,0,0,0,0.1,0H26c6,0,9.6,0.7,11.1,2.2c0.5,0.5,0.8,1.1,0.8,1.8c0,1.8-1.5,4-5.6,4.5
		C31.1,36.7,29.6,36.7,27.9,36.7z M25.3,29.7c-2.5,0-7.7,0-9.3,1.7c-0.3,0.3-0.4,0.6-0.4,1l0,0c0.1,0.9,1.1,1.6,2.8,2.1
		c2.1,0.6,10.4,0.9,13.5,0.5c3.2-0.3,4.3-1.8,4.3-3c0-0.2,0-0.4-0.3-0.7c-0.6-0.6-2.8-1.7-9.8-1.7c-0.1,0-0.1,0-0.2,0h-0.5
		C25.5,29.7,25.4,29.7,25.3,29.7z"/>
</g>
<g>
	<path class="st1" d="M20.6,36.1c-0.4,0-0.8-0.3-0.8-0.8v-6c0-0.4,0.3-0.8,0.8-0.8s0.8,0.3,0.8,0.8v6C21.3,35.7,21,36.1,20.6,36.1z"
		/>
</g>
<g>
	<path class="st1" d="M26.3,36.1c-0.4,0-0.8-0.3-0.8-0.8v-6c0-0.4,0.3-0.8,0.8-0.8s0.8,0.3,0.8,0.8v6C27.1,35.7,26.7,36.1,26.3,36.1
		z"/>
</g>
<g>
	<path class="st1" d="M31.6,36.2c-0.4,0-0.8-0.3-0.8-0.8v-6.1c0-0.4,0.3-0.8,0.8-0.8s0.8,0.3,0.8,0.8v6.1
		C32.3,35.9,32,36.2,31.6,36.2z"/>
</g>
<g>
	<path class="st1" d="M13,22.7l-4-2.3c-0.4-0.2-0.8-0.1-1,0.3c-0.2,0.4-0.1,0.8,0.3,1l4,2.3c0.1,0.1,0.2,0.1,0.2,0.1h0
		c0,0,0,0.1-0.1,0.1l-3.7,2.4c-0.3,0.2-0.4,0.7-0.2,1c0.1,0.2,0.4,0.3,0.6,0.3c0.1,0,0.3,0,0.4-0.1l3.7-2.4c0.5-0.3,0.8-0.9,0.8-1.4
		C13.9,23.5,13.6,23,13,22.7z"/>
	<path class="st1" d="M38.8,24l4-2.3c0.4-0.2,0.5-0.7,0.3-1c-0.2-0.4-0.7-0.5-1-0.3l-4,2.3c-0.6,0.3-0.9,0.8-0.9,1.4
		c0,0.6,0.3,1.1,0.8,1.4l3.7,2.4c0.1,0.1,0.3,0.1,0.4,0.1c0.2,0,0.5-0.1,0.6-0.3c0.2-0.3,0.1-0.8-0.2-1l-3.7-2.4
		c-0.1-0.1-0.1-0.1-0.1-0.1h0C38.7,24.1,38.7,24.1,38.8,24z"/>
</g>
</svg>
