<?xml version="1.0" encoding="utf-8"?>
<!-- Generator: Adobe Illustrator 19.2.1, SVG Export Plug-In . SVG Version: 6.00 Build 0)  -->
<svg version="1.1" id="Layer_1" xmlns="http://www.w3.org/2000/svg" xmlns:xlink="http://www.w3.org/1999/xlink" x="0px" y="0px"
	 viewBox="0 0 52 52" style="enable-background:new 0 0 52 52;" xml:space="preserve">
<style type="text/css">
	.st0{fill:#010101;}
	.st1{fill:#FFFFFF;}
</style>
<g>
	<path class="st0" d="M11.3,31.5c-3.7,0-5.1-3.3-5.3-5c0-0.4,0.3-0.8,0.7-0.8c0.4,0,0.8,0.2,0.8,0.7c0,0.2,0.5,3.6,3.8,3.6
		c3.1,0,3.7-3.5,3.7-3.7c0.1-0.4,0.4-0.7,0.9-0.6c0.4,0.1,0.7,0.4,0.6,0.9C16.2,28.3,14.8,31.5,11.3,31.5z"/>
</g>
<g>
	<path class="st0" d="M40.2,31.5c-3.7,0-5.1-3.3-5.3-5c0-0.4,0.3-0.8,0.7-0.8c0.4,0,0.8,0.2,0.8,0.7c0,0.2,0.5,3.6,3.8,3.6
		c3.1,0,3.7-3.5,3.7-3.7c0.1-0.4,0.4-0.7,0.9-0.6c0.4,0.1,0.7,0.4,0.6,0.8C45.2,28.3,43.8,31.5,40.2,31.5z"/>
</g>
<g>
	<path class="st0" d="M23,30.3c8.8,0,10.8,3.6,11,9c0.1,3.3-6.9,3.5-8.4,3.5c-3.9,0-7.8-1.4-8.1-5.1C17.3,34,19.6,30.3,23,30.3z"/>
	<path class="st0" d="M25.6,43.2c-3.9,0-8.2-1.4-8.5-5.5c-0.1-2.3,0.6-4.6,2.1-6.2c1.1-1.1,2.4-1.7,3.8-1.7c7.9,0,11.2,2.7,11.4,9.4
		c0,0.7-0.2,1.4-0.8,1.9C31.7,43.1,26.6,43.2,25.6,43.2z M23,30.7c-1.2,0-2.3,0.5-3.2,1.5c-1.3,1.4-2,3.5-1.9,5.5
		c0.3,4.3,5.9,4.7,7.6,4.7c0.6,0,5.7-0.1,7.4-1.8c0.4-0.4,0.5-0.8,0.5-1.3C33.4,34.1,31.6,30.7,23,30.7z"/>
</g>
<g>
	<path class="st1" d="M28.2,41.9c-2.7,0.2-5.2,0.3-5.4-2.6c-0.2-3.1,3.1-4,4.5-4.1c2.4-0.2,5.5,0.5,5.7,4
		C33.2,41.5,29.8,41.8,28.2,41.9z"/>
</g>
</svg>
