<?xml version="1.0" encoding="utf-8"?>
<!-- Generator: Adobe Illustrator 19.2.1, SVG Export Plug-In . SVG Version: 6.00 Build 0)  -->
<svg version="1.1" id="Layer_1" xmlns="http://www.w3.org/2000/svg" xmlns:xlink="http://www.w3.org/1999/xlink" x="0px" y="0px"
	 viewBox="0 0 52 52" style="enable-background:new 0 0 52 52;" xml:space="preserve">
<style type="text/css">
	.st0{fill-rule:evenodd;clip-rule:evenodd;fill:#FFF200;}
	.st1{fill:#191919;}
	.st2{opacity:0.59;}
	.st3{fill-rule:evenodd;clip-rule:evenodd;fill:#E7A96B;}
	.st4{fill-rule:evenodd;clip-rule:evenodd;}
	.st5{fill-rule:evenodd;clip-rule:evenodd;fill:#E7A442;}
	.st6{fill-rule:evenodd;clip-rule:evenodd;fill:#FFFFFF;}
	.st7{fill:none;}
	.st8{fill:#231F20;}
	.st9{fill:none;stroke:#231F20;stroke-width:1.5;stroke-linecap:round;stroke-linejoin:round;stroke-miterlimit:10;}
	.st10{fill-rule:evenodd;clip-rule:evenodd;fill:none;stroke:#000000;stroke-width:2;stroke-miterlimit:10;}
	.st11{opacity:0.2;fill-rule:evenodd;clip-rule:evenodd;}
	.st12{fill-rule:evenodd;clip-rule:evenodd;fill:#FFFFFF;stroke:#020202;stroke-width:0.5;stroke-miterlimit:10;}
	
		.st13{fill-rule:evenodd;clip-rule:evenodd;fill:none;stroke:#000000;stroke-width:2;stroke-linecap:round;stroke-linejoin:round;stroke-miterlimit:10;}
	.st14{fill-rule:evenodd;clip-rule:evenodd;fill:#8FE3E5;}
	.st15{fill:#FFFFFF;}
	.st16{opacity:0.2;}
	.st17{fill:#E54265;}
	.st18{fill-rule:evenodd;clip-rule:evenodd;fill:#F2A464;}
	.st19{fill:#020202;}
	.st20{fill-rule:evenodd;clip-rule:evenodd;fill:#A69EEF;}
	.st21{fill-rule:evenodd;clip-rule:evenodd;fill:#FFDA00;}
	.st22{fill-rule:evenodd;clip-rule:evenodd;fill:none;stroke:#020202;stroke-width:2;stroke-miterlimit:10;}
	.st23{fill-rule:evenodd;clip-rule:evenodd;fill:#FF8B00;}
	.st24{fill:#30C630;}
	.st25{fill-rule:evenodd;clip-rule:evenodd;fill:#F784A2;}
	.st26{fill:#22A822;}
	.st27{fill:#2D8C2D;}
	.st28{opacity:0.5;fill-rule:evenodd;clip-rule:evenodd;fill:#8FB8E2;}
</style>
<g class="st2">
	<g>
		<path class="st3" d="M41.5,26.9c-3,0.1-5.3,2.3-5.3,5c0.1,2.7,2.5,4.9,5.4,4.8c3-0.1,5.3-2.3,5.3-5C46.9,29,44.5,26.8,41.5,26.9z
			 M10,26.9c-3,0.1-5.3,2.3-5.3,5c0.1,2.7,2.5,4.9,5.4,4.8c3-0.1,5.3-2.3,5.3-5C15.4,29,12.9,26.8,10,26.9z"/>
	</g>
</g>
<g>
	<g>
		<path class="st4" d="M19.7,24.6c-0.2-2.1-1.2-4-2.8-5.1l-9.7,5.6c0.3,3.7,3.3,6.5,6.8,6.4C17.4,31.4,20,28.3,19.7,24.6z"/>
	</g>
</g>
<path class="st4" d="M26.4,41.8c-4.9-0.1-5.6-0.7-5.5-1.9c0.1-0.5,1.9-4,5.5-4.1c3.5-0.2,5.7,3.9,5.7,4.2
	C32.1,41.1,32.1,41.8,26.4,41.8z"/>
<path class="st5" d="M27,39.3c-1.7-0.1-3.4,0.2-3.6,0.7c-0.3,0.5,0.9,0.9,2.6,1c1.7,0.1,3.4-0.2,3.6-0.7
	C29.9,39.9,28.7,39.4,27,39.3z"/>
<g>
	<g>
		<path class="st6" d="M18.2,26.1l-2.3,1.1c0,0,0,0,0,0.1c0.1,0.9,0.7,1.6,1.4,1.6c0.7,0,1.3-0.8,1.2-1.7
			C18.5,26.7,18.4,26.4,18.2,26.1z"/>
	</g>
</g>
<g>
	<path d="M6.2,26c-0.3,0-0.5-0.1-0.6-0.4c-0.2-0.4-0.1-0.8,0.3-1l11.8-7.2c0.4-0.2,0.8-0.1,1,0.3c0.2,0.4,0.1,0.8-0.3,1L6.6,25.9
		C6.4,25.9,6.3,26,6.2,26z"/>
</g>
<g>
	<g>
		<path class="st4" d="M34.6,19.5c-1.6,1.2-2.6,3-2.8,5.1c-0.3,3.7,2.3,6.7,5.8,6.9c3.5,0.1,6.5-2.7,6.8-6.4L34.6,19.5z"/>
	</g>
</g>
<g>
	<g>
		<path class="st6" d="M42.1,26.1l-2.3,1.1c0,0,0,0,0,0.1c0.1,0.9,0.7,1.6,1.4,1.6c0.7,0,1.3-0.8,1.2-1.7
			C42.4,26.7,42.3,26.4,42.1,26.1z"/>
	</g>
</g>
<g>
	<path d="M45.4,26c0.3,0,0.5-0.1,0.6-0.4c0.2-0.4,0.1-0.8-0.3-1L34,17.4c-0.4-0.2-0.8-0.1-1,0.3c-0.2,0.4-0.1,0.8,0.3,1L45,25.9
		C45.1,25.9,45.2,26,45.4,26z"/>
</g>
</svg>
