<?xml version="1.0" encoding="utf-8"?>
<!-- Generator: Adobe Illustrator 19.2.1, SVG Export Plug-In . SVG Version: 6.00 Build 0)  -->
<svg version="1.1" id="Layer_1" xmlns="http://www.w3.org/2000/svg" xmlns:xlink="http://www.w3.org/1999/xlink" x="0px" y="0px"
	 viewBox="0 0 52 52" style="enable-background:new 0 0 52 52;" xml:space="preserve">
<style type="text/css">
	.st0{fill-rule:evenodd;clip-rule:evenodd;fill:#FFF200;}
	.st1{fill:#191919;}
	.st2{opacity:0.59;}
	.st3{fill-rule:evenodd;clip-rule:evenodd;fill:#E7A96B;}
	.st4{fill-rule:evenodd;clip-rule:evenodd;}
	.st5{fill-rule:evenodd;clip-rule:evenodd;fill:#E7A442;}
	.st6{fill-rule:evenodd;clip-rule:evenodd;fill:#FFFFFF;}
	.st7{fill:none;}
	.st8{fill:#231F20;}
	.st9{fill:none;stroke:#231F20;stroke-width:1.5;stroke-linecap:round;stroke-linejoin:round;stroke-miterlimit:10;}
	.st10{fill-rule:evenodd;clip-rule:evenodd;fill:none;stroke:#000000;stroke-width:2;stroke-miterlimit:10;}
	.st11{opacity:0.2;fill-rule:evenodd;clip-rule:evenodd;}
	.st12{fill-rule:evenodd;clip-rule:evenodd;fill:#FFFFFF;stroke:#020202;stroke-width:0.5;stroke-miterlimit:10;}
	
		.st13{fill-rule:evenodd;clip-rule:evenodd;fill:none;stroke:#000000;stroke-width:2;stroke-linecap:round;stroke-linejoin:round;stroke-miterlimit:10;}
	.st14{fill-rule:evenodd;clip-rule:evenodd;fill:#8FE3E5;}
	.st15{fill:#FFFFFF;}
	.st16{opacity:0.2;}
	.st17{fill:#E54265;}
	.st18{fill-rule:evenodd;clip-rule:evenodd;fill:#F2A464;}
	.st19{fill:#020202;}
	.st20{fill-rule:evenodd;clip-rule:evenodd;fill:#A69EEF;}
	.st21{fill-rule:evenodd;clip-rule:evenodd;fill:#FFDA00;}
	.st22{fill-rule:evenodd;clip-rule:evenodd;fill:none;stroke:#020202;stroke-width:2;stroke-miterlimit:10;}
	.st23{fill-rule:evenodd;clip-rule:evenodd;fill:#FF8B00;}
	.st24{fill:#30C630;}
	.st25{fill-rule:evenodd;clip-rule:evenodd;fill:#F784A2;}
	.st26{fill:#22A822;}
	.st27{fill:#2D8C2D;}
	.st28{opacity:0.5;fill-rule:evenodd;clip-rule:evenodd;fill:#8FB8E2;}
</style>
<path class="st11" d="M21.9,19.8c-1.3,0.8-2.8,1.7-4.8,2.6c-0.7,0.4-1.5,0.8-2.3,1.1c-1.1,0.4-2.1,0.6-3.2,0.6
	c-2.7,0.6-4.9,0.7-6.5,0.7c-0.3,1.5-0.2,3.2,0.4,4.7c1.7,5.1,7.2,7.8,12.3,6.1s7.8-7.2,6.1-12.3C23.5,21.9,22.8,20.7,21.9,19.8z"/>
<path class="st6" d="M22.8,19.3c-1.3,0.9-3.1,2-5.4,3c-0.7,0.4-1.5,0.8-2.3,1.1c-1.1,0.4-2.1,0.6-3.2,0.6C9,24.5,6.7,24.6,5,24.6
	c0,1.1,0.1,2.1,0.5,3.2c1.7,5,7.2,7.7,12.3,5.9c5.1-1.7,7.9-7.2,6.2-12.2C23.7,20.7,23.3,20,22.8,19.3z"/>
<path class="st11" d="M38.4,23.1c-3.4-0.9-5.9-2.3-7.7-3.5c-0.8,0.9-1.4,2-1.8,3.2c-1.7,5.1,1,10.6,6.1,12.3
	c5.1,1.7,10.6-1,12.3-6.1c0.5-1.6,0.6-3.1,0.4-4.7C45.7,24.3,42.4,24.2,38.4,23.1z"/>
<ellipse transform="matrix(5.267863e-002 -0.9986 0.9986 5.267863e-002 -15.5058 36.8991)" class="st4" cx="11.7" cy="26.6" rx="1.8" ry="1.8"/>
<path class="st6" d="M38.7,23.9c-4.1-1.2-7-3-8.9-4.3c-0.2,0.5-0.5,0.9-0.6,1.5c-1.7,5,1.1,10.4,6.2,12.2c5.1,1.7,10.6-0.9,12.3-5.9
	c0.2-0.7,0.4-1.5,0.5-2.2C46,25.2,42.7,25,38.7,23.9z"/>
<path d="M27.5,37.4c-0.9,0.3-1.7,1-2.3,1.9c0,0-0.1,0.2,0,0.4c0.1,0.1,0.3,0,0.4-0.1c0.5-0.3,1.3-1.2,2-1.5c0.9-0.3,1.6-0.1,2.5,0.2
	c0.2,0.1,0.3,0,0.4-0.2c0.1-0.2-0.1-0.3-0.2-0.4C29.4,37.3,28.5,37.1,27.5,37.4z"/>
<path d="M15.1,23.6c3.3-1.1,5.9-2.5,8.6-4.5c0.5-0.4,0.2-0.7-0.3-0.5c-2.4,1.1-5.9,2.7-8.8,3.6c-3.7,1.2-7.4,1.5-11,1.4
	c-0.4,0-0.9,0.3-0.9,0.8c0,0.4,0.4,0.6,0.7,0.6C7.2,25.3,11.2,24.9,15.1,23.6z"/>
<ellipse transform="matrix(0.1413 -0.99 0.99 0.1413 2.6523 54.9017)" class="st4" cx="33" cy="25.9" rx="1.8" ry="1.8"/>
<path class="st19" d="M23,19.2c-0.1,0.1-0.3,0.2-0.4,0.3c0.5,0.7,0.8,1.4,1.1,2.2c1.6,4.9-1.1,10.2-6,11.8c-5,1.7-10.3-0.9-12-5.8
	c-0.3-1-0.5-2-0.5-3c-0.2,0-0.3,0-0.5,0c0,1.1,0.1,2.2,0.5,3.2c1.4,4.1,5.2,6.6,9.4,6.6c1.1,0,2.2-0.2,3.2-0.5
	c5.2-1.8,8.1-7.4,6.3-12.5C23.9,20.7,23.5,19.9,23,19.2z"/>
<path class="st19" d="M47.8,25c-0.1,0.7-0.2,1.5-0.4,2.2c-0.8,2.4-2.5,4.3-4.7,5.3c-2.3,1.1-4.8,1.2-7.2,0.4
	c-2.4-0.8-4.3-2.5-5.5-4.7c-1.1-2.2-1.3-4.8-0.5-7.1c0.2-0.5,0.4-1,0.7-1.5c-0.1-0.1-0.3-0.2-0.4-0.3c-0.3,0.5-0.5,1.1-0.7,1.6
	c-0.8,2.5-0.6,5.1,0.6,7.5c1.2,2.4,3.2,4.1,5.8,5c1.1,0.4,2.2,0.5,3.3,0.5c1.5,0,3-0.3,4.3-1c2.4-1.1,4.2-3.1,5-5.6
	c0.3-0.8,0.4-1.6,0.5-2.4C48.2,25,48,25,47.8,25z"/>
<path d="M37.8,23.6c-3.3-1.1-5.9-2.5-8.6-4.5c-0.5-0.4-0.2-0.7,0.3-0.5c2.4,1.1,5.9,2.7,8.8,3.6c3.7,1.2,7.4,1.5,11,1.4
	c0.4,0,0.9,0.3,0.9,0.8c0,0.4-0.4,0.6-0.7,0.6C45.6,25.3,41.6,24.9,37.8,23.6z"/>
</svg>
