<?xml version="1.0" encoding="utf-8"?>
<!-- Generator: Adobe Illustrator 19.2.1, SVG Export Plug-In . SVG Version: 6.00 Build 0)  -->
<svg version="1.1" id="Layer_1" xmlns="http://www.w3.org/2000/svg" xmlns:xlink="http://www.w3.org/1999/xlink" x="0px" y="0px"
	 viewBox="0 0 52 52" style="enable-background:new 0 0 52 52;" xml:space="preserve">
<style type="text/css">
	.st0{fill-rule:evenodd;clip-rule:evenodd;fill:#FFF200;}
	.st1{fill:#191919;}
	.st2{opacity:0.59;}
	.st3{fill-rule:evenodd;clip-rule:evenodd;fill:#E7A96B;}
	.st4{fill-rule:evenodd;clip-rule:evenodd;}
	.st5{fill-rule:evenodd;clip-rule:evenodd;fill:#E7A442;}
	.st6{fill-rule:evenodd;clip-rule:evenodd;fill:#FFFFFF;}
	.st7{fill:none;}
	.st8{fill:#231F20;}
	.st9{fill:none;stroke:#231F20;stroke-width:1.5;stroke-linecap:round;stroke-linejoin:round;stroke-miterlimit:10;}
	.st10{fill-rule:evenodd;clip-rule:evenodd;fill:none;stroke:#000000;stroke-width:2;stroke-miterlimit:10;}
	.st11{opacity:0.2;fill-rule:evenodd;clip-rule:evenodd;}
	.st12{fill-rule:evenodd;clip-rule:evenodd;fill:#FFFFFF;stroke:#020202;stroke-width:0.5;stroke-miterlimit:10;}
	
		.st13{fill-rule:evenodd;clip-rule:evenodd;fill:none;stroke:#000000;stroke-width:2;stroke-linecap:round;stroke-linejoin:round;stroke-miterlimit:10;}
	.st14{fill-rule:evenodd;clip-rule:evenodd;fill:#8FE3E5;}
	.st15{fill:#FFFFFF;}
	.st16{opacity:0.2;}
	.st17{fill:#E54265;}
	.st18{fill-rule:evenodd;clip-rule:evenodd;fill:#F2A464;}
	.st19{fill:#020202;}
	.st20{fill-rule:evenodd;clip-rule:evenodd;fill:#A69EEF;}
	.st21{fill-rule:evenodd;clip-rule:evenodd;fill:#FFDA00;}
	.st22{fill-rule:evenodd;clip-rule:evenodd;fill:none;stroke:#020202;stroke-width:2;stroke-miterlimit:10;}
	.st23{fill-rule:evenodd;clip-rule:evenodd;fill:#FF8B00;}
	.st24{fill:#30C630;}
	.st25{fill-rule:evenodd;clip-rule:evenodd;fill:#F784A2;}
	.st26{fill:#22A822;}
	.st27{fill:#2D8C2D;}
	.st28{opacity:0.5;fill-rule:evenodd;clip-rule:evenodd;fill:#8FB8E2;}
</style>
<g>
	<path d="M5,16.1c-0.1,0-0.3,0-0.4-0.1c-0.3-0.2-0.4-0.7-0.2-1c0.1-0.1,2-2.9,5.9-4.4c4.3-1.8,7.4-0.2,7.5-0.1
		c0.4,0.2,0.5,0.6,0.3,1c-0.2,0.4-0.6,0.5-1,0.3c-0.1-0.1-2.6-1.3-6.2,0.2c-3.4,1.4-5.2,3.9-5.2,3.9C5.5,16,5.2,16.1,5,16.1z"/>
</g>
<g>
	<path d="M46.4,16.1c-0.2,0-0.5-0.1-0.6-0.3c0,0-1.8-2.5-5.2-3.9c-3.6-1.5-6.1-0.2-6.2-0.2c-0.4,0.2-0.8,0-1-0.3
		c-0.2-0.4,0-0.8,0.3-1c0.1-0.1,3.2-1.6,7.5,0.1c3.9,1.6,5.8,4.3,5.9,4.4c0.2,0.3,0.1,0.8-0.2,1C46.7,16.1,46.5,16.1,46.4,16.1z"/>
</g>
<g class="st2">
	<g>
		<path class="st3" d="M44.5,37.8c-0.2-1.6-1.7-2.8-3.4-2.6c-1.7,0.2-2.9,1.7-2.7,3.3c0.2,1.6,1.7,2.8,3.4,2.6
			C43.5,40.9,44.7,39.5,44.5,37.8z M9.2,35.1c-1.7,0.2-3,1.7-2.8,3.4c0.2,1.7,1.7,2.9,3.5,2.7c1.7-0.2,3-1.7,2.8-3.4
			C12.4,36.1,10.9,34.9,9.2,35.1z"/>
	</g>
</g>
<path d="M38.2,15.3c-3.2,0-6,1.3-8.1,3.4c-0.9-0.7-2.3-1.5-4.2-1.5c-1.9,0-3.3,0.6-4.2,1.1c-2-1.9-4.7-3-7.7-3
	c-6.2,0-11.3,5.1-11.3,11.3S7.8,37.9,14,37.9c6.2,0,11.3-5.1,11.3-11.3c0-2.2-0.6-4.2-1.7-5.9c0.6-0.3,1.3-0.5,2.2-0.5
	c0,0,0,0,0.1,0c1.1,0,1.9,0.5,2.5,0.9c-0.9,1.6-1.4,3.5-1.4,5.5c0,6.2,5.1,11.3,11.3,11.3s11.3-5.1,11.3-11.3S44.4,15.3,38.2,15.3z
	 M14,34.9c-4.6,0-8.3-3.7-8.3-8.3s3.7-8.3,8.3-8.3c4.6,0,8.3,3.7,8.3,8.3S18.5,34.9,14,34.9z M38.2,34.9c-4.6,0-8.3-3.7-8.3-8.3
	c0-1.7,0.5-3.4,1.5-4.7c0-0.1,0.1-0.1,0.1-0.2c1.5-2.1,3.9-3.4,6.7-3.4c4.6,0,8.3,3.7,8.3,8.3S42.7,34.9,38.2,34.9z"/>
<circle class="st4" cx="17.4" cy="27.6" r="1.8"/>
<ellipse transform="matrix(0.1174 -0.9931 0.9931 0.1174 2.515 58.0737)" class="st4" cx="33.9" cy="27.6" rx="1.8" ry="1.8"/>
<ellipse class="st4" cx="26.1" cy="43.4" rx="2.3" ry="1.2"/>
</svg>
