<?xml version="1.0" encoding="utf-8"?>
<!-- Generator: Adobe Illustrator 19.2.1, SVG Export Plug-In . SVG Version: 6.00 Build 0)  -->
<svg version="1.1" id="Layer_1" xmlns="http://www.w3.org/2000/svg" xmlns:xlink="http://www.w3.org/1999/xlink" x="0px" y="0px"
	 viewBox="0 0 52 52" style="enable-background:new 0 0 52 52;" xml:space="preserve">
<style type="text/css">
	.st0{opacity:0.2;enable-background:new    ;}
	.st1{fill:#FFFFFF;}
	.st2{fill:#020202;}
</style>
<g>
	<path d="M28.9,22.8c-0.3,0-0.6-0.1-0.8-0.3c0-0.1-0.8-0.9-2.1-0.8l0,0c-1.2,0.1-2,0.9-2,0.9c-0.4,0.4-1,0.4-1.4,0s-0.4-1,0-1.4
		c0.1-0.1,1.3-1.3,3.3-1.5c2.3-0.1,3.7,1.5,3.7,1.6c0.3,0.4,0.3,1-0.1,1.4C29.2,22.7,29.1,22.8,28.9,22.8z"/>
</g>
<g class="st0">
	<path d="M13,26.7c-3.1,0-6.3,0.5-8.8-0.6C4.1,26.7,4,27.3,4,27.8C4,33.5,8.6,38,14.2,38s10.2-4.6,10.2-10.2c0-1-0.2-2-0.4-3
		C20.8,26.7,17.2,26.7,13,26.7z"/>
</g>
<path class="st0" d="M36.8,26.7c-3.1,0-6.3,0.5-8.8-0.6c-0.1,0.5-0.1,1.1-0.1,1.7C27.8,33.5,32.4,38,38,38s10.2-4.6,10.2-10.2
	c0-1-0.2-2-0.4-3C44.6,26.7,41,26.7,36.8,26.7z"/>
<circle class="st1" cx="14.4" cy="26" r="10"/>
<circle class="st1" cx="37.8" cy="26.4" r="10"/>
<g>
	<path class="st2" d="M14.3,37.1c-6.1,0-11-4.8-11-10.8s4.9-10.8,11-10.8s11,4.8,11,10.8S20.4,37.1,14.3,37.1z M14.3,17.5
		c-5,0-9,3.9-9,8.8c0,4.9,4,8.8,9,8.8s9-3.9,9-8.8C23.3,21.4,19.3,17.5,14.3,17.5z"/>
</g>
<ellipse transform="matrix(0.9292 -0.3696 0.3696 0.9292 -8.0664 7.7088)" cx="16.1" cy="24.9" rx="1.5" ry="1.5"/>
<circle cx="35.6" cy="24.9" r="1.5"/>
<path d="M10.3,11.2c-1.1,0.5-2.1,1-2.2,1.3c0,0.1,0,0.5,0.9,0.2c1.1-0.4,2.8-0.7,4.2-0.7c2.3,0,3,0.1,4.5,1c0.3,0.2,0.6,0.1,0.8-0.2
	c0.2-0.3-0.1-0.7-0.2-0.8c-0.4-0.3-0.8-0.5-1.1-0.7C16,10.6,12.4,10.2,10.3,11.2z"/>
<path d="M40.8,11.2c1.1,0.5,2.1,1,2.2,1.3c0,0.1,0,0.5-0.9,0.2C41,12.3,39.3,12,37.9,12c-2.3,0-3,0.1-4.5,1
	c-0.3,0.2-0.6,0.1-0.8-0.2s0.1-0.7,0.2-0.8c0.4-0.3,0.8-0.5,1.1-0.7C35.1,10.6,38.7,10.2,40.8,11.2z"/>
<path d="M26.7,41.9c0.9,0,2-0.4,2.8-1c0,0,0.2-0.2,0.1-0.4s-0.3-0.1-0.4-0.1c-0.6,0.1-1.6,0.7-2.4,0.7c-1,0-1.6-0.4-2.3-1
	C24.4,40,24.2,40,24,40.2c-0.1,0.2,0,0.4,0.1,0.4C24.9,41.4,25.7,41.9,26.7,41.9z"/>
<g>
	<path class="st2" d="M38,37c-6,0-11-4.8-11-10.8s5-10.7,11-10.7s11,4.8,11,10.8S44.1,37,38,37z M38,17.5c-4.9,0-9,3.9-9,8.8
		s4,8.8,9,8.8s9-3.9,9-8.8S43,17.5,38,17.5z"/>
</g>
</svg>
