<?xml version="1.0" encoding="utf-8"?>
<!-- Generator: Adobe Illustrator 19.2.1, SVG Export Plug-In . SVG Version: 6.00 Build 0)  -->
<svg version="1.1" id="Layer_1" xmlns="http://www.w3.org/2000/svg" xmlns:xlink="http://www.w3.org/1999/xlink" x="0px" y="0px"
	 viewBox="0 0 52 52" style="enable-background:new 0 0 52 52;" xml:space="preserve">
<style type="text/css">
	.st0{fill-rule:evenodd;clip-rule:evenodd;fill:#FFF200;}
	.st1{fill:#191919;}
	.st2{opacity:0.59;}
	.st3{fill-rule:evenodd;clip-rule:evenodd;fill:#E7A96B;}
	.st4{fill-rule:evenodd;clip-rule:evenodd;}
	.st5{fill-rule:evenodd;clip-rule:evenodd;fill:#E7A442;}
	.st6{fill-rule:evenodd;clip-rule:evenodd;fill:#FFFFFF;}
	.st7{fill:none;}
	.st8{fill:#231F20;}
	.st9{fill:none;stroke:#231F20;stroke-width:1.5;stroke-linecap:round;stroke-linejoin:round;stroke-miterlimit:10;}
	.st10{fill-rule:evenodd;clip-rule:evenodd;fill:none;stroke:#000000;stroke-width:2;stroke-miterlimit:10;}
	.st11{opacity:0.2;fill-rule:evenodd;clip-rule:evenodd;}
	.st12{fill-rule:evenodd;clip-rule:evenodd;fill:#FFFFFF;stroke:#020202;stroke-width:0.5;stroke-miterlimit:10;}
	
		.st13{fill-rule:evenodd;clip-rule:evenodd;fill:none;stroke:#000000;stroke-width:2;stroke-linecap:round;stroke-linejoin:round;stroke-miterlimit:10;}
	.st14{fill-rule:evenodd;clip-rule:evenodd;fill:#8FE3E5;}
	.st15{fill:#FFFFFF;}
	.st16{opacity:0.2;}
	.st17{fill:#E54265;}
	.st18{fill-rule:evenodd;clip-rule:evenodd;fill:#F2A464;}
	.st19{fill:#020202;}
	.st20{fill-rule:evenodd;clip-rule:evenodd;fill:#A69EEF;}
	.st21{fill-rule:evenodd;clip-rule:evenodd;fill:#FFDA00;}
	.st22{fill-rule:evenodd;clip-rule:evenodd;fill:none;stroke:#020202;stroke-width:2;stroke-miterlimit:10;}
	.st23{fill-rule:evenodd;clip-rule:evenodd;fill:#FF8B00;}
	.st24{fill:#30C630;}
	.st25{fill-rule:evenodd;clip-rule:evenodd;fill:#F784A2;}
	.st26{fill:#22A822;}
	.st27{fill:#2D8C2D;}
	.st28{opacity:0.5;fill-rule:evenodd;clip-rule:evenodd;fill:#8FB8E2;}
</style>
<path d="M28.1,35.1c0.8-0.4,1.5-1.3,2-2.2c0-0.1,0.1-0.3-0.1-0.4c-0.1-0.1-0.3,0-0.4,0.1c-0.4,0.4-1.1,1.4-1.7,1.8
	c-0.9,0.5-1.6,0.4-2.5,0.2c-0.2,0-0.3,0.1-0.4,0.3c0,0.2,0.2,0.3,0.3,0.3C26.3,35.4,27.3,35.5,28.1,35.1z"/>
<path class="st16" d="M37,18.2c2.8,0.3,5.4,1.2,7.9,2.3c0.1,0.1,0.1,0.5-0.4,0.3c-2.1-0.5-5.1-1.3-7.5-1.6c-3.1-0.3-6.2,0-9,0.7
	c-0.3,0.1-0.8-0.1-0.8-0.5c0-0.3,0.2-0.5,0.5-0.6C30.5,18.1,33.7,17.8,37,18.2z"/>
<path class="st11" d="M33.6,17.9c4.3-0.2,7.5,0.8,9.1,1.3c0.2-0.8,0.4-1.6,0.4-2.4c0-4.4-3.6-7.9-8-7.9c-4.4,0-7.9,3.6-7.9,8
	c0,0.7,0.1,1.4,0.3,2.1C29,18.5,31,18,33.6,17.9z"/>
<path class="st6" d="M32.9,18.1c5-0.3,8.4,1.1,9.8,1.4c0.2,0,0.4,0.1,0.6,0.1c0.2-0.6,0.3-1.3,0.3-2c0-4.3-3.6-7.8-8-7.8
	c-4.4,0-7.9,3.5-7.9,7.8c0,0.4,0,0.8,0.1,1.1C29.1,18.5,30.9,18.2,32.9,18.1z"/>
<path class="st4" d="M32,18.1c0.3,0,0.5-0.1,0.8-0.1c0.4,0,0.8,0,1.3,0c0.2-0.3,0.4-0.6,0.4-1c0-0.8-0.7-1.5-1.5-1.5
	c-0.8,0-1.5,0.7-1.5,1.5C31.5,17.5,31.7,17.8,32,18.1z"/>
<path class="st19" d="M27.9,18.8c-0.1-0.4-0.1-0.7-0.1-1.1c0-4.2,3.4-7.6,7.7-7.6c4.3,0,7.7,3.4,7.7,7.5c0,0.7-0.1,1.3-0.3,2
	c0.2,0,0.3,0.1,0.5,0.1c0.2-0.7,0.3-1.4,0.3-2.1c0-4.4-3.7-8-8.2-8s-8.2,3.7-8.2,8.1c0,0.4,0,0.8,0.1,1.2
	C27.6,18.9,27.8,18.9,27.9,18.8z"/>
<path class="st16" d="M16.8,18.1c2.8,0.2,5.5,0.9,8,1.9c0.1,0.1,0.1,0.5-0.4,0.4c-2.1-0.5-5.2-1.1-7.6-1.3c-3.2-0.2-6.2,0.3-9,1.1
	c-0.3,0.1-0.8-0.1-0.8-0.4c-0.1-0.3,0.2-0.5,0.5-0.6C10.3,18.3,13.5,17.9,16.8,18.1z"/>
<path class="st11" d="M13.4,18c4.3-0.4,7.5,0.5,9.2,0.9c0.2-0.8,0.3-1.6,0.3-2.4c-0.2-4.4-3.9-7.8-8.3-7.6c-4.4,0.2-7.8,3.9-7.6,8.3
	c0,0.7,0.2,1.4,0.4,2.1C8.8,18.8,10.8,18.2,13.4,18z"/>
<path class="st6" d="M12.7,18.2c4.9-0.5,8.4,0.8,9.8,1c0.2,0,0.4,0.1,0.6,0.1c0.1-0.6,0.2-1.3,0.2-2c-0.2-4.3-3.9-7.6-8.3-7.4
	c-4.4,0.2-7.8,3.9-7.6,8.2c0,0.4,0.1,0.8,0.1,1.1C8.9,18.8,10.7,18.4,12.7,18.2z"/>
<path class="st4" d="M11.8,18.3c0.3,0,0.5-0.1,0.8-0.1c0.4,0,0.8-0.1,1.3-0.1c0.2-0.3,0.4-0.6,0.4-1c0-0.8-0.7-1.4-1.5-1.4
	c-0.8,0-1.4,0.7-1.4,1.5C11.3,17.6,11.5,18,11.8,18.3z"/>
<path class="st19" d="M7.8,19.2c-0.1-0.4-0.1-0.7-0.1-1.1c-0.2-4.2,3.1-7.7,7.4-7.9s7.9,3,8,7.2c0,0.7,0,1.3-0.2,2
	c0.2,0,0.3,0.1,0.5,0.1c0.2-0.7,0.2-1.4,0.2-2.1c-0.2-4.4-4-7.9-8.6-7.7c-4.5,0.2-8,4-7.8,8.4c0,0.4,0.1,0.8,0.2,1.2
	C7.5,19.3,7.6,19.2,7.8,19.2z"/>
</svg>
