<?xml version="1.0" encoding="utf-8"?>
<!-- Generator: Adobe Illustrator 19.2.1, SVG Export Plug-In . SVG Version: 6.00 Build 0)  -->
<svg version="1.1" id="Layer_1" xmlns="http://www.w3.org/2000/svg" xmlns:xlink="http://www.w3.org/1999/xlink" x="0px" y="0px"
	 viewBox="0 0 52 52" style="enable-background:new 0 0 52 52;" xml:space="preserve">
<style type="text/css">
	.st0{fill-rule:evenodd;clip-rule:evenodd;fill:#FFF200;}
	.st1{fill:#191919;}
	.st2{opacity:0.59;}
	.st3{fill-rule:evenodd;clip-rule:evenodd;fill:#E7A96B;}
	.st4{fill-rule:evenodd;clip-rule:evenodd;}
	.st5{fill-rule:evenodd;clip-rule:evenodd;fill:#E7A442;}
	.st6{fill-rule:evenodd;clip-rule:evenodd;fill:#FFFFFF;}
	.st7{fill:none;}
	.st8{fill:#231F20;}
	.st9{fill:none;stroke:#231F20;stroke-width:1.5;stroke-linecap:round;stroke-linejoin:round;stroke-miterlimit:10;}
	.st10{fill-rule:evenodd;clip-rule:evenodd;fill:none;stroke:#000000;stroke-width:2;stroke-miterlimit:10;}
	.st11{opacity:0.2;fill-rule:evenodd;clip-rule:evenodd;}
	.st12{fill-rule:evenodd;clip-rule:evenodd;fill:#FFFFFF;stroke:#020202;stroke-width:0.5;stroke-miterlimit:10;}
	
		.st13{fill-rule:evenodd;clip-rule:evenodd;fill:none;stroke:#000000;stroke-width:2;stroke-linecap:round;stroke-linejoin:round;stroke-miterlimit:10;}
	.st14{fill-rule:evenodd;clip-rule:evenodd;fill:#8FE3E5;}
	.st15{fill:#FFFFFF;}
	.st16{opacity:0.2;}
	.st17{fill:#E54265;}
	.st18{fill-rule:evenodd;clip-rule:evenodd;fill:#F2A464;}
	.st19{fill:#020202;}
	.st20{fill-rule:evenodd;clip-rule:evenodd;fill:#A69EEF;}
	.st21{fill-rule:evenodd;clip-rule:evenodd;fill:#FFDA00;}
	.st22{fill-rule:evenodd;clip-rule:evenodd;fill:none;stroke:#020202;stroke-width:2;stroke-miterlimit:10;}
	.st23{fill-rule:evenodd;clip-rule:evenodd;fill:#FF8B00;}
	.st24{fill:#30C630;}
	.st25{fill-rule:evenodd;clip-rule:evenodd;fill:#F784A2;}
	.st26{fill:#22A822;}
	.st27{fill:#2D8C2D;}
	.st28{opacity:0.5;fill-rule:evenodd;clip-rule:evenodd;fill:#8FB8E2;}
</style>
<g>
	<path class="st8" d="M7.4,14.6c-0.1,0-0.3,0-0.4-0.1c-0.3-0.2-0.4-0.7-0.2-1c0.1-0.1,2-2.8,5.6-2.8c0,0,0.1,0,0.1,0
		c3.2,0,5.3,1.8,5.3,1.9c0.3,0.3,0.3,0.8,0.1,1.1s-0.8,0.3-1.1,0.1c0,0-1.7-1.5-4.3-1.5c0,0-0.1,0-0.1,0c-2.8,0-4.3,2.1-4.4,2.2
		C7.8,14.5,7.6,14.6,7.4,14.6z"/>
</g>
<g>
	<path class="st8" d="M43.6,14.6c-0.2,0-0.5-0.1-0.6-0.3c-0.1-0.1-1.5-2.2-4.4-2.2c-2.7,0-4.4,1.5-4.4,1.5c-0.3,0.3-0.8,0.3-1.1-0.1
		c-0.3-0.3-0.3-0.8,0.1-1.1c0.1-0.1,2.2-1.9,5.4-1.9c3.6,0,5.5,2.7,5.6,2.8c0.2,0.3,0.1,0.8-0.2,1C43.9,14.6,43.8,14.6,43.6,14.6z"
		/>
</g>
<path class="st4" d="M32.4,37.6c0,0.4-2.2,4.4-5.7,4.2c-3.5-0.2-5.4-3.6-5.5-4.1c-0.2-1.2,0.5-1.8,5.5-1.9
	C32.4,35.7,32.4,36.5,32.4,37.6z"/>
<path class="st5" d="M27.3,39.4c-1.7-0.1-3.4,0.2-3.6,0.7c-0.3,0.5,0.9,0.9,2.6,1c1.7,0.1,3.4-0.2,3.6-0.7
	C30.3,39.9,29.1,39.5,27.3,39.4z"/>
<g class="st2">
	<g>
		<path class="st3" d="M11.7,35.1c-2.2,0-4,1.7-3.9,3.8c0,2,1.9,3.7,4.1,3.6c2.2,0,4-1.7,3.9-3.8C15.8,36.7,13.9,35.1,11.7,35.1z"/>
	</g>
</g>
<g class="st2">
	<g>
		<path class="st3" d="M40.4,35.1c-2.2,0-4,1.7-3.9,3.8c0,2,1.9,3.7,4.1,3.6c2.2,0,4-1.7,3.9-3.8C44.4,36.7,42.6,35.1,40.4,35.1z"/>
	</g>
</g>
<g>
	<path class="st7" d="M20.8,36c0.8-2.2,0.4-4.5-0.8-6.3c0.3,0.8,0.3,1.7,0,2.5c-0.7,2-2.9,3.1-5,2.4c-2-0.7-3.1-2.9-2.4-4.9
		c0.7-2,2.8-3,4.8-2.4c-0.5-0.3-1.1-0.6-1.7-0.8c-4.2-1.4-8.7,0.6-10.1,4.4c-1.4,3.9,0.9,8.2,5.1,9.6C14.9,41.9,19.4,39.9,20.8,36z
		 M42.2,30.3c0.3,0.8,0.3,1.7,0,2.5c-0.7,2-2.9,3.1-5,2.4c-2-0.7-3.1-2.9-2.4-4.9c0.7-2,2.8-3,4.8-2.4c-0.5-0.3-1.1-0.6-1.7-0.8
		c-4.2-1.4-8.7,0.6-10.1,4.4c-1.4,3.9,0.9,8.2,5.1,9.6c4.2,1.4,8.7-0.6,10.1-4.4C43.8,34.4,43.4,32.1,42.2,30.3z M27.7,47
		c-2.1-0.1-2-0.9-3.4-0.9c-0.4,0-3,1-3.7,0.7c-0.6-0.2-0.8-0.4-0.8-0.7c0.1-0.5-0.5-0.6-0.5-0.6c-0.3,0.2-0.9,0.8,1.3,1.9
		c0.8,0.4,3.4-0.6,3.9-0.6c0.4,0,1,0.8,3.2,0.8c2,0,2.4-1.5,2.2-1.7C29.2,45,29.8,47.1,27.7,47z"/>
</g>
<g>
	<g>
		<path class="st4" d="M13,24.3c-1.5-0.6-3,0.1-3.5,1.5c-0.5,1.4,0.3,3,1.7,3.5c1.5,0.6,3-0.1,3.5-1.5C15.2,26.4,14.5,24.8,13,24.3z
			"/>
	</g>
</g>
<g>
	<g>
		<path class="st4" d="M41.6,24.3c-1.5-0.6-3,0.1-3.5,1.5c-0.5,1.4,0.3,3,1.7,3.5c1.5,0.6,3-0.1,3.5-1.5
			C43.8,26.4,43,24.8,41.6,24.3z"/>
	</g>
</g>
</svg>
