<?xml version="1.0" encoding="utf-8"?>
<!-- Generator: Adobe Illustrator 19.2.1, SVG Export Plug-In . SVG Version: 6.00 Build 0)  -->
<svg version="1.1" id="Layer_1" xmlns="http://www.w3.org/2000/svg" xmlns:xlink="http://www.w3.org/1999/xlink" x="0px" y="0px"
	 viewBox="0 0 52 52" style="enable-background:new 0 0 52 52;" xml:space="preserve">
<style type="text/css">
	.st0{fill:#E54265;}
	.st1{fill:#FFFFFF;}
	.st2{opacity:0.2;enable-background:new    ;}
	.st3{fill:#31CAFF;}
</style>
<path d="M44,24.7c-5.7,1.6-12,2.1-18.8,2.1c-6.2,0-11-1.2-15.7-2.5c-1.8-0.5-6.6-1-4,6.3c1.9,5.5,7.1,16,20.5,16
	c12.7,0,19-9.6,20.6-15.6C48.4,24.6,45.2,24.3,44,24.7z"/>
<path class="st0" d="M34.8,44.2c-2,1-5.4,2-9,2c-3.7,0-7-1-9-2.1c-0.5-0.2,1.6-5.1,9-5.1C33.4,39,35.2,44,34.8,44.2z"/>
<path class="st1" d="M19.3,27.9L19.1,31c-0.1,0.9,0.6,1.6,1.5,1.7l3,0.2c0.9,0.1,1.6-0.6,1.7-1.5l0.2-3c0-0.3-0.2-0.6-0.5-0.6
	c-1.3-0.1-3.4-0.3-5.1-0.4C19.6,27.4,19.3,27.6,19.3,27.9z"/>
<path class="st1" d="M33.2,27.9l0.2,3c0.1,0.9-0.6,1.6-1.5,1.7l-3,0.2c-0.9,0.1-1.6-0.6-1.7-1.5l-0.2-3c0-0.3,0.2-0.6,0.5-0.6
	c1.3-0.1,3.3-0.3,5-0.5C32.9,27.3,33.2,27.6,33.2,27.9z"/>
<path class="st2" d="M26.3,29.4c-4.1,0-10.2,0.2-11.2-2.3c-0.2-0.5,1.4-0.8,4.2-0.5c2.1,0.3,4.5,0.2,6.6,0.2c5.9,0,13.4,0,15.2-1.4
	c0.2-0.1,0.4-0.4,0.6-0.2c0.1,0.2,0.1,0.4-0.1,0.6C39.8,27.3,33.9,29.3,26.3,29.4z"/>
<path d="M15.1,14.6c-1.2,0.1-2.3,0.2-2.5,0.4c-0.1,0.1-0.2,0.5,0.7,0.5c1.1,0.1,2.9,0.4,4.2,0.9c2.1,0.8,2.8,1.2,3.8,2.6
	c0.2,0.3,0.5,0.3,0.9,0.1c0.3-0.2,0.2-0.6,0.1-0.8c-0.3-0.4-0.6-0.7-0.8-1.1C20.7,16.1,17.5,14.4,15.1,14.6z"/>
<path d="M36.8,14.6c1.2,0.1,2.3,0.1,2.5,0.4c0.1,0.1,0.2,0.5-0.7,0.5c-1.1,0.1-2.9,0.4-4.2,0.9c-2.1,0.8-2.8,1.3-3.8,2.7
	c-0.2,0.3-0.5,0.3-0.9,0.1c-0.3-0.2-0.2-0.6-0.1-0.8c0.3-0.4,0.6-0.7,0.8-1.1C31.3,16.2,34.5,14.4,36.8,14.6z"/>
<path class="st2" d="M9.2,30l0.1-0.1c0.2-0.1,0.3-0.2,0.5-0.4c3.5-2.6,5.7-6.8,6.8-9c0.3-0.5-0.1-1.2-0.7-1.1
	c-2.4,0-7.2,0.3-10.9,2.1c-0.3,0.1-0.6,0.3-0.8,0.4C4.1,21.9,4.1,22,4,22s-0.2,0.1-0.2,0.1c-0.3,0.2-0.5,0.4-0.7,0.7
	c-1.3,1.6-1.5,3.8-0.3,5.6C3.9,30.2,6,31,8,30.5c0.4-0.1,0.7-0.2,1.1-0.4C9.1,30.1,9.1,30,9.2,30z"/>
<path class="st3" d="M8,29c2.1-1.1,3.7-3.2,4.9-5.1c1-1.4,1.8-2.8,2.5-4.4c0.3-0.5-0.1-1.2-0.7-1.1c-2.3,0-4.5,0.2-6.8,0.7
	c-1.1,0.2-2.2,0.6-3.3,1c-0.9,0.4-2.1,0.9-2.7,1.8c-1.3,1.6-1.5,3.8-0.3,5.6c1.3,2,3.7,2.6,5.8,1.7C7.6,29.2,7.8,29.1,8,29z"/>
<path class="st2" d="M43,30.4l-0.1-0.1c-0.2-0.1-0.3-0.2-0.5-0.4c-3.5-2.6-5.7-6.8-6.8-9c-0.3-0.5,0.1-1.2,0.7-1.1
	c2.4,0,7.2,0.3,10.9,2.1c0.3,0.1,0.6,0.3,0.8,0.4c0.1,0,0.1,0.1,0.2,0.1c0.1,0,0.2,0.1,0.2,0.1c0.3,0.2,0.5,0.4,0.7,0.7
	c1.3,1.6,1.5,3.8,0.3,5.6c-1.1,1.8-3.2,2.5-5.2,2c-0.4-0.1-0.7-0.2-1.1-0.4C43.1,30.5,43.1,30.5,43,30.4z"/>
<path class="st3" d="M44,28.9c-1.7-1-3.2-2.8-4.3-4.2c-1.2-1.6-2.3-3.4-3.1-5.2c-0.3-0.5,0.1-1.2,0.7-1.1c2.4,0,7.2,0.3,10.9,2.1
	c0.7,0.3,1.5,0.7,1.9,1.4c1.3,1.6,1.5,3.8,0.3,5.6c-1.1,1.8-3.2,2.5-5.2,2C44.8,29.3,44.4,29.1,44,28.9z"/>
<path class="st1" d="M7,20.8c-1.3,0.4-2.5,0.7-4.3,2.3c-1.5,1.4-1,2.9-0.8,3.1C2.2,26.4,3,27,4,26.2c0.5-0.4,0.7-1.6,1.3-2.5
	c1.8-2.8,4.8-2,4.8-2.7C10.1,19.9,8.1,20.4,7,20.8z"/>
<path class="st1" d="M44,20.9c1.4,0.3,2.6,0.4,4.5,1.9c1.6,1.3,1.3,2.8,1,3s-1,0.9-2.1,0.2c-0.5-0.4-0.9-1.5-1.6-2.4
	c-2.1-2.6-5-1.6-5-2.2C40.8,20.3,42.8,20.6,44,20.9z"/>
<path class="st2" d="M43.9,16.9L43.9,16.9c-0.2,0.1-0.3,0.1-0.4,0.2c-2,0.9-4.4,0.9-5.7,0.8c-0.3,0-0.5-0.3-0.3-0.6
	c0.6-1,1.9-3.1,3.6-4.3c0.1-0.1,0.2-0.2,0.4-0.3h0.1c0,0,0.1,0,0.1-0.1c0.1-0.1,0.3-0.1,0.5-0.1c1-0.2,2.1,0.3,2.6,1.2
	s0.3,2.1-0.4,2.8C44.3,16.7,44.1,16.8,43.9,16.9C44,16.8,44,16.8,43.9,16.9z"/>
<path class="st3" d="M44.4,15.9c-0.2,0.1-0.4,0.3-0.7,0.4C42,17,40.2,17.1,38.4,17c-0.3,0-0.5-0.3-0.3-0.6c0.6-1,1.2-2,2-2.9
	c0.7-0.8,1.5-1.6,2.5-1.9c1.1-0.3,2.2,0.2,2.7,1.2C46.1,14,45.5,15.2,44.4,15.9z"/>
<path class="st1" d="M41,13.9c0.5-0.5,0.8-1,1.9-1.5c1-0.4,1.6,0.1,1.6,0.3s0.2,0.7-0.4,1c-0.3,0.2-0.9,0-1.4,0.1
	c-1.7,0.3-1.9,1.8-2.2,1.7C40,15.2,40.6,14.4,41,13.9z"/>
<path class="st2" d="M9.4,16.5C9.5,16.5,9.5,16.6,9.4,16.5c0.2,0.1,0.3,0.1,0.4,0.2c2,0.9,4.4,0.9,5.7,0.8c0.3,0,0.5-0.3,0.3-0.6
	c-0.6-1-1.9-3.1-3.6-4.3c-0.1-0.1-0.2-0.2-0.4-0.3h-0.1c0,0-0.1,0-0.1-0.1c-0.1-0.1-0.3-0.1-0.5-0.1c-1-0.2-2.1,0.3-2.6,1.2
	s-0.3,2.1,0.4,2.8c0.1,0.2,0.3,0.3,0.4,0.4C9.4,16.5,9.4,16.5,9.4,16.5z"/>
<path class="st3" d="M10,15.9c0.2,0.1,0.4,0.2,0.6,0.3c1.7,0.7,3.6,0.8,5.4,0.7c0.3,0,0.5-0.3,0.3-0.6c-0.6-1-1.9-3.1-3.6-4.3
	c-0.2-0.1-0.4-0.3-0.6-0.4c-0.1-0.1-0.3-0.1-0.5-0.1c-1-0.2-2.1,0.3-2.6,1.2C8.4,13.9,8.9,15.2,10,15.9z"/>
<path class="st1" d="M13.5,13.7c-0.5-0.5-0.8-1-1.9-1.5c-1-0.4-1.6,0.1-1.6,0.3s-0.2,0.7,0.4,1c0.3,0.2,0.9,0,1.4,0.1
	c1.7,0.3,1.9,1.8,2.2,1.7C14.5,15,13.9,14.2,13.5,13.7z"/>
</svg>
