<?xml version="1.0" encoding="utf-8"?>
<!-- Generator: Adobe Illustrator 19.2.1, SVG Export Plug-In . SVG Version: 6.00 Build 0)  -->
<svg version="1.1" id="Layer_1" xmlns="http://www.w3.org/2000/svg" xmlns:xlink="http://www.w3.org/1999/xlink" x="0px" y="0px"
	 viewBox="0 0 52 52" style="enable-background:new 0 0 52 52;" xml:space="preserve">
<style type="text/css">
	.st0{fill:#E7A442;}
	.st1{fill:#51B6F4;}
	.st2{fill:#FFFFFF;}
</style>
<g>
	<g>
		<path d="M12.1,16.5c0,0,1.3-0.1,3.1,0.1c1.9,0.2,3.6,0.5,3.9,0.5l0,0l0,0l0,0l0,0c0,0,0,0-0.1-0.1c0.1,0.1,0.1,0.1,0.1,0.1
			s-0.8-2.8-2.1-3.6c-1.9-1.7-5-3.2-5.7-3.2s2.9,2.1,2.9,2.1s0.8,0.6,2,1.7c-2.1-1.3-5.8-1.2-6.4-0.9c-0.7,0.3,2.8,1.2,2.8,1.2
			s0.6,0.1,1.6,0.5c-2.1-0.2-4.6,0.8-5,1.2C8.5,16.7,12.1,16.5,12.1,16.5z M33.8,17.5L33.8,17.5c0.2,0,2-0.3,3.9-0.5
			c1.8-0.2,3.1-0.1,3.1-0.1s3.6,0.1,3-0.4c-0.5-0.4-2.9-1.4-5-1.2c1-0.3,1.6-0.5,1.6-0.5s3.5-0.9,2.8-1.2c-0.6-0.3-4.4-0.4-6.4,0.9
			c1.2-1.1,2-1.7,2-1.7s3.6-2.1,2.9-2.1c-0.7,0-3.8,1.4-5.7,3.2C35.4,14.4,33.7,17.5,33.8,17.5L33.8,17.5
			C33.8,17.5,33.8,17.5,33.8,17.5C33.9,17.5,33.8,17.5,33.8,17.5L33.8,17.5z M27.3,25C5.6,24.6,7.6,16.2,7.1,30.6
			c-0.3,9.1,9.2,16.5,20,16.5s18.3-7.6,19.1-16.6C47.5,16.6,45.8,25.4,27.3,25z"/>
	</g>
</g>
<path class="st0" d="M28.4,31.2c-7.1-0.7-13.8,1.9-14.9,5.6c-1.1,3.8,3.7,7.4,10.8,8c7.1,0.7,13.8-1.9,14.9-5.6
	C40.4,35.5,35.6,31.9,28.4,31.2z"/>
<path class="st1" d="M9.6,31c2.9-2.7,4.6-6.6,5.6-10.3c0.2-0.6-0.3-1.1-0.9-1c-2.3,0.4-6.9,1.5-10.1,3.8c-0.6,0.4-1.3,0.9-1.6,1.6
	c-1,1.7-0.8,3.9,0.6,5.5c1.5,1.6,4.5,2.1,6.3,0.6C9.5,31.2,9.5,31.1,9.6,31z"/>
<path class="st2" d="M7.8,23.2c-1.3,0.5-2.4,0.8-4,2.6c-1.4,1.5-0.8,2.9-0.5,3.1s1.1,0.7,2.1-0.2c0.5-0.4,0.6-1.6,1.1-2.6
	c1.6-2.9,4.5-2.3,4.5-3C10.8,22.2,8.9,22.8,7.8,23.2z"/>
<path class="st1" d="M8.3,18.6c0.6,0.2,1.3,0.3,1.9,0.4c1.6,0.1,3.3-0.2,4.9-0.6c0.3-0.1,0.4-0.5,0.2-0.7c-0.8-0.9-1.7-1.9-2.7-2.6
	c-0.8-0.6-2.3-1.8-3.4-1.6c-1.1,0-2.2,0.8-2.5,1.9C6.5,16.1,6.6,17,7,17.6C7.2,18.1,7.7,18.4,8.3,18.6z"/>
<path class="st2" d="M11.6,15.4c-0.6-0.5-1.1-1-2.5-1.2C8,14,7.5,14.7,7.5,14.9s0,0.8,0.7,1c0.3,0.1,1-0.2,1.6-0.2
	c1.9-0.1,2.5,1.6,2.8,1.3C13,16.6,12.2,15.8,11.6,15.4z"/>
<path class="st1" d="M42.9,31.1c-0.5-0.5-1-1.1-1.4-1.6c-0.8-1-1.4-2-2-3.2c-0.9-1.8-1.6-3.7-2.2-5.6c-0.2-0.6,0.3-1.1,0.9-1
	c2.3,0.4,6.9,1.5,10.1,3.8c2.3,1.7,3.1,4.9,1,7.1c-1.4,1.5-3.5,1.9-5.3,1.1C43.6,31.6,43.2,31.4,42.9,31.1z"/>
<path class="st2" d="M44.7,23.2c1.3,0.5,2.4,0.8,4,2.6c0.6,0.7,1.2,1.9,0.7,2.8s-1.6,0.7-2.3,0.1c-0.5-0.4-0.6-1.6-1.1-2.6
	c-1.6-2.9-4.5-2.3-4.5-3C41.7,22.2,43.6,22.8,44.7,23.2z"/>
<path class="st1" d="M44.2,18.6c-0.2,0.1-0.5,0.2-0.7,0.2c-2,0.3-4.1,0.1-6.1-0.4c-0.3-0.1-0.4-0.5-0.2-0.7c0.9-1,2.8-3,4.9-3.9
	c1.5-0.7,3.3-0.1,3.8,1.6C46.4,16.7,45.5,18.1,44.2,18.6z"/>
<path class="st2" d="M40.9,15.4c0.6-0.5,1.1-1,2.5-1.2c1.1-0.2,1.7,0.5,1.7,0.7s0,0.8-0.7,1c-0.3,0.1-1-0.2-1.6-0.2
	c-1.9-0.1-2.5,1.6-2.8,1.3C39.5,16.6,40.3,15.8,40.9,15.4z"/>
</svg>
