<?xml version="1.0" encoding="utf-8"?>
<!-- Generator: Adobe Illustrator 19.2.1, SVG Export Plug-In . SVG Version: 6.00 Build 0)  -->
<svg version="1.1" id="Layer_1" xmlns="http://www.w3.org/2000/svg" xmlns:xlink="http://www.w3.org/1999/xlink" x="0px" y="0px"
	 viewBox="0 0 52 52" style="enable-background:new 0 0 52 52;" xml:space="preserve">
<style type="text/css">
	.st0{fill:#E94342;}
	.st1{fill:#010101;}
</style>
<g>
	<g>
		<path class="st0" d="M39,17.3c-3.4-3.4-9-3.4-12.4,0l-0.5,0.5l-0.6-0.5c-3.4-3.4-9.1-3.4-12.5,0c-3.4,3.4-3.4,9,0.1,12.4
			l11.6,11.5c0.4,0.4,0.9,0.8,1.5,1.1c0.5-0.3,0.9-0.7,1.3-1.1L39,29.7C42.4,26.3,42.4,20.7,39,17.3z"/>
	</g>
	<g>
		<path class="st1" d="M26.2,43.3L25.7,43c-0.6-0.3-1.1-0.7-1.7-1.2L12.5,30.3c-3.8-3.8-3.8-9.8-0.1-13.6c1.8-1.8,4.2-2.8,6.8-2.8
			c2.6,0,5,1,6.8,2.8c1.8-1.8,4.2-2.8,6.7-2.8c2.6,0,5,1,6.8,2.8l0,0l0,0c1.8,1.8,2.8,4.2,2.8,6.8c0,2.6-1,5-2.8,6.8L28,41.8
			c-0.4,0.4-0.9,0.8-1.5,1.2L26.2,43.3z M19.2,15.6c-2.2,0-4.2,0.8-5.7,2.3c-3.1,3.1-3,8.1,0.1,11.2l11.6,11.5
			c0.3,0.3,0.5,0.5,0.8,0.7c0.3-0.2,0.5-0.4,0.8-0.7l11.5-11.5c1.5-1.5,2.3-3.5,2.3-5.6s-0.8-4.1-2.3-5.6l0,0
			c-1.5-1.5-3.5-2.3-5.6-2.3c-2.1,0-4.1,0.8-5.6,2.3l-1,1l-1.3-1C23.4,16.4,21.4,15.6,19.2,15.6z"/>
	</g>
</g>
</svg>
