<?xml version="1.0" encoding="utf-8"?>
<!-- Generator: Adobe Illustrator 19.2.1, SVG Export Plug-In . SVG Version: 6.00 Build 0)  -->
<svg version="1.1" id="Layer_1" xmlns="http://www.w3.org/2000/svg" xmlns:xlink="http://www.w3.org/1999/xlink" x="0px" y="0px"
	 viewBox="0 0 52 52" style="enable-background:new 0 0 52 52;" xml:space="preserve">
<style type="text/css">
	.st0{fill-rule:evenodd;clip-rule:evenodd;fill:#FFF200;}
	.st1{fill:#191919;}
	.st2{opacity:0.59;}
	.st3{fill-rule:evenodd;clip-rule:evenodd;fill:#E7A96B;}
	.st4{fill-rule:evenodd;clip-rule:evenodd;}
	.st5{fill-rule:evenodd;clip-rule:evenodd;fill:#E7A442;}
	.st6{fill-rule:evenodd;clip-rule:evenodd;fill:#FFFFFF;}
	.st7{fill:none;}
	.st8{fill:#231F20;}
	.st9{fill:none;stroke:#231F20;stroke-width:1.5;stroke-linecap:round;stroke-linejoin:round;stroke-miterlimit:10;}
	.st10{fill-rule:evenodd;clip-rule:evenodd;fill:none;stroke:#000000;stroke-width:2;stroke-miterlimit:10;}
	.st11{opacity:0.2;fill-rule:evenodd;clip-rule:evenodd;}
	.st12{fill-rule:evenodd;clip-rule:evenodd;fill:#FFFFFF;stroke:#020202;stroke-width:0.5;stroke-miterlimit:10;}
	
		.st13{fill-rule:evenodd;clip-rule:evenodd;fill:none;stroke:#000000;stroke-width:2;stroke-linecap:round;stroke-linejoin:round;stroke-miterlimit:10;}
	.st14{fill-rule:evenodd;clip-rule:evenodd;fill:#8FE3E5;}
	.st15{fill:#FFFFFF;}
	.st16{opacity:0.2;}
	.st17{fill:#E54265;}
	.st18{fill-rule:evenodd;clip-rule:evenodd;fill:#F2A464;}
	.st19{fill:#020202;}
	.st20{fill-rule:evenodd;clip-rule:evenodd;fill:#A69EEF;}
	.st21{fill-rule:evenodd;clip-rule:evenodd;fill:#FFDA00;}
	.st22{fill-rule:evenodd;clip-rule:evenodd;fill:none;stroke:#020202;stroke-width:2;stroke-miterlimit:10;}
	.st23{fill-rule:evenodd;clip-rule:evenodd;fill:#FF8B00;}
	.st24{fill:#30C630;}
	.st25{fill-rule:evenodd;clip-rule:evenodd;fill:#F784A2;}
	.st26{fill:#22A822;}
	.st27{fill:#2D8C2D;}
	.st28{opacity:0.5;fill-rule:evenodd;clip-rule:evenodd;fill:#8FB8E2;}
</style>
<g class="st2">
	<g>
		<ellipse class="st3" cx="8.8" cy="31.6" rx="4.7" ry="4.6"/>
	</g>
</g>
<g class="st2">
	<g>
		<ellipse class="st3" cx="42.8" cy="31.6" rx="4.7" ry="4.6"/>
	</g>
</g>
<g>
	<g>
		<path class="st4" d="M25.7,33c-12.3,0.5-15.7-7.8-15.3,1.1c0.3,6.3,7,11.7,15.6,11.3C33.9,44.9,42,40.2,41.8,34
			C41.6,24.9,40.5,32.4,25.7,33z"/>
	</g>
</g>
<path class="st5" d="M27.2,39c-4.2,0-8.1,1.1-8.6,2.5c-0.6,1.4,2.3,2.4,6.5,2.4c4.2,0,8.1-1.1,8.6-2.5C34.3,40,31.4,39,27.2,39z"/>
<g>
	<g>
		<path class="st4" d="M13.6,23c-0.9-0.3-1.3-1.4-1-2.3c0.2-0.4,0.5-0.8,0.9-1c-0.1-0.1-0.2-0.1-0.4-0.2C11,18.8,8.7,19.8,8,21.8
			c-0.7,2,0.4,4.3,2.5,5.1c2.1,0.8,4.4-0.2,5.1-2.2c0.3-0.8,0.3-1.6,0.1-2.3C15.2,23,14.4,23.3,13.6,23z"/>
	</g>
</g>
<g>
	<g>
		<path class="st4" d="M42.2,23c-0.9-0.3-1.3-1.4-1-2.3c0.2-0.4,0.5-0.8,0.9-1c-0.1-0.1-0.2-0.1-0.4-0.2c-2.1-0.8-4.4,0.2-5.1,2.2
			c-0.7,2,0.4,4.3,2.5,5.1c2.1,0.8,4.4-0.2,5.1-2.2c0.3-0.8,0.3-1.6,0.1-2.3C43.7,23,42.9,23.3,42.2,23z"/>
	</g>
</g>
</svg>
