<?xml version="1.0" encoding="utf-8"?>
<!-- Generator: Adobe Illustrator 19.2.1, SVG Export Plug-In . SVG Version: 6.00 Build 0)  -->
<svg version="1.1" id="Layer_1" xmlns="http://www.w3.org/2000/svg" xmlns:xlink="http://www.w3.org/1999/xlink" x="0px" y="0px"
	 viewBox="0 0 52 52" style="enable-background:new 0 0 52 52;" xml:space="preserve">
<style type="text/css">
	.st0{fill:#010101;}
	.st1{fill:#FFFFFF;}
</style>
<g>
	<path class="st0" d="M26.4,49c10.8,0,15.7-7.1,17.2-11.6c1.3-3.9-0.1-7.2-0.4-7.8c-0.2-0.4-8.9-1-17.6-1.1
		c-12.8-0.2-17.2,0.3-17.7,0.7c-1,0.8-1.1,2.7,0.4,7.7C9.6,41.6,16.2,49,26.4,49z"/>
	<path class="st0" d="M26.4,49.5C16.2,49.5,9.2,42.1,7.7,37c-1.5-4.9-1.5-7.1-0.2-8.2c1-0.8,10.3-0.9,18-0.8
		c0.2,0,17.5,0.3,18.1,1.4c0.5,1,1.7,4.4,0.5,8.2C43.4,39.6,39.5,49.5,26.4,49.5z M20,29C9.4,29,8.2,29.6,8.2,29.6
		c-0.9,0.7-0.7,2.9,0.5,7.1c1.4,4.8,8,11.8,17.7,11.8c12.5,0,16.1-9.4,16.7-11.2c1.2-3.6,0-6.6-0.3-7.2c-1.2-0.3-9-0.9-17.3-1
		C23.5,29,21.6,29,20,29z"/>
</g>
<g>
	<path class="st1" d="M26.1,47.5c-5.9,0.2-12.9-2.3-12.3-5.8c0.6-3.6,5.3-5.8,12-5.8c9,0,11.9,3.2,11.7,7.1
		C37.3,45.4,34.1,47.3,26.1,47.5z"/>
</g>
<g>
	<circle class="st0" cx="8.6" cy="23.8" r="2.1"/>
</g>
<g>
	<circle class="st0" cx="42.8" cy="23.8" r="2.1"/>
</g>
</svg>
