<?xml version="1.0" encoding="utf-8"?>
<!-- Generator: Adobe Illustrator 19.2.1, SVG Export Plug-In . SVG Version: 6.00 Build 0)  -->
<svg version="1.1" id="Layer_1" xmlns="http://www.w3.org/2000/svg" xmlns:xlink="http://www.w3.org/1999/xlink" x="0px" y="0px"
	 viewBox="0 0 52 52" style="enable-background:new 0 0 52 52;" xml:space="preserve">
<style type="text/css">
	.st0{fill-rule:evenodd;clip-rule:evenodd;fill:#FFF200;}
	.st1{fill:#191919;}
	.st2{opacity:0.59;}
	.st3{fill-rule:evenodd;clip-rule:evenodd;fill:#E7A96B;}
	.st4{fill-rule:evenodd;clip-rule:evenodd;}
	.st5{fill-rule:evenodd;clip-rule:evenodd;fill:#E7A442;}
	.st6{fill-rule:evenodd;clip-rule:evenodd;fill:#FFFFFF;}
	.st7{fill:none;}
	.st8{fill:#231F20;}
	.st9{fill:none;stroke:#231F20;stroke-width:1.5;stroke-linecap:round;stroke-linejoin:round;stroke-miterlimit:10;}
	.st10{fill-rule:evenodd;clip-rule:evenodd;fill:none;stroke:#000000;stroke-width:2;stroke-miterlimit:10;}
	.st11{opacity:0.2;fill-rule:evenodd;clip-rule:evenodd;}
	.st12{fill-rule:evenodd;clip-rule:evenodd;fill:#FFFFFF;stroke:#020202;stroke-width:0.5;stroke-miterlimit:10;}
	
		.st13{fill-rule:evenodd;clip-rule:evenodd;fill:none;stroke:#000000;stroke-width:2;stroke-linecap:round;stroke-linejoin:round;stroke-miterlimit:10;}
	.st14{fill-rule:evenodd;clip-rule:evenodd;fill:#8FE3E5;}
	.st15{fill:#FFFFFF;}
	.st16{opacity:0.2;}
	.st17{fill:#E54265;}
	.st18{fill-rule:evenodd;clip-rule:evenodd;fill:#F2A464;}
	.st19{fill:#020202;}
	.st20{fill-rule:evenodd;clip-rule:evenodd;fill:#A69EEF;}
	.st21{fill-rule:evenodd;clip-rule:evenodd;fill:#FFDA00;}
	.st22{fill-rule:evenodd;clip-rule:evenodd;fill:none;stroke:#020202;stroke-width:2;stroke-miterlimit:10;}
	.st23{fill-rule:evenodd;clip-rule:evenodd;fill:#FF8B00;}
	.st24{fill:#30C630;}
	.st25{fill-rule:evenodd;clip-rule:evenodd;fill:#F784A2;}
	.st26{fill:#22A822;}
	.st27{fill:#2D8C2D;}
	.st28{opacity:0.5;fill-rule:evenodd;clip-rule:evenodd;fill:#8FB8E2;}
</style>
<path d="M39.6,29.9c-4.3,1.2-9.1,1.6-14.2,1.6c-4.7,0-8.3-0.9-11.9-1.9c-1.4-0.4-5-0.8-3,4.7c1.5,4.2,5.3,12,15.5,12
	c9.7,0,14.4-7.2,15.6-11.8C42.9,29.8,40.5,29.6,39.6,29.9z"/>
<path class="st17" d="M31.6,44.4c-1.5,0.8-4.1,1.5-6.8,1.5c-2.8,0-5.3-0.7-6.8-1.6c-0.3-0.2,1.2-3.9,6.8-3.9
	C30.6,40.5,32,44.3,31.6,44.4z"/>
<circle class="st11" cx="37" cy="21" r="6.3"/>
<g>
	<circle class="st6" cx="37.6" cy="20.1" r="6"/>
	<path class="st19" d="M37.6,26.3c-3.4,0-6.2-2.8-6.2-6.2s2.8-6.2,6.2-6.2c3.4,0,6.2,2.8,6.2,6.2S41,26.3,37.6,26.3z M37.6,14.4
		c-3.2,0-5.7,2.6-5.7,5.7s2.6,5.7,5.7,5.7s5.7-2.6,5.7-5.7S40.7,14.4,37.6,14.4z"/>
</g>
<circle class="st4" cx="38.6" cy="18.6" r="2.4"/>
<circle class="st11" cx="13.5" cy="20.6" r="6.3"/>
<g>
	<circle class="st6" cx="14.1" cy="19.7" r="6"/>
	<path class="st19" d="M14.1,25.9c-3.4,0-6.2-2.8-6.2-6.2c0-3.4,2.8-6.2,6.2-6.2c3.4,0,6.2,2.8,6.2,6.2
		C20.3,23.1,17.5,25.9,14.1,25.9z M14.1,14c-3.2,0-5.7,2.6-5.7,5.7s2.6,5.7,5.7,5.7s5.7-2.6,5.7-5.7S17.2,14,14.1,14z"/>
</g>
<path class="st15" d="M20.2,32.3L20,35c0,0.8,0.5,1.4,1.3,1.5l2.7,0.2c0.8,0,1.4-0.5,1.5-1.3l0.2-2.6c0-0.3-0.2-0.5-0.5-0.5
	c-1.2-0.1-3-0.2-4.5-0.4C20.4,31.8,20.2,32,20.2,32.3z"/>
<path class="st15" d="M32.6,32.3l0.2,2.7c0.1,0.8-0.5,1.5-1.3,1.5l-2.7,0.2c-0.8,0.1-1.5-0.5-1.5-1.3l-0.2-2.6
	c0-0.3,0.2-0.5,0.5-0.6c1.2-0.1,2.9-0.3,4.4-0.4C32.3,31.8,32.6,32,32.6,32.3z"/>
<circle class="st4" cx="15.3" cy="18.6" r="2.4"/>
<path class="st16" d="M26.2,33.4c-3.1,0-7.7,0.1-8.5-1.7c-0.2-0.4,1.1-0.6,3.2-0.3c1.6,0.2,3.4,0.1,5,0.2c4.5,0,10.1,0,11.5-1
	c0.1-0.1,0.3-0.3,0.4-0.1c0.1,0.2,0.1,0.3-0.1,0.4C36.4,31.9,32,33.4,26.2,33.4z"/>
</svg>
