<?xml version="1.0" encoding="utf-8"?>
<!-- Generator: Adobe Illustrator 19.2.1, SVG Export Plug-In . SVG Version: 6.00 Build 0)  -->
<svg version="1.1" id="Layer_1" xmlns="http://www.w3.org/2000/svg" xmlns:xlink="http://www.w3.org/1999/xlink" x="0px" y="0px"
	 viewBox="0 0 52 52" style="enable-background:new 0 0 52 52;" xml:space="preserve">
<style type="text/css">
	.st0{fill-rule:evenodd;clip-rule:evenodd;fill:#FFF200;}
	.st1{fill:#191919;}
	.st2{opacity:0.59;}
	.st3{fill-rule:evenodd;clip-rule:evenodd;fill:#E7A96B;}
	.st4{fill-rule:evenodd;clip-rule:evenodd;}
	.st5{fill-rule:evenodd;clip-rule:evenodd;fill:#E7A442;}
	.st6{fill-rule:evenodd;clip-rule:evenodd;fill:#FFFFFF;}
	.st7{fill:none;}
	.st8{fill:#231F20;}
	.st9{fill:none;stroke:#231F20;stroke-width:1.5;stroke-linecap:round;stroke-linejoin:round;stroke-miterlimit:10;}
	.st10{fill-rule:evenodd;clip-rule:evenodd;fill:none;stroke:#000000;stroke-width:2;stroke-miterlimit:10;}
	.st11{opacity:0.2;fill-rule:evenodd;clip-rule:evenodd;}
	.st12{fill-rule:evenodd;clip-rule:evenodd;fill:#FFFFFF;stroke:#020202;stroke-width:0.5;stroke-miterlimit:10;}
	
		.st13{fill-rule:evenodd;clip-rule:evenodd;fill:none;stroke:#000000;stroke-width:2;stroke-linecap:round;stroke-linejoin:round;stroke-miterlimit:10;}
	.st14{fill-rule:evenodd;clip-rule:evenodd;fill:#8FE3E5;}
	.st15{fill:#FFFFFF;}
	.st16{opacity:0.2;}
	.st17{fill:#E54265;}
	.st18{fill-rule:evenodd;clip-rule:evenodd;fill:#F2A464;}
	.st19{fill:#020202;}
	.st20{fill-rule:evenodd;clip-rule:evenodd;fill:#A69EEF;}
	.st21{fill-rule:evenodd;clip-rule:evenodd;fill:#FFDA00;}
	.st22{fill-rule:evenodd;clip-rule:evenodd;fill:none;stroke:#020202;stroke-width:2;stroke-miterlimit:10;}
	.st23{fill-rule:evenodd;clip-rule:evenodd;fill:#FF8B00;}
	.st24{fill:#30C630;}
	.st25{fill-rule:evenodd;clip-rule:evenodd;fill:#F784A2;}
	.st26{fill:#22A822;}
	.st27{fill:#2D8C2D;}
	.st28{opacity:0.5;fill-rule:evenodd;clip-rule:evenodd;fill:#8FB8E2;}
</style>
<g>
	<path d="M23.7,40.4c-1.9,0-3.2-1.7-3.3-1.8c-0.2-0.3-0.1-0.6,0.1-0.8c0.3-0.2,0.6-0.1,0.8,0.1c0,0,1,1.4,2.4,1.3
		c0.7,0,1-0.2,1.3-0.5c0.4-0.3,0.9-0.6,1.8-0.6c0.9,0,1.5,0.4,2,0.7c0.4,0.2,0.7,0.4,1.1,0.4c0.7,0,1.7-1,2-1.4
		c0.2-0.3,0.6-0.3,0.8-0.1c0.3,0.2,0.3,0.6,0.1,0.8c-0.2,0.2-1.5,1.7-2.9,1.8c-0.7,0-1.3-0.3-1.8-0.6c-0.4-0.3-0.9-0.5-1.4-0.5
		c-0.6,0-0.8,0.1-1.1,0.4c-0.4,0.3-0.9,0.6-1.9,0.7C23.8,40.4,23.7,40.4,23.7,40.4z"/>
</g>
<g class="st2">
	<g>
		<path class="st3" d="M44.3,35.6c-0.2-1.6-1.7-2.8-3.4-2.6c-1.7,0.2-2.9,1.7-2.7,3.3c0.2,1.6,1.7,2.8,3.4,2.6
			C43.3,38.7,44.5,37.2,44.3,35.6z M9,32.8c-1.7,0.2-3,1.7-2.8,3.4c0.2,1.7,1.7,2.9,3.5,2.7c1.7-0.2,3-1.7,2.8-3.4
			C12.2,33.9,10.7,32.7,9,32.8z"/>
	</g>
</g>
<path d="M25.2,21.5c0-2.9-2.4-5.3-5.3-5.3c-2.1,0-3.8,1.2-4.7,2.9c-0.9-1.7-2.6-2.9-4.7-2.9c-2.9,0-5.3,2.4-5.3,5.3
	c0,5.5,8.9,11.6,10,11.6C16.4,33,25.2,27,25.2,21.5z"/>
<path d="M46.8,21.5c0-2.9-2.4-5.3-5.3-5.3c-2.1,0-3.8,1.2-4.7,2.9c-0.9-1.7-2.6-2.9-4.7-2.9c-2.9,0-5.3,2.4-5.3,5.3
	c0,5.5,8.9,11.6,10,11.6C38,33,46.8,27,46.8,21.5z"/>
<g>
	<g>
		<path class="st6" d="M45.3,20.6c-0.1-0.5-0.4-1.4-1.4-1.2c-0.6,0.1-0.9,0.6-0.7,1.5c0.2,1.1,0.3,1.4,0.9,1.8
			C45,23.2,45.6,21.9,45.3,20.6z M40.7,26.3c-1.4,1.5-1.8,2.1-1.2,2.6c0.7,0.6,1.4-0.2,2.4-1.5c1.2-1.5,2.4-2.9,1.6-3.5
			C42.2,22.9,42.2,24.7,40.7,26.3z"/>
	</g>
</g>
<g>
	<g>
		<path class="st6" d="M23.3,20.6c-0.1-0.5-0.4-1.4-1.4-1.2c-0.6,0.1-0.9,0.6-0.7,1.5c0.2,1.1,0.3,1.4,0.9,1.8
			C23.1,23.2,23.6,21.9,23.3,20.6z M18.7,26.3c-1.4,1.5-1.8,2.1-1.2,2.6c0.7,0.6,1.4-0.2,2.4-1.5c1.2-1.5,2.4-2.9,1.6-3.5
			C20.2,22.9,20.2,24.7,18.7,26.3z"/>
	</g>
</g>
</svg>
