<?xml version="1.0" encoding="utf-8"?>
<!-- Generator: Adobe Illustrator 19.2.1, SVG Export Plug-In . SVG Version: 6.00 Build 0)  -->
<svg version="1.1" id="Layer_1" xmlns="http://www.w3.org/2000/svg" xmlns:xlink="http://www.w3.org/1999/xlink" x="0px" y="0px"
	 viewBox="0 0 52 52" style="enable-background:new 0 0 52 52;" xml:space="preserve">
<style type="text/css">
	.st0{fill-rule:evenodd;clip-rule:evenodd;fill:#FFF200;}
	.st1{fill:#191919;}
	.st2{opacity:0.59;}
	.st3{fill-rule:evenodd;clip-rule:evenodd;fill:#E7A96B;}
	.st4{fill-rule:evenodd;clip-rule:evenodd;}
	.st5{fill-rule:evenodd;clip-rule:evenodd;fill:#E7A442;}
	.st6{fill-rule:evenodd;clip-rule:evenodd;fill:#FFFFFF;}
	.st7{fill:none;}
	.st8{fill:#231F20;}
	.st9{fill:none;stroke:#231F20;stroke-width:1.5;stroke-linecap:round;stroke-linejoin:round;stroke-miterlimit:10;}
	.st10{fill-rule:evenodd;clip-rule:evenodd;fill:none;stroke:#000000;stroke-width:2;stroke-miterlimit:10;}
	.st11{opacity:0.2;fill-rule:evenodd;clip-rule:evenodd;}
	.st12{fill-rule:evenodd;clip-rule:evenodd;fill:#FFFFFF;stroke:#020202;stroke-width:0.5;stroke-miterlimit:10;}
	
		.st13{fill-rule:evenodd;clip-rule:evenodd;fill:none;stroke:#000000;stroke-width:2;stroke-linecap:round;stroke-linejoin:round;stroke-miterlimit:10;}
	.st14{fill-rule:evenodd;clip-rule:evenodd;fill:#8FE3E5;}
	.st15{fill:#FFFFFF;}
	.st16{opacity:0.2;}
	.st17{fill:#E54265;}
	.st18{fill-rule:evenodd;clip-rule:evenodd;fill:#F2A464;}
	.st19{fill:#020202;}
	.st20{fill-rule:evenodd;clip-rule:evenodd;fill:#A69EEF;}
	.st21{fill-rule:evenodd;clip-rule:evenodd;fill:#FFDA00;}
	.st22{fill-rule:evenodd;clip-rule:evenodd;fill:none;stroke:#020202;stroke-width:2;stroke-miterlimit:10;}
	.st23{fill-rule:evenodd;clip-rule:evenodd;fill:#FF8B00;}
	.st24{fill:#30C630;}
	.st25{fill-rule:evenodd;clip-rule:evenodd;fill:#F784A2;}
	.st26{fill:#22A822;}
	.st27{fill:#2D8C2D;}
	.st28{opacity:0.5;fill-rule:evenodd;clip-rule:evenodd;fill:#8FB8E2;}
</style>
<ellipse transform="matrix(0.9292 -0.3696 0.3696 0.9292 -6.5729 6.7189)" class="st4" cx="14.2" cy="20.5" rx="1.5" ry="1.5"/>
<path d="M30,38.5c0.8-0.4,1.5-1.3,2-2.2c0-0.1,0.1-0.3-0.1-0.4c-0.1-0.1-0.3,0-0.4,0.1c-0.4,0.4-1.1,1.4-1.7,1.8
	c-0.9,0.5-1.6,0.4-2.5,0.2c-0.2,0-0.3,0.1-0.4,0.3c0,0.2,0.2,0.3,0.3,0.3C28.2,38.9,29.2,38.9,30,38.5z"/>
<path class="st11" d="M8.1,26.5c1.6-0.6,4.1-1.3,7.4-1.5c3-0.2,5.4,0.3,7.2,0.8c1.6-1.8,2.5-4.1,2.5-6.7C25.2,13.5,20.6,9,15,9
	S4.9,13.5,4.9,19.2C4.9,22.1,6.1,24.7,8.1,26.5z"/>
<path class="st6" d="M15.5,25.5c3.7-0.2,6.6,0.6,8.3,1.1c1.2-1.6,1.9-3.6,1.9-5.8c0-5.5-4.5-10-10.1-10c-5.6,0-10.1,4.5-10.1,10
	c0,2.4,0.9,4.6,2.3,6.3C9.3,26.5,11.9,25.6,15.5,25.5z"/>
<path class="st11" d="M36.2,25.8c2.8,0.3,5,1,6.7,1.7c2.6-1.8,4.3-4.9,4.3-8.3C47.2,13.5,42.6,9,37,9s-10.1,4.5-10.1,10.1
	c0,2.6,1,5,2.6,6.8C31.2,25.6,33.4,25.5,36.2,25.8z"/>
<path class="st17" d="M13.3,25.7c0.7-0.1,1.4-0.2,2.2-0.2c0.8,0,1.6,0,2.4,0l3.8-3.8c1.6-1.6,1.6-4.3,0-6c-1.6-1.6-4.3-1.6-6,0
	l-0.2,0.2l-0.3-0.2c-1.6-1.6-4.4-1.6-6,0c-1.6,1.6-1.6,4.3,0,6L13.3,25.7z"/>
<path class="st6" d="M36.2,25.8c3.7,0.4,6.4,1.5,8.1,2.3c2.3-1.8,3.9-4.6,3.9-7.8c0-5.5-4.5-10-10.1-10c-5.6,0-10.1,4.5-10.1,10
	c0,2.1,0.7,4,1.8,5.6C31.3,25.6,33.5,25.5,36.2,25.8z"/>
<circle class="st6" cx="19.4" cy="17.9" r="1.8"/>
<path class="st17" d="M35.9,25.7c0.1,0,0.2,0,0.3,0c1.2,0.1,2.4,0.3,3.4,0.6l4.7-4.7c1.6-1.6,1.6-4.3,0-6c-1.6-1.6-4.3-1.6-6,0
	l-0.2,0.2l-0.3-0.2c-1.6-1.6-4.4-1.6-6,0c-1.6,1.6-1.6,4.3,0,6L35.9,25.7z"/>
<circle class="st6" cx="42" cy="17.9" r="1.8"/>
<path class="st16" d="M16.3,25.4c2.8-0.1,5.3,0.4,7.9,1.2c0.5,0.1,0.3,0.5-0.1,0.4c-2.2-0.2-5.3-0.6-7.7-0.5
	c-3.2,0.1-6.1,0.8-8.9,1.8c-0.3,0.1-0.8,0-0.9-0.4c-0.1-0.3,0.1-0.6,0.4-0.7C9.8,26.2,13,25.5,16.3,25.4z"/>
<path class="st19" d="M8,26.9c-1.4-1.7-2.3-3.8-2.3-6.2c0-5.3,4.4-9.7,9.9-9.7s9.9,4.4,9.9,9.7c0,2.1-0.7,4.1-1.9,5.7
	c0.2,0.1,0.4,0.1,0.5,0.1c1.2-1.7,1.9-3.7,1.9-5.8c0-5.6-4.7-10.2-10.4-10.2S5.2,15.1,5.2,20.7c0,2.4,0.9,4.6,2.3,6.4
	C7.6,27.1,7.8,27,8,26.9z"/>
<path class="st19" d="M29.9,25.8c-1.1-1.6-1.8-3.5-1.8-5.6c0-5.3,4.4-9.7,9.9-9.7s9.9,4.4,9.9,9.7c0,3.1-1.5,5.9-3.9,7.7
	c0.2,0.1,0.4,0.2,0.5,0.2c2.3-1.9,3.9-4.7,3.9-7.9c0-5.6-4.7-10.2-10.4-10.2s-10.4,4.6-10.4,10.2c0,2.1,0.6,4,1.8,5.7
	C29.5,25.9,29.7,25.9,29.9,25.8z"/>
<path class="st16" d="M37.4,25.9c2.8,0.4,5.4,1.4,7.8,2.6c0.1,0.1,0.1,0.5-0.4,0.3c-2.1-0.6-5-1.5-7.5-1.9c-3.1-0.5-6.2-0.3-9.1,0.3
	c-0.3,0.1-0.8-0.1-0.8-0.5c0-0.3,0.2-0.5,0.5-0.6C30.9,25.5,34.1,25.4,37.4,25.9z"/>
</svg>
