<?xml version="1.0" encoding="utf-8"?>
<!-- Generator: Adobe Illustrator 19.2.1, SVG Export Plug-In . SVG Version: 6.00 Build 0)  -->
<svg version="1.1" id="Layer_1" xmlns="http://www.w3.org/2000/svg" xmlns:xlink="http://www.w3.org/1999/xlink" x="0px" y="0px"
	 viewBox="0 0 52 52" style="enable-background:new 0 0 52 52;" xml:space="preserve">
<style type="text/css">
	.st0{fill:#010101;}
	.st1{fill:#FFFFFF;}
</style>
<g>
	<path class="st0" d="M26.1,48.7c8,0.2,7.7-3.9,7.7-14.8c0-4.1,0-7.2-0.1-7.8c-0.1-0.4-3.9-0.9-7.6-0.9c-5.6,0-7.6,0.3-7.7,0.9
		c-0.1,0.8,0,4,0,9C18.4,45.5,19.2,48.5,26.1,48.7z"/>
	<path class="st0" d="M26.7,49.2c-0.2,0-0.4,0-0.6,0c-7.5-0.2-8.2-3.8-8.2-14.1c0-1.5,0-2.9,0-4.1c0-2.7,0-4.3,0.1-5
		c0.1-0.9,1.5-1.4,8.2-1.3c0.1,0,7.8,0,8.1,1.3c0.1,0.4,0.1,1.7,0.1,4.4c0,1,0,2.2,0,3.4l0,1c0,6.6,0,10.6-2.1,12.7
		C31.1,48.7,29.4,49.2,26.7,49.2z M18.9,26.3c-0.1,0.6-0.1,2.3,0,4.7c0,1.2,0,2.6,0,4.1c0,10.3,0.7,12.9,7.2,13.1l0,0
		c2.7,0.1,4.3-0.3,5.4-1.3c1.8-1.8,1.8-5.6,1.8-11.9l0-1c0-1.3,0-2.4,0-3.5c0-1.8,0-3.5,0-4c-0.7-0.3-3.7-0.7-7.2-0.7
		C20.5,25.7,19.2,26,18.9,26.3z"/>
</g>
<g>
	<path class="st1" d="M26.4,47.1c-4.2,0.1-5.9-0.7-5.2-3.7c0.8-3.4,3-3.6,4.3-3.7c2.4-0.2,5.4,0.6,5.7,4.5
		C31.3,46.6,30.1,47,26.4,47.1z"/>
</g>
<g>
	<circle class="st0" cx="9" cy="25.2" r="2.1"/>
</g>
<g>
	<circle class="st0" cx="43.2" cy="25.2" r="2.1"/>
</g>
</svg>
