<?xml version="1.0" encoding="utf-8"?>
<!-- Generator: Adobe Illustrator 19.2.1, SVG Export Plug-In . SVG Version: 6.00 Build 0)  -->
<svg version="1.1" id="Layer_1" xmlns="http://www.w3.org/2000/svg" xmlns:xlink="http://www.w3.org/1999/xlink" x="0px" y="0px"
	 viewBox="0 0 52 52" style="enable-background:new 0 0 52 52;" xml:space="preserve">
<style type="text/css">
	.st0{fill-rule:evenodd;clip-rule:evenodd;fill:#FFF200;}
	.st1{fill:#191919;}
	.st2{opacity:0.59;}
	.st3{fill-rule:evenodd;clip-rule:evenodd;fill:#E7A96B;}
	.st4{fill-rule:evenodd;clip-rule:evenodd;}
	.st5{fill-rule:evenodd;clip-rule:evenodd;fill:#E7A442;}
	.st6{fill-rule:evenodd;clip-rule:evenodd;fill:#FFFFFF;}
	.st7{fill:none;}
	.st8{fill:#231F20;}
	.st9{fill:none;stroke:#231F20;stroke-width:1.5;stroke-linecap:round;stroke-linejoin:round;stroke-miterlimit:10;}
	.st10{fill-rule:evenodd;clip-rule:evenodd;fill:none;stroke:#000000;stroke-width:2;stroke-miterlimit:10;}
	.st11{opacity:0.2;fill-rule:evenodd;clip-rule:evenodd;}
	.st12{fill-rule:evenodd;clip-rule:evenodd;fill:#FFFFFF;stroke:#020202;stroke-width:0.5;stroke-miterlimit:10;}
	
		.st13{fill-rule:evenodd;clip-rule:evenodd;fill:none;stroke:#000000;stroke-width:2;stroke-linecap:round;stroke-linejoin:round;stroke-miterlimit:10;}
	.st14{fill-rule:evenodd;clip-rule:evenodd;fill:#8FE3E5;}
	.st15{fill:#FFFFFF;}
	.st16{opacity:0.2;}
	.st17{fill:#E54265;}
	.st18{fill-rule:evenodd;clip-rule:evenodd;fill:#F2A464;}
	.st19{fill:#020202;}
	.st20{fill-rule:evenodd;clip-rule:evenodd;fill:#A69EEF;}
	.st21{fill-rule:evenodd;clip-rule:evenodd;fill:#FFDA00;}
	.st22{fill-rule:evenodd;clip-rule:evenodd;fill:none;stroke:#020202;stroke-width:2;stroke-miterlimit:10;}
	.st23{fill-rule:evenodd;clip-rule:evenodd;fill:#FF8B00;}
	.st24{fill:#30C630;}
	.st25{fill-rule:evenodd;clip-rule:evenodd;fill:#F784A2;}
	.st26{fill:#22A822;}
	.st27{fill:#2D8C2D;}
	.st28{opacity:0.5;fill-rule:evenodd;clip-rule:evenodd;fill:#8FB8E2;}
</style>
<circle class="st11" cx="15.9" cy="24.9" r="9.3"/>
<circle class="st6" cx="15.9" cy="24.1" r="8.8"/>
<path class="st19" d="M15.9,33.1c-5,0-9-4-9-9s4-9,9-9s9,4,9,9S20.9,33.1,15.9,33.1z M15.9,15.5c-4.7,0-8.5,3.8-8.5,8.5
	s3.8,8.5,8.5,8.5s8.5-3.8,8.5-8.5S20.6,15.5,15.9,15.5z"/>
<ellipse transform="matrix(0.2224 -0.975 0.975 0.2224 -7.4705 33.0983)" class="st4" cx="17" cy="21.2" rx="1.8" ry="1.8"/>
<circle class="st11" cx="35.8" cy="25" r="9.3"/>
<circle class="st6" cx="35.8" cy="24.2" r="8.8"/>
<path class="st19" d="M35.8,33.2c-5,0-9-4-9-9s4-9,9-9s9,4,9,9S40.8,33.2,35.8,33.2z M35.8,15.6c-4.7,0-8.5,3.8-8.5,8.5
	s3.8,8.5,8.5,8.5s8.5-3.8,8.5-8.5S40.5,15.6,35.8,15.6z"/>
<ellipse transform="matrix(0.2224 -0.975 0.975 0.2224 10.4797 55.6038)" class="st4" cx="40.1" cy="21.2" rx="1.8" ry="1.8"/>
<path d="M10.9,9.8c-1,0.7-1.9,1.4-1.9,1.7c0,0.1,0.1,0.5,0.9,0c1-0.6,2.6-1.2,4-1.5c2.2-0.5,3-0.5,4.6,0.2c0.3,0.1,0.6,0,0.8-0.4
	C19.5,9.4,19.1,9.1,19,9c-0.4-0.2-0.9-0.3-1.2-0.5C16.4,8.1,12.8,8.4,10.9,9.8z"/>
<path d="M39.8,9c1.1,0.5,2.1,1,2.2,1.3c0,0.1,0,0.5-0.9,0.2c-1.1-0.4-2.8-0.7-4.2-0.8c-2.3-0.1-3,0.1-4.5,1
	c-0.3,0.2-0.6,0.1-0.8-0.2c-0.2-0.3,0.1-0.7,0.2-0.8c0.4-0.3,0.8-0.5,1.1-0.7C34,8.3,37.7,8,39.8,9z"/>
<g>
	<path d="M28.1,39.4c1.2,0.5,2.2,2.8,1.7,4.4c-0.6,2.1-2.8,3.1-4.6,2.3c-1.7-0.8-2.7-2.7-1.3-5C24.7,39.7,27,38.9,28.1,39.4z"/>
</g>
<path class="st15" d="M25.2,41.3l0-0.7c0.5-0.9,1.3-1,2-1c0.6,0,1.1,0.1,1.6,1l0,1c0,0.4-0.3,0.7-0.6,0.7L25.9,42
	C25.5,42,25.3,41.7,25.2,41.3z"/>
<path class="st16" d="M28,39.6c0.7,0.3,1.2,0.9,1.5,2L29.2,42c-0.2-1-0.9-1.4-1.6-1.7c-0.7-0.3-1.6,0-2.5,0.6l0.3-0.8
	C26.4,39.6,27.3,39.3,28,39.6z"/>
<path class="st17" d="M23.9,44.5c0.3,0.4,0.8,1,1.5,1.3c0.7,0.3,1.4,0.3,1.9,0.2c0.1,0,0.1-1-1.3-1.6C24.5,43.7,23.8,44.4,23.9,44.5
	z"/>
</svg>
