<?xml version="1.0" encoding="utf-8"?>
<!-- Generator: Adobe Illustrator 19.2.1, SVG Export Plug-In . SVG Version: 6.00 Build 0)  -->
<svg version="1.1" id="Layer_1" xmlns="http://www.w3.org/2000/svg" xmlns:xlink="http://www.w3.org/1999/xlink" x="0px" y="0px"
	 viewBox="0 0 52 52" style="enable-background:new 0 0 52 52;" xml:space="preserve">
<style type="text/css">
	.st0{fill-rule:evenodd;clip-rule:evenodd;fill:#FFF200;}
	.st1{fill:#191919;}
	.st2{opacity:0.59;}
	.st3{fill-rule:evenodd;clip-rule:evenodd;fill:#E7A96B;}
	.st4{fill-rule:evenodd;clip-rule:evenodd;}
	.st5{fill-rule:evenodd;clip-rule:evenodd;fill:#E7A442;}
	.st6{fill-rule:evenodd;clip-rule:evenodd;fill:#FFFFFF;}
	.st7{fill:none;}
	.st8{fill:#231F20;}
	.st9{fill:none;stroke:#231F20;stroke-width:1.5;stroke-linecap:round;stroke-linejoin:round;stroke-miterlimit:10;}
	.st10{fill-rule:evenodd;clip-rule:evenodd;fill:none;stroke:#000000;stroke-width:2;stroke-miterlimit:10;}
	.st11{opacity:0.2;fill-rule:evenodd;clip-rule:evenodd;}
	.st12{fill-rule:evenodd;clip-rule:evenodd;fill:#FFFFFF;stroke:#020202;stroke-width:0.5;stroke-miterlimit:10;}
	
		.st13{fill-rule:evenodd;clip-rule:evenodd;fill:none;stroke:#000000;stroke-width:2;stroke-linecap:round;stroke-linejoin:round;stroke-miterlimit:10;}
	.st14{fill-rule:evenodd;clip-rule:evenodd;fill:#8FE3E5;}
	.st15{fill:#FFFFFF;}
	.st16{opacity:0.2;}
	.st17{fill:#E54265;}
	.st18{fill-rule:evenodd;clip-rule:evenodd;fill:#F2A464;}
	.st19{fill:#020202;}
	.st20{fill-rule:evenodd;clip-rule:evenodd;fill:#A69EEF;}
	.st21{fill-rule:evenodd;clip-rule:evenodd;fill:#FFDA00;}
	.st22{fill-rule:evenodd;clip-rule:evenodd;fill:none;stroke:#020202;stroke-width:2;stroke-miterlimit:10;}
	.st23{fill-rule:evenodd;clip-rule:evenodd;fill:#FF8B00;}
	.st24{fill:#30C630;}
	.st25{fill-rule:evenodd;clip-rule:evenodd;fill:#F784A2;}
	.st26{fill:#22A822;}
	.st27{fill:#2D8C2D;}
	.st28{opacity:0.5;fill-rule:evenodd;clip-rule:evenodd;fill:#8FB8E2;}
</style>
<g>
	<g>
		<path class="st4" d="M14.9,17.4c0,0,1.4-0.1,3.2,0.1c2,0.2,3.7,0.5,3.9,0.5c0,0,0,0,0,0s0,0,0,0c0,0,0,0,0,0s0,0,0,0
			c0,0,0,0-0.1-0.1c0.1,0.1,0.1,0.1,0.1,0.1s-1.7-3.2-2.2-3.7c-2-1.8-5.1-3.3-5.8-3.2c-0.8,0.1,2.9,2.2,2.9,2.2s0.8,0.6,2.1,1.7
			c-2.1-1.3-5.9-1.2-6.6-0.9c-0.7,0.3,2.9,1.3,2.9,1.3s0.7,0.2,1.6,0.5c-2.2-0.2-4.7,0.8-5.1,1.2C11.2,17.5,14.9,17.4,14.9,17.4z
			 M31.7,18C31.7,18,31.7,18,31.7,18c0.2,0,2-0.3,4-0.5c1.8-0.2,3.2-0.1,3.2-0.1s3.7,0.1,3.1-0.4c-0.5-0.4-3-1.4-5.1-1.2
			c1-0.3,1.6-0.5,1.6-0.5s3.6-0.9,2.9-1.3c-0.6-0.3-4.5-0.5-6.6,0.9c1.3-1.1,2.1-1.7,2.1-1.7s3.7-2.1,2.9-2.2
			c-0.8,0-3.9,1.5-5.8,3.2C33.4,14.8,31.7,18,31.7,18c0,0,0,0,0.1-0.1C31.8,17.9,31.7,18,31.7,18C31.7,18,31.7,18,31.7,18
			C31.7,18,31.7,18,31.7,18L31.7,18z M27.6,27.1C7.3,26.8,8.8,21.8,8.4,33.4c-0.3,7.3,6.7,13.2,16.8,13.1c10.1,0,19.1-5.9,19.9-13.2
			C46.2,22.1,45,27.4,27.6,27.1z"/>
	</g>
</g>
<g class="st2">
	<g>
		<path class="st3" d="M39.4,20.5c-2-0.3-3.7,0.4-3.8,1.5c-0.1,1.1,1.3,2.2,3.3,2.4c2,0.3,3.7-0.4,3.8-1.5
			C42.9,21.9,41.4,20.8,39.4,20.5z M13.3,19.9c-2.1,0-3.9,0.9-3.8,2c0,1.1,1.8,2,4,1.9c2.2,0,3.9-0.9,3.8-2
			C17.2,20.8,15.4,19.9,13.3,19.9z"/>
	</g>
</g>
<path class="st5" d="M27.6,37.1c-6-0.4-11.7,1.1-12.6,3.2c-1,2.1,3.1,4.1,9.1,4.5c6,0.4,11.7-1.1,12.6-3.2
	C37.7,39.5,33.6,37.5,27.6,37.1z"/>
</svg>
