<?xml version="1.0" encoding="utf-8"?>
<!-- Generator: Adobe Illustrator 19.2.1, SVG Export Plug-In . SVG Version: 6.00 Build 0)  -->
<svg version="1.1" id="Layer_1" xmlns="http://www.w3.org/2000/svg" xmlns:xlink="http://www.w3.org/1999/xlink" x="0px" y="0px"
	 viewBox="0 0 52 52" style="enable-background:new 0 0 52 52;" xml:space="preserve">
<style type="text/css">
	.st0{fill-rule:evenodd;clip-rule:evenodd;fill:#FFF200;}
	.st1{fill:#191919;}
	.st2{opacity:0.59;}
	.st3{fill-rule:evenodd;clip-rule:evenodd;fill:#E7A96B;}
	.st4{fill-rule:evenodd;clip-rule:evenodd;}
	.st5{fill-rule:evenodd;clip-rule:evenodd;fill:#E7A442;}
	.st6{fill-rule:evenodd;clip-rule:evenodd;fill:#FFFFFF;}
	.st7{fill:none;}
	.st8{fill:#231F20;}
	.st9{fill:none;stroke:#231F20;stroke-width:1.5;stroke-linecap:round;stroke-linejoin:round;stroke-miterlimit:10;}
	.st10{fill-rule:evenodd;clip-rule:evenodd;fill:none;stroke:#000000;stroke-width:2;stroke-miterlimit:10;}
	.st11{opacity:0.2;fill-rule:evenodd;clip-rule:evenodd;}
	.st12{fill-rule:evenodd;clip-rule:evenodd;fill:#FFFFFF;stroke:#020202;stroke-width:0.5;stroke-miterlimit:10;}
	
		.st13{fill-rule:evenodd;clip-rule:evenodd;fill:none;stroke:#000000;stroke-width:2;stroke-linecap:round;stroke-linejoin:round;stroke-miterlimit:10;}
	.st14{fill-rule:evenodd;clip-rule:evenodd;fill:#8FE3E5;}
	.st15{fill:#FFFFFF;}
	.st16{opacity:0.2;}
	.st17{fill:#E54265;}
	.st18{fill-rule:evenodd;clip-rule:evenodd;fill:#F2A464;}
	.st19{fill:#020202;}
	.st20{fill-rule:evenodd;clip-rule:evenodd;fill:#A69EEF;}
	.st21{fill-rule:evenodd;clip-rule:evenodd;fill:#FFDA00;}
	.st22{fill-rule:evenodd;clip-rule:evenodd;fill:none;stroke:#020202;stroke-width:2;stroke-miterlimit:10;}
	.st23{fill-rule:evenodd;clip-rule:evenodd;fill:#FF8B00;}
	.st24{fill:#30C630;}
	.st25{fill-rule:evenodd;clip-rule:evenodd;fill:#F784A2;}
	.st26{fill:#22A822;}
	.st27{fill:#2D8C2D;}
	.st28{opacity:0.5;fill-rule:evenodd;clip-rule:evenodd;fill:#8FB8E2;}
</style>
<path d="M43.9,23.1c-5.7,1.6-12,2.1-18.8,2.1c-6.2,0-11-1.2-15.7-2.5c-1.8-0.5-6.6-1-4,6.3C7.3,34.6,12.4,45,25.8,45
	c12.8,0,19-9.5,20.6-15.6C48.2,23,45.1,22.8,43.9,23.1z"/>
<path class="st17" d="M34.6,42.6c-2,1-5.4,2-9,2c-3.7,0-7-1-9-2.1c-0.5-0.2,1.6-5.1,9-5.1C33.2,37.4,35.1,42.4,34.6,42.6z"/>
<path class="st15" d="M19.2,26.3L19,29.4c-0.1,0.9,0.6,1.6,1.5,1.7l3,0.2c0.9,0.1,1.6-0.6,1.7-1.5l0.2-2.9c0-0.3-0.2-0.6-0.5-0.6
	c-1.3-0.1-3.4-0.3-5.1-0.4C19.4,25.8,19.2,26,19.2,26.3z"/>
<path class="st15" d="M33.1,26.4l0.2,3c0.1,0.9-0.6,1.6-1.5,1.7l-3,0.2c-0.9,0.1-1.6-0.6-1.7-1.5l-0.2-2.9c0-0.3,0.2-0.6,0.5-0.6
	c1.3-0.1,3.3-0.3,5-0.5C32.7,25.8,33,26,33.1,26.4z"/>
<path class="st16" d="M26.2,27.8c-4.1,0-10.2,0.2-11.2-2.3c-0.2-0.5,1.4-0.8,4.2-0.5c2.1,0.3,4.5,0.2,6.6,0.2c5.9,0,13.3,0,15.2-1.4
	c0.2-0.1,0.4-0.4,0.6-0.2c0.1,0.2,0.1,0.4-0.1,0.6C39.6,25.7,33.8,27.8,26.2,27.8z"/>
<path d="M11.6,14.8c-1,0.8-1.8,1.5-1.8,1.8c0,0.1,0.1,0.5,0.9,0c1-0.6,2.6-1.3,3.9-1.7c2.2-0.5,3-0.6,4.6,0c0.3,0.1,0.6,0,0.8-0.4
	c0.1-0.4-0.2-0.6-0.4-0.7c-0.5-0.2-0.9-0.3-1.3-0.4C17,12.9,13.4,13.4,11.6,14.8z"/>
<path d="M39.8,14.8c1,0.8,1.8,1.5,1.8,1.8c0,0.1-0.1,0.5-0.9,0c-1-0.6-2.6-1.3-3.9-1.7c-2.2-0.5-3-0.6-4.6,0c-0.3,0.1-0.6,0-0.8-0.4
	c-0.1-0.4,0.2-0.6,0.4-0.7c0.5-0.2,0.9-0.3,1.3-0.4C34.4,12.9,38,13.4,39.8,14.8z"/>
</svg>
