<?xml version="1.0" encoding="utf-8"?>
<!-- Generator: Adobe Illustrator 19.2.1, SVG Export Plug-In . SVG Version: 6.00 Build 0)  -->
<svg version="1.1" id="Layer_1" xmlns="http://www.w3.org/2000/svg" xmlns:xlink="http://www.w3.org/1999/xlink" x="0px" y="0px"
	 viewBox="0 0 52 52" style="enable-background:new 0 0 52 52;" xml:space="preserve">
<style type="text/css">
	.st0{fill:#010101;}
</style>
<g>
	<path class="st0" d="M18.8,26.1H8.3c-0.4,0-0.8-0.3-0.8-0.8s0.3-0.8,0.8-0.8h10.5c0.4,0,0.8,0.3,0.8,0.8S19.2,26.1,18.8,26.1z"/>
</g>
<g>
	<path class="st0" d="M42.4,26.1H31.9c-0.4,0-0.8-0.3-0.8-0.8s0.3-0.8,0.8-0.8h10.5c0.4,0,0.8,0.3,0.8,0.8S42.8,26.1,42.4,26.1z"/>
</g>
<g>
	<path class="st0" d="M18.2,42.7c-0.2,0-0.4-0.1-0.5-0.3c-0.3-0.3-0.2-0.8,0.1-1.1l5.8-4.7c1.3-1,3.4-1.1,4.7-0.1l5.9,4.5
		c0.3,0.2,0.4,0.7,0.1,1.1c-0.2,0.3-0.7,0.4-1.1,0.1l-5.9-4.5c-0.8-0.6-2.1-0.6-2.9,0l-5.8,4.7C18.6,42.7,18.4,42.7,18.2,42.7z"/>
</g>
<g>
	<path class="st0" d="M15.5,24.6c-0.1,0.4-0.2,0.8-0.2,1.2c0,1.6,1,2.8,2.3,2.8s2.3-1.3,2.3-2.8c0-0.4-0.1-0.9-0.2-1.2H15.5z"/>
</g>
<g>
	<path class="st0" d="M38.9,24.6c-0.1,0.4-0.2,0.8-0.2,1.2c0,1.6,1,2.8,2.3,2.8c1.3,0,2.3-1.3,2.3-2.8c0-0.4-0.1-0.9-0.2-1.2H38.9z"
		/>
</g>
</svg>
