<?xml version="1.0" encoding="utf-8"?>
<!-- Generator: Adobe Illustrator 19.2.1, SVG Export Plug-In . SVG Version: 6.00 Build 0)  -->
<svg version="1.1" id="Layer_1" xmlns="http://www.w3.org/2000/svg" xmlns:xlink="http://www.w3.org/1999/xlink" x="0px" y="0px"
	 viewBox="0 0 52 52" style="enable-background:new 0 0 52 52;" xml:space="preserve">
<style type="text/css">
	.st0{fill-rule:evenodd;clip-rule:evenodd;fill:#FFF200;}
	.st1{fill:#191919;}
	.st2{opacity:0.59;}
	.st3{fill-rule:evenodd;clip-rule:evenodd;fill:#E7A96B;}
	.st4{fill-rule:evenodd;clip-rule:evenodd;}
	.st5{fill-rule:evenodd;clip-rule:evenodd;fill:#E7A442;}
	.st6{fill-rule:evenodd;clip-rule:evenodd;fill:#FFFFFF;}
	.st7{fill:none;}
	.st8{fill:#231F20;}
	.st9{fill:none;stroke:#231F20;stroke-width:1.5;stroke-linecap:round;stroke-linejoin:round;stroke-miterlimit:10;}
	.st10{fill-rule:evenodd;clip-rule:evenodd;fill:none;stroke:#000000;stroke-width:2;stroke-miterlimit:10;}
	.st11{opacity:0.2;fill-rule:evenodd;clip-rule:evenodd;}
	.st12{fill-rule:evenodd;clip-rule:evenodd;fill:#FFFFFF;stroke:#020202;stroke-width:0.5;stroke-miterlimit:10;}
	
		.st13{fill-rule:evenodd;clip-rule:evenodd;fill:none;stroke:#000000;stroke-width:2;stroke-linecap:round;stroke-linejoin:round;stroke-miterlimit:10;}
	.st14{fill-rule:evenodd;clip-rule:evenodd;fill:#8FE3E5;}
	.st15{fill:#FFFFFF;}
	.st16{opacity:0.2;}
	.st17{fill:#E54265;}
	.st18{fill-rule:evenodd;clip-rule:evenodd;fill:#F2A464;}
	.st19{fill:#020202;}
	.st20{fill-rule:evenodd;clip-rule:evenodd;fill:#A69EEF;}
	.st21{fill-rule:evenodd;clip-rule:evenodd;fill:#FFDA00;}
	.st22{fill-rule:evenodd;clip-rule:evenodd;fill:none;stroke:#020202;stroke-width:2;stroke-miterlimit:10;}
	.st23{fill-rule:evenodd;clip-rule:evenodd;fill:#FF8B00;}
	.st24{fill:#30C630;}
	.st25{fill-rule:evenodd;clip-rule:evenodd;fill:#F784A2;}
	.st26{fill:#22A822;}
	.st27{fill:#2D8C2D;}
	.st28{opacity:0.5;fill-rule:evenodd;clip-rule:evenodd;fill:#8FB8E2;}
</style>
<g class="st2">
	<g>
		<path class="st3" d="M41.3,34.5c-1.7,0-3.1,1.3-3.1,3s1.4,3,3.1,3c1.7,0,3.1-1.3,3.1-3S43,34.5,41.3,34.5z M10.2,34.3
			c-1.7,0-3.1,1.4-3.1,3.1c0,1.7,1.4,3.1,3.1,3.1c1.7,0,3.1-1.4,3.1-3.1C13.3,35.7,11.9,34.3,10.2,34.3z"/>
	</g>
</g>
<path class="st5" d="M25.8,37.4c-3.4,0-6.3,2.3-6.3,3.6c0.1,1.5,2.8-0.6,5.9-0.7c3.5-0.2,6.3,2.2,6.4,0.7
	C31.9,39,28.9,37.4,25.8,37.4z"/>
<g>
	<g>
		<path class="st4" d="M25.6,26c-5.1,0-9.1,7.9-9.3,14.2c-0.2,8.9,2.3,3.6,9.6,4.1c8.8,0.6,8.9,5.1,9-4C35.1,34,31.3,26,25.6,26z"/>
	</g>
</g>
<path class="st5" d="M25.8,39.7c-3.4,0-6.3,2.3-6.3,3.6c0.1,1.5,2.4-0.3,6-0.3c4.3,0,6.2,1.8,6.3,0.3C31.9,41.3,28.9,39.7,25.8,39.7
	z"/>
<g>
	<g>
		<path class="st4" d="M12.2,22.1c-1.5-0.6-3,0.1-3.5,1.5c-0.5,1.4,0.3,3,1.7,3.5c1.5,0.6,3-0.1,3.5-1.5
			C14.4,24.2,13.7,22.6,12.2,22.1z"/>
	</g>
</g>
<g>
	<g>
		<path class="st4" d="M40.8,22.1c-1.5-0.6-3,0.1-3.5,1.5c-0.5,1.4,0.3,3,1.7,3.5c1.5,0.6,3-0.1,3.5-1.5
			C43,24.2,42.2,22.6,40.8,22.1z"/>
	</g>
</g>
</svg>
