<?xml version="1.0" encoding="utf-8"?>
<!-- Generator: Adobe Illustrator 19.2.1, SVG Export Plug-In . SVG Version: 6.00 Build 0)  -->
<svg version="1.1" id="Layer_1" xmlns="http://www.w3.org/2000/svg" xmlns:xlink="http://www.w3.org/1999/xlink" x="0px" y="0px"
	 viewBox="0 0 52 52" style="enable-background:new 0 0 52 52;" xml:space="preserve">
<style type="text/css">
	.st0{fill-rule:evenodd;clip-rule:evenodd;fill:#FFF200;}
	.st1{fill:#191919;}
	.st2{opacity:0.59;}
	.st3{fill-rule:evenodd;clip-rule:evenodd;fill:#E7A96B;}
	.st4{fill-rule:evenodd;clip-rule:evenodd;}
	.st5{fill-rule:evenodd;clip-rule:evenodd;fill:#E7A442;}
	.st6{fill-rule:evenodd;clip-rule:evenodd;fill:#FFFFFF;}
	.st7{fill:none;}
	.st8{fill:#231F20;}
	.st9{fill:none;stroke:#231F20;stroke-width:1.5;stroke-linecap:round;stroke-linejoin:round;stroke-miterlimit:10;}
	.st10{fill-rule:evenodd;clip-rule:evenodd;fill:none;stroke:#000000;stroke-width:2;stroke-miterlimit:10;}
	.st11{opacity:0.2;fill-rule:evenodd;clip-rule:evenodd;}
	.st12{fill-rule:evenodd;clip-rule:evenodd;fill:#FFFFFF;stroke:#020202;stroke-width:0.5;stroke-miterlimit:10;}
	
		.st13{fill-rule:evenodd;clip-rule:evenodd;fill:none;stroke:#000000;stroke-width:2;stroke-linecap:round;stroke-linejoin:round;stroke-miterlimit:10;}
	.st14{fill-rule:evenodd;clip-rule:evenodd;fill:#8FE3E5;}
	.st15{fill:#FFFFFF;}
	.st16{opacity:0.2;}
	.st17{fill:#E54265;}
	.st18{fill-rule:evenodd;clip-rule:evenodd;fill:#F2A464;}
	.st19{fill:#020202;}
	.st20{fill-rule:evenodd;clip-rule:evenodd;fill:#A69EEF;}
	.st21{fill-rule:evenodd;clip-rule:evenodd;fill:#FFDA00;}
	.st22{fill-rule:evenodd;clip-rule:evenodd;fill:none;stroke:#020202;stroke-width:2;stroke-miterlimit:10;}
	.st23{fill-rule:evenodd;clip-rule:evenodd;fill:#FF8B00;}
	.st24{fill:#30C630;}
	.st25{fill-rule:evenodd;clip-rule:evenodd;fill:#F784A2;}
	.st26{fill:#22A822;}
	.st27{fill:#2D8C2D;}
	.st28{opacity:0.5;fill-rule:evenodd;clip-rule:evenodd;fill:#8FB8E2;}
</style>
<g class="st2">
	<g>
		<ellipse class="st3" cx="12.6" cy="24" rx="5.4" ry="5.3"/>
	</g>
</g>
<g class="st2">
	<g>
		<ellipse class="st3" cx="39.6" cy="24" rx="5.4" ry="5.3"/>
	</g>
</g>
<path class="st5" d="M25.9,37.5c-3.4,0-6.3,2.3-6.3,3.6c0.1,1.5,2.8-0.6,5.9-0.7c3.5-0.2,6.3,2.2,6.4,0.7C32,39.2,29,37.6,25.9,37.5
	z"/>
<g>
	<g>
		<path class="st4" d="M26,20.3c-7.5,0-13.2,8.7-13.4,15.6c-0.3,9.8,3.4,3.9,13.9,4.4c12.7,0.7,12.8,5.6,13-4.4
			C39.6,29,34.2,20.3,26,20.3z"/>
	</g>
</g>
<g>
	<path class="st27" d="M38.8,40c-0.2-1.9-0.8-3.7-1.4-4.9c-0.9-1.9-2.2-3.5-3.6-5c-2-2.1-4.5-3.6-7.3-3.7c-2.2-0.1-4.4,0.8-6.3,2.1
		c-2.3,1.6-4.3,4.2-5,7.3c-0.4,1.6-0.3,3.4,0.5,4.8c0.4,0.6,0.8,1,1.4,1.4c0.3,0.2,0.6,0.4,0.8,0.6c0.5,0.6,0.5,1.6,0.6,2.5
		c0.2,1.2,1,2.2,2,2.7c1,0.5,2.2,0.4,3.1-0.3c0.7-0.5,1.2-0.8,2-0.1c0.3,0.3,0.6,0.7,1,0.9c0.5,0.3,1.2,0.3,1.7,0
		c1.6-1.1,0.9-3.8,2-5.3c0.1-0.2,0.3-0.4,0.5-0.4c0.3-0.1,0.6,0,0.9,0.2c0.7,0.5,0.8,1.5,1.3,2.3c0.6,1,1.8,1.4,2.8,1.4
		c0.7,0,1.5-0.3,2-0.9C38.9,44.2,39,42.1,38.8,40z"/>
</g>
<g>
	<g>
		<path class="st4" d="M18.3,15.3c-2.8-2.1-6.4-1.8-9.5-0.5c-0.2,0.1-0.3,0.2-0.3,0.4c0,0.1,0.1,0.1,0.2,0.1c0.7,0.1,1.6,0,2.3,0
			c0.8,0,1.7,0,2.5,0c1.4,0.1,2.8,0.3,4.3,0.4C18.2,15.7,18.8,15.6,18.3,15.3z"/>
	</g>
</g>
<g>
	<g>
		<path class="st4" d="M42.3,14.8c-3.1-1.3-6.7-1.6-9.5,0.5c-0.4,0.3,0.2,0.4,0.4,0.4c1.4-0.1,2.8-0.3,4.3-0.4c0.8-0.1,1.7,0,2.5,0
			c0.7,0,1.6,0.2,2.3,0c0.1,0,0.2,0,0.2-0.1C42.6,15,42.5,14.9,42.3,14.8z"/>
	</g>
</g>
</svg>
