<?xml version="1.0" encoding="utf-8"?>
<!-- Generator: Adobe Illustrator 19.2.1, SVG Export Plug-In . SVG Version: 6.00 Build 0)  -->
<svg version="1.1" id="Layer_1" xmlns="http://www.w3.org/2000/svg" xmlns:xlink="http://www.w3.org/1999/xlink" x="0px" y="0px"
	 viewBox="0 0 52 52" style="enable-background:new 0 0 52 52;" xml:space="preserve">
<style type="text/css">
	.st0{fill-rule:evenodd;clip-rule:evenodd;fill:#FFF200;}
	.st1{fill:#191919;}
	.st2{opacity:0.59;}
	.st3{fill-rule:evenodd;clip-rule:evenodd;fill:#E7A96B;}
	.st4{fill-rule:evenodd;clip-rule:evenodd;}
	.st5{fill-rule:evenodd;clip-rule:evenodd;fill:#E7A442;}
	.st6{fill-rule:evenodd;clip-rule:evenodd;fill:#FFFFFF;}
	.st7{fill:none;}
	.st8{fill:#231F20;}
	.st9{fill:none;stroke:#231F20;stroke-width:1.5;stroke-linecap:round;stroke-linejoin:round;stroke-miterlimit:10;}
	.st10{fill-rule:evenodd;clip-rule:evenodd;fill:none;stroke:#000000;stroke-width:2;stroke-miterlimit:10;}
	.st11{opacity:0.2;fill-rule:evenodd;clip-rule:evenodd;}
	.st12{fill-rule:evenodd;clip-rule:evenodd;fill:#FFFFFF;stroke:#020202;stroke-width:0.5;stroke-miterlimit:10;}
	
		.st13{fill-rule:evenodd;clip-rule:evenodd;fill:none;stroke:#000000;stroke-width:2;stroke-linecap:round;stroke-linejoin:round;stroke-miterlimit:10;}
	.st14{fill-rule:evenodd;clip-rule:evenodd;fill:#8FE3E5;}
	.st15{fill:#FFFFFF;}
	.st16{opacity:0.2;}
	.st17{fill:#E54265;}
	.st18{fill-rule:evenodd;clip-rule:evenodd;fill:#F2A464;}
	.st19{fill:#020202;}
	.st20{fill-rule:evenodd;clip-rule:evenodd;fill:#A69EEF;}
	.st21{fill-rule:evenodd;clip-rule:evenodd;fill:#FFDA00;}
	.st22{fill-rule:evenodd;clip-rule:evenodd;fill:none;stroke:#020202;stroke-width:2;stroke-miterlimit:10;}
	.st23{fill-rule:evenodd;clip-rule:evenodd;fill:#FF8B00;}
	.st24{fill:#30C630;}
	.st25{fill-rule:evenodd;clip-rule:evenodd;fill:#F784A2;}
	.st26{fill:#22A822;}
	.st27{fill:#2D8C2D;}
	.st28{opacity:0.5;fill-rule:evenodd;clip-rule:evenodd;fill:#8FB8E2;}
</style>
<path class="st11" d="M14,18.7c4.6-0.2,7.8,0.8,9.5,1.2c0.3-0.8,0.4-1.6,0.4-2.4c0-4.2-3.4-7.6-7.6-7.6s-7.6,3.4-7.6,7.6
	c0,0.8,0.1,1.5,0.3,2.2C10.4,19.2,12.1,18.8,14,18.7z"/>
<path class="st6" d="M14,18.8c5.2-0.2,8.7,1,10.1,1.3c0,0,0.1,0,0.1,0c0.1-0.5,0.1-1,0.1-1.5c0-4.1-3.4-7.4-7.6-7.4
	c-4.2,0-7.6,3.3-7.6,7.4c0,0.4,0,0.7,0.1,1C10.6,19.2,12.1,18.8,14,18.8z"/>
<path class="st16" d="M16,18.7c-3.8-0.1-4.9,0.4-7.4,1.2c-0.5,0.1-0.4,0.5,0,0.5c2.1-0.2,5-0.7,7.3-0.6c3,0.1,5.4,0.7,8.2,1.4
	c0.3,0.1,0.7,0,0.8-0.3c0.1-0.3-0.1-0.6-0.4-0.6C21.9,19.5,19.2,18.8,16,18.7z"/>
<path class="st19" d="M9.5,19.6c0-0.3-0.1-0.6-0.1-1c0-4,3.3-7.2,7.3-7.2s7.3,3.2,7.3,7.2c0,0.5-0.1,1-0.1,1.4c0,0,0.1,0,0.2,0
	c0.1,0,0.2,0.1,0.3,0.1c0.1-0.5,0.2-1,0.2-1.5c0-4.2-3.5-7.7-7.8-7.7S9,14.4,9,18.6c0,0.4,0,0.8,0.1,1.1C9.2,19.7,9.4,19.7,9.5,19.6
	z"/>
<path class="st11" d="M35.9,18.7c2.3,0,3-1.1,5-0.6c0.2-0.6,1.7,0.3,1.7-0.4c0-4.2-3.4-7.6-7.6-7.6s-7.6,3.4-7.6,7.6
	c0,0.8,0.1,1.5,0.3,2.2C30.3,19.1,33.1,18.7,35.9,18.7z"/>
<path class="st4" d="M20.9,19.3c0.8,0.2,1.5,0.3,2,0.5c0.5-0.4,0.7-1,0.5-1.7c-0.3-0.7-1.1-1.1-1.8-0.8c-0.7,0.3-1.1,1.1-0.8,1.8
	C20.9,19.2,20.9,19.3,20.9,19.3z"/>
<path class="st6" d="M36.2,18.7c2.4,0,4.6,0.5,6.8,1.1c0.1-0.4,0.1-0.8,0.1-1.2c0-4.1-3.4-7.4-7.6-7.4S28,14.5,28,18.6
	c0,0.5,0.1,0.9,0.1,1.3C30.6,19.1,33.3,18.7,36.2,18.7z"/>
<path class="st19" d="M28.3,19.9c-0.1-0.4-0.1-0.8-0.1-1.3c0-4,3.3-7.2,7.3-7.2c4,0,7.3,3.2,7.3,7.2c0,0.4,0,0.7-0.1,1.1
	c0.2,0,0.3,0.1,0.5,0.1c0.1-0.4,0.1-0.8,0.1-1.2c0-4.2-3.5-7.7-7.8-7.7s-7.8,3.4-7.8,7.7c0,0.5,0.1,1,0.1,1.4
	C28,20,28.2,20,28.3,19.9z"/>
<path class="st16" d="M36.3,18.7c2.7,0,5.3,0.6,7.7,1.4c0.1,0.1,0.1,0.4-0.4,0.4c-2.1-0.3-5-0.8-7.3-0.8c-3,0-5.8,0.6-8.5,1.5
	c-0.3,0.1-0.7,0-0.8-0.4c-0.1-0.3,0.2-0.5,0.4-0.6C30.1,19.2,33.1,18.7,36.3,18.7z"/>
<path class="st4" d="M29.1,19.7c0.7-0.2,1.5-0.4,2.3-0.5c0.1-0.2,0.1-0.3,0.1-0.5c0-0.8-0.6-1.4-1.4-1.4c-0.8,0-1.4,0.6-1.4,1.4
	C28.7,19.1,28.8,19.4,29.1,19.7z"/>
<path d="M25.7,42.9c-1.1,0-3.4,3.1-5.1,2.7c-3.9-0.9-8.2-3.1-7.2-7.6c1.1-4.9,4.2-14.1,12.1-14.1c7.5,0,11.2,8.4,12.2,13.8
	c0.6,3.5-2.7,5.9-6.4,7.2C29,45.7,27.3,42.9,25.7,42.9z"/>
<path class="st15" d="M26.4,25.8c0,0.9,0.1,0.8,0.6,1.1l1.8,1.1c0.5,0.3,1.1,0.3,1.3,0l0.5-1.2c0.2-0.3,0.1-0.6-0.1-0.7
	c-0.8-0.5-2.1-1.1-3.4-1.4C26.4,24.5,26.4,25.8,26.4,25.8z"/>
<path class="st15" d="M25.2,26c0,0.4,0.1,0.9-0.8,1.2l-2.1,0.7c-0.6,0.3-1.2,0.3-1.4,0l-0.5-1.2c-0.2-0.3,0-0.6,0.2-0.8
	c1-0.7,2.7-1.4,3.8-1.4C25.2,24.6,25.2,26,25.2,26z"/>
<path class="st16" d="M25.5,24.3c3.5-0.2,8.6,2.7,8.9,5.9c0.1,0.7-0.3,0.1-0.9-0.8c-1.1-1.9-5.2-3.5-7.4-3.5c-3,0.1-5.4,1.6-7.5,3.3
	c-0.2,0.2-0.7,0-0.8-0.4c-0.1-0.3,0.2-0.5,0.4-0.7C19.9,25.9,22.4,24.5,25.5,24.3z"/>
<g>
	<path class="st24" d="M38.1,43.3c-0.2-1.6-0.8-3.1-1.3-4.1c-0.8-1.6-2.1-3-3.4-4.2c-1.9-1.8-4.3-3-6.9-3.1c-2.1-0.1-4.2,0.7-6,1.8
		c-2.2,1.4-4.1,3.5-4.8,6.1c-0.3,1.4-0.3,2.9,0.5,4c0.3,0.5,0.8,0.9,1.3,1.2c0.3,0.2,0.6,0.3,0.8,0.5c0.5,0.5,0.4,1.4,0.6,2.1
		c0.2,1,0.9,1.9,1.9,2.3s2.1,0.3,3-0.3c0.7-0.4,1.2-0.7,1.9-0.1c0.3,0.2,0.6,0.5,0.9,0.7c0.5,0.3,1.1,0.2,1.6,0
		c1.6-0.9,0.9-3.2,1.9-4.4c0.1-0.2,0.3-0.3,0.5-0.4c0.3-0.1,0.6,0,0.8,0.2c0.7,0.5,0.8,1.3,1.2,1.9c0.6,0.8,1.7,1.2,2.7,1.1
		c0.7,0,1.4-0.2,1.9-0.7C38.2,46.8,38.3,45,38.1,43.3z"/>
</g>
<ellipse transform="matrix(0.866 -0.5 0.5 0.866 -18.1452 18.761)" class="st6" cx="25.9" cy="43.2" rx="0.4" ry="0.4"/>
<ellipse transform="matrix(0.866 -0.5 0.5 0.866 -16.5905 20.9083)" class="st6" cx="30.7" cy="41.4" rx="0.2" ry="0.2"/>
<ellipse transform="matrix(0.866 -0.5 0.5 0.866 -15.0509 22.7991)" class="st6" cx="35" cy="39.5" rx="0.2" ry="0.2"/>
<ellipse transform="matrix(0.866 -0.5 0.5 0.866 -15.7119 20.8981)" class="st6" cx="31.1" cy="39.8" rx="0.6" ry="0.6"/>
<ellipse transform="matrix(0.866 -0.5 0.5 0.866 -16.4991 21.8409)" class="st6" cx="32.5" cy="41.7" rx="0.4" ry="0.4"/>
<path class="st24" d="M39.7,30.2c0,0,0.1,0,0.1,0.1c0.4,0.2,0.7,0.5,0.8,0.9c0.2,0.5,0.2,1.1-0.1,1.6c-0.3,0.7-1,1.3-1.7,1.3
	c-0.5,0.1-1-0.1-1.5-0.3c-0.9-0.3-1.7-0.8-2.5-1.2c-0.4-0.2-0.8-0.3-1.2-0.4c-0.2-0.1-0.9-0.1-1.1-0.4c-0.2-0.2,0.2-0.7,0.3-0.8
	c0.1-0.1,0.2-0.2,0.2-0.2c0.2-0.2,1.4-1.1,2.8-1.3c1-0.1,2,0,3,0.2C39,29.9,39.3,30,39.7,30.2z"/>
<path class="st24" d="M43.4,38.4C43.4,38.4,43.4,38.4,43.4,38.4c0.3,0.4,0.5,0.7,0.5,1c0,0.5-0.2,0.9-0.5,1.3
	c-0.4,0.5-1.1,0.7-1.7,0.6c-0.4-0.1-0.8-0.4-1.1-0.6c-0.6-0.5-1.1-1.1-1.7-1.6c-0.3-0.2-0.6-0.4-0.9-0.6c-0.1-0.1-0.7-0.3-0.8-0.6
	c-0.1-0.2,0.3-0.5,0.4-0.5c0.1,0,0.2-0.1,0.2-0.1c0.2-0.1,1.4-0.5,2.5-0.3c0.8,0.2,1.6,0.5,2.3,0.9C42.9,38,43.1,38.1,43.4,38.4z"/>
<path class="st16" d="M23.2,49.7c-1.4,0.6-3.3-0.1-4-1.5c-0.4-0.8-0.3-1.7-0.7-2.5c-0.4-0.7-1.2-1-1.8-1.5c-1.1-0.9-1.4-2.5-1.2-3.9
	c0.2-1.4,1-2.7,1.7-3.9c1-1.5,2-2.9,3.6-3.8c1.4-0.8,3.1-1.1,4.8-1.1c1.9,0,3.9,0.4,5.6,1.3c1.6,0.9,3.1,2.2,3.9,3.8
	c-0.5-1-3.4-1.3-4.3-1.4c-1.7-0.2-3.5-0.1-5.1,0.7c-1.3,0.7-2.1,2.4-3.2,3.3c-1,0.7-3,0.7-3.5,1.9c-0.7,1.9,0.3,4.7,1.2,6.5
	C20.6,48.4,22,50.3,23.2,49.7z"/>
</svg>
