<?xml version="1.0" encoding="utf-8"?>
<!-- Generator: Adobe Illustrator 19.2.1, SVG Export Plug-In . SVG Version: 6.00 Build 0)  -->
<svg version="1.1" id="Layer_1" xmlns="http://www.w3.org/2000/svg" xmlns:xlink="http://www.w3.org/1999/xlink" x="0px" y="0px"
	 viewBox="0 0 52 52" style="enable-background:new 0 0 52 52;" xml:space="preserve">
<style type="text/css">
	.st0{fill:#010101;}
	.st1{fill:#61BB46;}
	.st2{fill:#FFFFFF;}
</style>
<g>
	<path class="st0" d="M8.9,18.8c-0.3,0-0.6-0.2-0.7-0.5c-0.1-0.4,0.1-0.8,0.5-0.9l2.6-0.9l-3-0.9c-0.4-0.1-0.6-0.5-0.5-0.9
		c0.1-0.4,0.5-0.6,0.9-0.5l4,1.2c0.9,0.3,1.1,0.8,1.1,1.1c0,0.3-0.1,0.8-1,1.1l-3.7,1.2C9.1,18.8,9,18.8,8.9,18.8z M12.6,16.9
		L12.6,16.9L12.6,16.9z"/>
</g>
<g>
	<path class="st0" d="M42.1,18.8c-0.1,0-0.2,0-0.2,0l-3.7-1.2c-0.9-0.3-1-0.8-1-1.1c0-0.3,0.2-0.8,1.1-1.1l4-1.2
		c0.4-0.1,0.8,0.1,0.9,0.5c0.1,0.4-0.1,0.8-0.5,0.9l-3,0.9l2.6,0.9c0.4,0.1,0.6,0.6,0.5,0.9C42.7,18.6,42.4,18.8,42.1,18.8z"/>
</g>
<g>
	<path class="st0" d="M24.7,38.1c2.7,0.1,2.9,3.6,5,3.6c3.3,0,2.9-3.2,5.4-3.1c2.7,0,4.1,2.5,5,2.5c3,0,2.9-12.4,3.1-14.9
		c0.4-4.1,0-2.4-0.3-3c-0.2-0.4-8.9-1-17.6-1.1c-12.8-0.2-17.3,0.2-17.7,0.7c-0.2,0.3-0.3,0.6,0.1,4.2c0.2,2.3,0.7,12.9,2.8,12.6
		c1-0.2,2.2-1.3,4.1-1.3c2.4,0.1,3.3,3.5,5.2,3.5C21.8,41.9,22.2,38,24.7,38.1z"/>
	<path class="st0" d="M19.9,42.3C19.9,42.3,19.8,42.3,19.9,42.3c-1.2,0-2-0.9-2.7-1.8c-0.8-0.9-1.5-1.7-2.6-1.8
		c-1.1,0-1.9,0.4-2.7,0.7c-0.5,0.2-0.9,0.4-1.3,0.5c-0.3,0-0.6,0-0.9-0.2c-1.4-1.1-2-6.4-2.3-11.3c0-0.6-0.1-1.1-0.1-1.5
		c-0.4-3.8-0.3-4.1,0-4.5c0.3-0.4,0.8-1.1,18.1-0.9c0.2,0,15.8,0.3,17.9,1.3c0.2,0,0.3,0,0.4,0.1c0.3,0.2,0.4,0.4,0.1,3.3
		c0,0.4-0.1,1.2-0.1,2.1C43.5,35,43,41.6,40.2,41.6c-0.5,0-1-0.4-1.6-0.9c-0.9-0.7-1.9-1.6-3.4-1.6c0,0,0,0,0,0
		c-0.9,0-1.3,0.5-1.9,1.2c-0.7,0.9-1.5,1.9-3.5,1.9c-1.2,0-1.9-0.9-2.6-1.8c-0.7-0.9-1.3-1.8-2.5-1.8l0,0c-1.1-0.1-1.7,0.9-2.3,1.8
		C21.7,41.3,21.1,42.3,19.9,42.3z M14.5,37.7c0,0,0.1,0,0.1,0c1.5,0,2.4,1.1,3.3,2.1c0.6,0.7,1.2,1.4,1.9,1.4c0.6,0,1.1-0.5,1.7-1.5
		c0.7-1,1.6-2.3,3.2-2.2h0c1.7,0.1,2.6,1.3,3.3,2.2c0.6,0.9,1.1,1.4,1.8,1.4c1.5,0,2.1-0.8,2.8-1.6c0.6-0.7,1.3-1.6,2.6-1.6
		c0,0,0,0,0,0c1.9,0,3.2,1.1,4.1,1.8c0.3,0.3,0.8,0.7,1,0.7c2,0,2.4-9.3,2.5-12.3c0-0.9,0.1-1.7,0.1-2.1c0.1-1.2,0.2-2,0.2-2.3
		c-0.1,0-0.2-0.1-0.3-0.2c-1.1-0.3-9-0.9-17.3-1c-14.6-0.2-17,0.3-17.3,0.5C8,23.2,8,23.9,8.3,26.8c0,0.3,0.1,0.8,0.1,1.5
		C8.6,31,9.2,38,10.4,39c0.1,0,0.1,0,0.1,0c0.3,0,0.6-0.2,1.1-0.4C12.3,38.2,13.3,37.7,14.5,37.7z"/>
</g>
<g>
	<path class="st1" d="M24.8,45.7c2,0.1,2.2,3.6,3.7,3.6c2.4,0,2.2-3.2,4-3.2c2,0,3,2.5,3.7,2.5c2.3,0,2.2-12.4,2.4-14.9
		c0.3-4.1,0-2.4-0.2-3c-0.2-0.4-6.6-1-13.1-1c-9.5-0.1-12.8,0.3-13.1,0.8c-0.2,0.3-0.2,0.6,0,4.2c0.2,2.3,0.5,12.9,2,12.6
		c0.7-0.2,1.7-1.3,3.1-1.3c1.8,0,2.4,3.4,3.8,3.5C22.7,49.5,23,45.7,24.8,45.7z"/>
	<path class="st0" d="M21.2,50C21.2,50,21.2,50,21.2,50c-1,0-1.6-1-2.1-1.8c-0.5-0.8-1.1-1.7-1.7-1.7c-0.7,0-1.3,0.4-1.9,0.7
		c-0.4,0.2-0.7,0.5-1.1,0.5c-0.2,0-0.5,0-0.7-0.2c-1-0.8-1.5-5-1.8-11.4c0-0.6-0.1-1.1-0.1-1.5c-0.3-3.8-0.2-4.1,0-4.5
		c0.2-0.4,0.7-1.2,13.6-1c0.1,0,11.6,0.2,13.3,1.1c0.1,0,0.2,0,0.3,0.1c0.3,0.2,0.3,0.3,0.1,3.3c0,0.4-0.1,1.2-0.1,2.1
		c-0.3,8.4-0.8,13.3-2.8,13.3c0,0,0,0,0,0c-0.5,0-0.8-0.4-1.3-0.9c-0.6-0.7-1.4-1.5-2.4-1.5c-0.5,0-0.8,0.4-1.3,1.2
		c-0.5,0.9-1.2,2-2.8,2c0,0,0,0,0,0c-1,0-1.5-1-2-1.9c-0.6-1-1-1.7-1.7-1.7l0,0c0,0,0,0,0,0c-0.6,0-1,0.7-1.6,1.8
		C22.7,49,22.2,50,21.2,50z M17.3,45.4C17.3,45.4,17.4,45.4,17.3,45.4c1.3,0,2,1.2,2.6,2.1c0.4,0.6,0.9,1.4,1.3,1.4
		c0.4,0,0.8-0.8,1.1-1.4c0.5-1,1.2-2.3,2.5-2.3c0,0,0,0,0.1,0l0,0c1.4,0,2,1.3,2.5,2.3c0.4,0.7,0.7,1.3,1.1,1.3c0,0,0,0,0,0
		c1,0,1.4-0.7,1.9-1.5c0.5-0.8,1-1.7,2.1-1.7c0,0,0,0,0,0c1.5,0,2.5,1.1,3.2,1.9c0.2,0.2,0.5,0.6,0.6,0.6c0.6,0,1.4-2.2,1.7-12.4
		c0-0.9,0.1-1.7,0.1-2.1c0.1-1.2,0.1-2,0.1-2.4c-0.1,0-0.1-0.1-0.2-0.2c-0.9-0.3-6.5-0.8-12.7-0.9c-10.9-0.1-12.5,0.4-12.7,0.6
		c-0.1,0.1-0.1,0.8,0.1,3.8c0,0.3,0.1,0.8,0.1,1.5c0.3,6.5,0.8,10,1.4,10.6c0.2-0.1,0.4-0.2,0.7-0.4C15.5,46,16.3,45.4,17.3,45.4z
		 M38.5,30.4C38.5,30.4,38.5,30.4,38.5,30.4C38.5,30.4,38.5,30.4,38.5,30.4z"/>
</g>
<g>
	<path class="st2" d="M42.7,24.7c0.3-1.9,0-1.1-0.3-1.4c-0.2-0.2-8.6-1.1-17-1.2c-12.3-0.2-16.6,0.2-16.9,0.6
		c-0.3,0.4-0.3,1.2,0.2,1.6C9.5,24.8,42.5,25.9,42.7,24.7z"/>
	<path class="st0" d="M32.8,25.7c-9.9,0-23.6-0.4-24.4-1C8,24.4,7.8,24,7.7,23.6c-0.1-0.5,0.1-0.9,0.3-1.2c0.7-0.9,9.8-0.9,17.3-0.8
		c6.5,0.1,15.8,0.8,17.2,1.3c0.1,0,0.4,0,0.5,0.2c0.3,0.3,0.2,0.6,0.1,1.7c0,0.2-0.1,0.4-0.4,0.5C42.1,25.6,38,25.7,32.8,25.7z
		 M19.2,22.5c-7.3,0-10,0.3-10.4,0.5c0,0-0.1,0.2,0,0.4c0,0.1,0.1,0.3,0.2,0.4c1.4,0.5,30.4,1.4,33.3,0.6c0-0.3,0.1-0.5,0.1-0.6
		c-0.1,0-0.1,0-0.2-0.1c-0.8-0.2-8.6-1-16.8-1.2C23,22.5,21,22.5,19.2,22.5z M42.6,22.9c0.1,0,0.1,0,0.1,0.1
		C42.7,22.9,42.6,22.9,42.6,22.9z"/>
</g>
<g>
	<path class="st0" d="M12.2,26.1c-0.4,0-0.8-0.3-0.8-0.8v-2.9c0-0.4,0.3-0.8,0.8-0.8s0.8,0.3,0.8,0.8v2.9
		C13,25.8,12.6,26.1,12.2,26.1z"/>
</g>
<g>
	<path class="st0" d="M16.7,26.1c-0.4,0-0.8-0.3-0.8-0.8v-2.9c0-0.4,0.3-0.8,0.8-0.8s0.8,0.3,0.8,0.8v2.9
		C17.5,25.8,17.1,26.1,16.7,26.1z"/>
</g>
<g>
	<path class="st0" d="M21.2,26.1c-0.4,0-0.8-0.3-0.8-0.8v-2.9c0-0.4,0.3-0.8,0.8-0.8s0.8,0.3,0.8,0.8v2.9
		C22,25.8,21.6,26.1,21.2,26.1z"/>
</g>
<g>
	<path class="st0" d="M25.7,26.3c-0.4,0-0.8-0.3-0.8-0.8v-2.9c0-0.4,0.3-0.8,0.8-0.8s0.8,0.3,0.8,0.8v2.9
		C26.5,25.9,26.1,26.3,25.7,26.3z"/>
</g>
<g>
	<path class="st0" d="M30.2,26.3c-0.4,0-0.8-0.3-0.8-0.8v-2.9c0-0.4,0.3-0.8,0.8-0.8s0.8,0.3,0.8,0.8v2.9
		C31,25.9,30.7,26.3,30.2,26.3z"/>
</g>
<g>
	<path class="st0" d="M34.7,26.5c-0.4,0-0.8-0.3-0.8-0.8v-2.9c0-0.4,0.3-0.8,0.8-0.8s0.8,0.3,0.8,0.8v2.9
		C35.5,26.2,35.2,26.5,34.7,26.5z"/>
</g>
<g>
	<path class="st0" d="M39.3,26.5c-0.4,0-0.8-0.3-0.8-0.8v-2.9c0-0.4,0.3-0.8,0.8-0.8s0.8,0.3,0.8,0.8v2.9
		C40,26.2,39.7,26.5,39.3,26.5z"/>
</g>
</svg>
