<?xml version="1.0" encoding="utf-8"?>
<!-- Generator: Adobe Illustrator 19.2.1, SVG Export Plug-In . SVG Version: 6.00 Build 0)  -->
<svg version="1.1" id="Layer_1" xmlns="http://www.w3.org/2000/svg" xmlns:xlink="http://www.w3.org/1999/xlink" x="0px" y="0px"
	 viewBox="0 0 52 52" style="enable-background:new 0 0 52 52;" xml:space="preserve">
<style type="text/css">
	.st0{fill-rule:evenodd;clip-rule:evenodd;fill:#FFF200;}
	.st1{fill:#191919;}
	.st2{opacity:0.59;}
	.st3{fill-rule:evenodd;clip-rule:evenodd;fill:#E7A96B;}
	.st4{fill-rule:evenodd;clip-rule:evenodd;}
	.st5{fill-rule:evenodd;clip-rule:evenodd;fill:#E7A442;}
	.st6{fill-rule:evenodd;clip-rule:evenodd;fill:#FFFFFF;}
	.st7{fill:none;}
	.st8{fill:#231F20;}
	.st9{fill:none;stroke:#231F20;stroke-width:1.5;stroke-linecap:round;stroke-linejoin:round;stroke-miterlimit:10;}
	.st10{fill-rule:evenodd;clip-rule:evenodd;fill:none;stroke:#000000;stroke-width:2;stroke-miterlimit:10;}
	.st11{opacity:0.2;fill-rule:evenodd;clip-rule:evenodd;}
	.st12{fill-rule:evenodd;clip-rule:evenodd;fill:#FFFFFF;stroke:#020202;stroke-width:0.5;stroke-miterlimit:10;}
	
		.st13{fill-rule:evenodd;clip-rule:evenodd;fill:none;stroke:#000000;stroke-width:2;stroke-linecap:round;stroke-linejoin:round;stroke-miterlimit:10;}
	.st14{fill-rule:evenodd;clip-rule:evenodd;fill:#8FE3E5;}
	.st15{fill:#FFFFFF;}
	.st16{opacity:0.2;}
	.st17{fill:#E54265;}
	.st18{fill-rule:evenodd;clip-rule:evenodd;fill:#F2A464;}
	.st19{fill:#020202;}
	.st20{fill-rule:evenodd;clip-rule:evenodd;fill:#A69EEF;}
	.st21{fill-rule:evenodd;clip-rule:evenodd;fill:#FFDA00;}
	.st22{fill-rule:evenodd;clip-rule:evenodd;fill:none;stroke:#020202;stroke-width:2;stroke-miterlimit:10;}
	.st23{fill-rule:evenodd;clip-rule:evenodd;fill:#FF8B00;}
	.st24{fill:#30C630;}
	.st25{fill-rule:evenodd;clip-rule:evenodd;fill:#F784A2;}
	.st26{fill:#22A822;}
	.st27{fill:#2D8C2D;}
	.st28{opacity:0.5;fill-rule:evenodd;clip-rule:evenodd;fill:#8FB8E2;}
</style>
<path d="M29.2,39.4c1.1-0.5,2.8-1.5,4-2.3c0.3-0.2,0.9-0.9,0.4-1.4c-0.6-0.6-2.1,0.6-2.2,0.7c-0.6,0.5-1.6,1.8-2.5,2.3
	c-1.2,0.6-2.1,0.6-3.2,0.5c-0.2,0-0.4,0.1-0.5,0.4c-0.1,0.2,0.2,0.3,0.3,0.4C26.8,40,28,40,29.2,39.4z"/>
<path class="st11" d="M35.7,22.8c-3.1,0-6.3,0.5-8.8-0.6c-0.1,0.5-0.1,1.1-0.1,1.7c0,5.6,4.6,10.2,10.2,10.2s10.2-4.6,10.2-10.2
	c0-1-0.2-2-0.4-3C43.5,22.8,39.9,22.8,35.7,22.8z"/>
<path class="st4" d="M37.5,22.3c-4.5,0.5-8,0-10.1-0.5c0,0.4-0.1,0.7-0.1,1.1c0,5.5,4.6,10,10.2,10c5.6,0,10.2-4.5,10.2-10
	c0-1.1-0.2-2.2-0.6-3.2C44.9,20.7,41.7,21.9,37.5,22.3z"/>
<path d="M49.3,19.2c0.2,0.1,0.6,0.4,0.1,0.7c-2.6,1.7-18.4,3.9-22.9,2.1c-0.4-0.1-1-0.1-1.1-0.6c-0.1-0.4,0.3-0.8,0.6-0.8
	C30.3,21,46.7,19.6,49.3,19.2z"/>
<path class="st11" d="M15.8,22.8c3.1,0,6.3,0.5,8.8-0.6c0.1,0.5,0.1,1.1,0.1,1.7c0,5.6-4.6,10.2-10.2,10.2S4.4,29.6,4.4,23.9
	c0-1,0.2-2,0.4-3C8,22.8,11.6,22.8,15.8,22.8z"/>
<path class="st4" d="M14,22.3c4.5,0.5,8,0,10.1-0.5c0,0.4,0.1,0.7,0.1,1.1c0,5.5-4.6,10-10.2,10c-5.6,0-10.2-4.5-10.2-10
	c0-1.1,0.2-2.2,0.6-3.2C6.5,20.7,9.8,21.9,14,22.3z"/>
<path d="M2.2,19.2c-0.2,0.1-0.6,0.4-0.1,0.7c2.6,1.7,18.4,3.9,22.9,2.1c0.4-0.1,1-0.1,1.1-0.6c0.1-0.4-0.3-0.8-0.6-0.8
	C21.2,21,4.8,19.6,2.2,19.2z"/>
</svg>
