<?xml version="1.0" encoding="utf-8"?>
<!-- Generator: Adobe Illustrator 19.2.1, SVG Export Plug-In . SVG Version: 6.00 Build 0)  -->
<svg version="1.1" id="Layer_1" xmlns="http://www.w3.org/2000/svg" xmlns:xlink="http://www.w3.org/1999/xlink" x="0px" y="0px"
	 viewBox="0 0 52 52" style="enable-background:new 0 0 52 52;" xml:space="preserve">
<style type="text/css">
	.st0{fill:#010101;}
	.st1{fill:#FFFFFF;}
</style>
<g>
	<path class="st0" d="M23.6,26.4c10.2-0.4,12.8,4.1,13.2,11c0.2,4.2-7.9,4.8-9.6,4.9c-4.6,0.2-9.2-1.4-9.6-6.1
		C17.1,31.4,19.7,26.6,23.6,26.4z"/>
	<path class="st0" d="M26.5,42.9c-4.4,0-9-1.7-9.5-6.6c-0.3-2.9,0.6-5.9,2.2-8c1.2-1.5,2.7-2.3,4.4-2.4h0c9.3-0.3,13.2,3,13.7,11.5
		c0,0.9-0.2,1.7-0.8,2.5c-2.2,2.6-8.1,3-9.3,3C26.9,42.9,26.7,42.9,26.5,42.9z M24.8,27c-0.4,0-0.8,0-1.2,0c0,0,0,0,0,0
		c-1.4,0.1-2.6,0.8-3.7,2c-1.4,1.8-2.2,4.5-1.9,7.1c0.5,5.5,7.1,5.7,9.1,5.6c0.7,0,6.6-0.3,8.6-2.7c0.4-0.5,0.6-1,0.6-1.7
		C35.9,31.2,33.8,27,24.8,27z M23.6,26.4L23.6,26.4L23.6,26.4z"/>
</g>
<g>
	<path class="st1" d="M30,40.8c-3.1,0.3-6,0.6-6.4-2.8c-0.4-3.6,3.5-4.8,5-4.9c2.8-0.3,6.4,0.4,6.9,4.5C35.8,40.1,31.8,40.5,30,40.8
		z"/>
</g>
<g>
	<circle class="st0" cx="9" cy="29.7" r="2.1"/>
</g>
<g>
	<circle class="st0" cx="42.5" cy="29.7" r="2.1"/>
</g>
</svg>
