<?xml version="1.0" encoding="utf-8"?>
<!-- Generator: Adobe Illustrator 19.2.1, SVG Export Plug-In . SVG Version: 6.00 Build 0)  -->
<svg version="1.1" id="Layer_1" xmlns="http://www.w3.org/2000/svg" xmlns:xlink="http://www.w3.org/1999/xlink" x="0px" y="0px"
	 viewBox="0 0 52 52" style="enable-background:new 0 0 52 52;" xml:space="preserve">
<style type="text/css">
	.st0{fill-rule:evenodd;clip-rule:evenodd;fill:#FFF200;}
	.st1{fill:#191919;}
	.st2{opacity:0.59;}
	.st3{fill-rule:evenodd;clip-rule:evenodd;fill:#E7A96B;}
	.st4{fill-rule:evenodd;clip-rule:evenodd;}
	.st5{fill-rule:evenodd;clip-rule:evenodd;fill:#E7A442;}
	.st6{fill-rule:evenodd;clip-rule:evenodd;fill:#FFFFFF;}
	.st7{fill:none;}
	.st8{fill:#231F20;}
	.st9{fill:none;stroke:#231F20;stroke-width:1.5;stroke-linecap:round;stroke-linejoin:round;stroke-miterlimit:10;}
	.st10{fill-rule:evenodd;clip-rule:evenodd;fill:none;stroke:#000000;stroke-width:2;stroke-miterlimit:10;}
	.st11{opacity:0.2;fill-rule:evenodd;clip-rule:evenodd;}
	.st12{fill-rule:evenodd;clip-rule:evenodd;fill:#FFFFFF;stroke:#020202;stroke-width:0.5;stroke-miterlimit:10;}
	
		.st13{fill-rule:evenodd;clip-rule:evenodd;fill:none;stroke:#000000;stroke-width:2;stroke-linecap:round;stroke-linejoin:round;stroke-miterlimit:10;}
	.st14{fill-rule:evenodd;clip-rule:evenodd;fill:#8FE3E5;}
	.st15{fill:#FFFFFF;}
	.st16{opacity:0.2;}
	.st17{fill:#E54265;}
	.st18{fill-rule:evenodd;clip-rule:evenodd;fill:#F2A464;}
	.st19{fill:#020202;}
	.st20{fill-rule:evenodd;clip-rule:evenodd;fill:#A69EEF;}
	.st21{fill-rule:evenodd;clip-rule:evenodd;fill:#FFDA00;}
	.st22{fill-rule:evenodd;clip-rule:evenodd;fill:none;stroke:#020202;stroke-width:2;stroke-miterlimit:10;}
	.st23{fill-rule:evenodd;clip-rule:evenodd;fill:#FF8B00;}
	.st24{fill:#30C630;}
	.st25{fill-rule:evenodd;clip-rule:evenodd;fill:#F784A2;}
	.st26{fill:#22A822;}
	.st27{fill:#2D8C2D;}
	.st28{opacity:0.5;fill-rule:evenodd;clip-rule:evenodd;fill:#8FB8E2;}
</style>
<g class="st2">
	<g>
		<path class="st3" d="M40.6,37.8c-1.7,0-3.1,1.3-3.1,3s1.4,3,3.1,3c1.7,0,3.1-1.3,3.1-3S42.3,37.8,40.6,37.8z M9.5,34.5
			c-1.7,0-3.1,1.4-3.1,3.1s1.4,3.1,3.1,3.1c1.7,0,3.1-1.4,3.1-3.1S11.3,34.5,9.5,34.5z"/>
	</g>
</g>
<g>
	<path d="M43.5,35.8c-0.1,0-0.1,0-0.2,0c0,0-4-1.6-7.1-1.5c-2.9,0-6,0.4-6,0.4c-0.3,0-0.5-0.2-0.6-0.4s0.2-0.5,0.4-0.6
		c0,0,3.1-0.3,6.1-0.4c0,0,0.1,0,0.1,0c3.3,0,7.1,1.6,7.3,1.6c0.3,0.1,0.4,0.4,0.3,0.7C43.9,35.7,43.7,35.8,43.5,35.8z"/>
</g>
<g>
	<path d="M36,25.2c-3.3,0-7.2-1.7-7.3-1.8c-0.3-0.1-0.4-0.4-0.3-0.7c0.1-0.3,0.4-0.4,0.7-0.3c0,0,4.1,1.8,7.2,1.7
		c3-0.1,6-0.1,6.1-0.1c0.3,0,0.5,0.2,0.5,0.5c0,0.3-0.2,0.5-0.5,0.5c0,0-0.1,0-0.3,0c-0.8,0-3.3,0-5.8,0.1
		C36.1,25.2,36,25.2,36,25.2z"/>
</g>
<g>
	<g>
		<path class="st4" d="M43.5,23.4l-13.4,0c-0.2,0.3-0.5,0.6-0.7,1C27.7,27.5,28,31.3,30,34l13.1,0.5c0.4-0.4,0.7-0.9,1-1.4
			C46,29.9,45.6,26.1,43.5,23.4z M41.6,30.1c-0.6,0.4-1.4,0.3-1.8-0.3c-0.4-0.6-0.3-1.4,0.3-1.8c0.6-0.4,1.4-0.3,1.8,0.3
			C42.4,28.9,42.2,29.7,41.6,30.1z M12.3,17.7c-4.5,2.2-6.4,7.7-4.1,12.4c2.2,4.7,7.7,6.7,12.2,4.5c4.5-2.2,6.4-7.7,4.1-12.4
			C22.3,17.6,16.8,15.5,12.3,17.7z M21.9,28.9c-0.7,0.3-1.5,0-1.9-0.7c-0.4-0.7-0.1-1.6,0.6-1.9c0.7-0.3,1.5,0,1.9,0.7
			C22.9,27.7,22.6,28.6,21.9,28.9z M33.5,46.1c-0.9-0.1-1.9,0.2-2.3,0.7c-0.4,0.5,0.1,1.1,1,1.2c0.9,0.1,1.9-0.2,2.3-0.7
			C34.8,46.8,34.3,46.2,33.5,46.1z"/>
	</g>
</g>
</svg>
