<?xml version="1.0" encoding="utf-8"?>
<!-- Generator: Adobe Illustrator 19.2.1, SVG Export Plug-In . SVG Version: 6.00 Build 0)  -->
<svg version="1.1" id="Layer_1" xmlns="http://www.w3.org/2000/svg" xmlns:xlink="http://www.w3.org/1999/xlink" x="0px" y="0px"
	 viewBox="0 0 52 52" style="enable-background:new 0 0 52 52;" xml:space="preserve">
<style type="text/css">
	.st0{fill:#010101;}
	.st1{fill:#FFFFFF;}
</style>
<g>
	<circle class="st0" cx="8.7" cy="28.5" r="2.1"/>
</g>
<g>
	<circle class="st0" cx="42.9" cy="28.5" r="2.1"/>
</g>
<g>
	<path class="st0" d="M37.4,37.2c0,0,0.5-8.4-11.5-8.4h-0.3c-10.9,0-11.3,8.4-11.3,8.4H37.4z"/>
	<path class="st0" d="M37.4,38H14.3c-0.2,0-0.4-0.1-0.5-0.2c-0.1-0.1-0.2-0.4-0.2-0.6c0-0.1,0.6-9.1,12.1-9.1h0.3
		c4.5,0,7.8,1.1,10,3.4c2.4,2.6,2.3,5.6,2.3,5.8C38.1,37.6,37.8,38,37.4,38z M15.1,36.5h21.5c-0.1-0.9-0.5-2.6-1.9-4
		c-1.8-1.9-4.8-2.9-8.9-2.9h-0.3C17.4,29.6,15.5,34.5,15.1,36.5z"/>
</g>
<g>
	<path class="st1" d="M34.3,35.9c0.5,0,0.9-0.1,0.8-0.3c-0.3-0.6-1.8-1.9-9.3-1.9h-0.2c-6.7,0-8.5,1.3-9,1.9
		c-0.1,0.2,0.3,0.3,0.8,0.3H34.3z"/>
</g>
</svg>
