<?xml version="1.0" encoding="utf-8"?>
<!-- Generator: Adobe Illustrator 19.2.1, SVG Export Plug-In . SVG Version: 6.00 Build 0)  -->
<svg version="1.1" id="Layer_1" xmlns="http://www.w3.org/2000/svg" xmlns:xlink="http://www.w3.org/1999/xlink" x="0px" y="0px"
	 viewBox="0 0 52 52" style="enable-background:new 0 0 52 52;" xml:space="preserve">
<style type="text/css">
	.st0{fill:#010101;}
	.st1{fill:#FFFFFF;}
</style>
<g>
	<ellipse transform="matrix(0.9903 -0.1392 0.1392 0.9903 -3.9044 1.3699)" class="st0" cx="7.8" cy="28.6" rx="2.1" ry="2.1"/>
</g>
<g>
	<circle class="st0" cx="40" cy="28.6" r="2.1"/>
</g>
<g>
	<path class="st0" d="M39.5,38.9H15.9c-0.4,0-0.8-0.3-0.8-0.8s0.3-0.8,0.8-0.8h23.6c0.4,0,0.8,0.3,0.8,0.8S40,38.9,39.5,38.9z"/>
</g>
<g>
	<path class="st1" d="M23.6,38.2L23,35.4c-0.5-3.1-2.2-4.1-4.4-4.1l0,0c-2.2,0-3.6,2.5-3.6,4.1s0.7,2.9,0.7,2.9H23.6z"/>
	<path class="st0" d="M23.6,38.9h-8c-0.3,0-0.5-0.1-0.6-0.4c0-0.1-0.8-1.4-0.8-3.2c0-2,1.7-4.8,4.4-4.8c2,0,4.5,0.8,5.2,4.8l0.7,2.7
		c0.1,0.2,0,0.5-0.1,0.6S23.9,38.9,23.6,38.9z M16.1,37.4h6.6l-0.5-1.9c-0.4-2.5-1.6-3.6-3.7-3.6c-1.6,0-2.9,2-2.9,3.3
		C15.7,36.2,15.9,37,16.1,37.4z"/>
</g>
<g>
	<path class="st0" d="M19.6,38.9c-0.3,0-0.6-0.2-0.7-0.5c0-0.1-0.5-1.6-0.9-3.4c-0.2-0.8-0.6-3.3-0.6-3.4c-0.1-0.4,0.2-0.8,0.6-0.9
		c0.4-0.1,0.8,0.2,0.9,0.6c0,0,0.4,2.5,0.6,3.3c0.4,1.7,0.9,3.2,0.9,3.2c0.1,0.4-0.1,0.8-0.5,0.9C19.8,38.9,19.7,38.9,19.6,38.9z"/>
</g>
</svg>
